<?xml version="1.0" encoding="UTF-8" standalone="no"?>
<svg
   xmlns:dc="http://purl.org/dc/elements/1.1/"
   xmlns:cc="http://creativecommons.org/ns#"
   xmlns:rdf="http://www.w3.org/1999/02/22-rdf-syntax-ns#"
   xmlns:svg="http://www.w3.org/2000/svg"
   xmlns="http://www.w3.org/2000/svg"
   xmlns:sodipodi="http://sodipodi.sourceforge.net/DTD/sodipodi-0.dtd"
   xmlns:inkscape="http://www.inkscape.org/namespaces/inkscape"
   id="Capa_1"
   enable-background="new 0 0 512 512"
   height="16"
   viewBox="0 0 512 512"
   width="16"
   version="1.1"
   sodipodi:docname="bug_ns.svg"
   inkscape:version="0.92.3 (2405546, 2018-03-11)">
  <metadata
     id="metadata6652">
    <rdf:RDF>
      <cc:Work
         rdf:about="">
        <dc:format>image/svg+xml</dc:format>
        <dc:type
           rdf:resource="http://purl.org/dc/dcmitype/StillImage" />
        <dc:title></dc:title>
      </cc:Work>
    </rdf:RDF>
  </metadata>
  <defs
     id="defs6650" />
  <sodipodi:namedview
     pagecolor="#ffffff"
     bordercolor="#666666"
     borderopacity="1"
     objecttolerance="10"
     gridtolerance="10"
     guidetolerance="10"
     inkscape:pageopacity="0"
     inkscape:pageshadow="2"
     inkscape:window-width="1920"
     inkscape:window-height="1017"
     id="namedview6648"
     showgrid="false"
     inkscape:zoom="5.2149125"
     inkscape:cx="16.829124"
     inkscape:cy="14.131759"
     inkscape:window-x="0"
     inkscape:window-y="30"
     inkscape:window-maximized="1"
     inkscape:current-layer="Capa_1" />
  <path
     d="m 227.6455,103.78439 c -2.746,0 -5.429,-1.389 -6.952,-3.912998 l -48.762,-80.357 c -2.333,-3.833 -1.111,-8.833 2.73,-11.1589995 3.841,-2.333 8.841,-1.111 11.159,2.7299995 l 48.762,80.357 c 2.333,3.833 1.111,8.832998 -2.73,11.158998 -1.318,0.802 -2.771,1.183 -4.207,1.183 z"
     id="path6607"
     inkscape:connector-curvature="0"
     style="fill:#ada7ae" />
  <path
     d="m 308.8995,103.78439 c -1.437,0 -2.889,-0.381 -4.206,-1.183 -3.841,-2.325 -5.063,-7.324998 -2.73,-11.158998 l 48.762,-80.357 c 2.325,-3.8409995 7.325,-5.0629995 11.159,-2.7299995 3.841,2.3249995 5.063,7.3249995 2.73,11.1589995 l -48.763,80.358 c -1.524,2.522998 -4.206,3.911998 -6.952,3.911998 z"
     id="path6609"
     inkscape:connector-curvature="0"
     style="fill:#ada7ae" />
  <path
     d="m 341.4155,145.33239 c 0,40.396 -32.747,73.143 -73.143,73.143 -40.396,0 -50,-32.747 -50,-73.143 0,-28.604 -6.724,-53.371998 17.204,-65.395998 9.864,-4.957 21.004,-7.747 32.796,-7.747 40.395,0 73.143,32.746998 73.143,73.142998 z"
     id="path6611"
     inkscape:connector-curvature="0"
     style="fill:#5d5360" />
  <path
     d="m 300.7805,185.96739 c -40.396,0 -73.143,-32.747 -73.143,-73.143 0,-11.809 2.869,-23.012998 7.839,-32.886998 -23.904,12.031 -40.347,36.807998 -40.347,65.394998 0,40.395 32.747,73.143 73.143,73.143 28.587,0 53.277,-16.437 65.308,-40.342 -9.874,4.969 -20.991,7.834 -32.8,7.834 z"
     id="path6613"
     inkscape:connector-curvature="0"
     style="fill:#4b3f4e" />
  <path
     d="m 385.7725,340.37939 c 0,68.818 22.413,128.554 -34.578,158.443 -24.785,12.997 -52.995,20.35 -82.922,20.35 -29.923,0 -58.13,-7.347 -82.912,-20.341 -56.998,-29.886 -47.421,-89.63 -47.421,-158.452 0,-98.745 31.588,-178.793 130.333,-178.793 98.745,0 117.5,80.048 117.5,178.793 z"
     id="path6615"
     inkscape:connector-curvature="0"
     style="fill:#5d5360" />
  <path
     d="m 447.0655,340.37939 c 0,-102.526 -86.297,-184.897 -190.217,-178.438 -91.029,5.658 -164.246003,81.208 -167.268003,172.362 -2.366,71.366 37.119003,133.762 95.781003,164.527 35.035,-70.234 58.139,-131.83 73.166,-179.978 2.981,-9.552 16.51,-9.552 19.491,0 15.027,48.148 38.141,109.734 73.176,179.969 56.99,-29.888 95.871,-89.625 95.871,-158.442 z"
     id="path6617"
     inkscape:connector-curvature="0"
     style="fill:#4b3f4e" />
  <path
     d="m 255.8175,145.71939 c -30.281,1.881 -58.804,10.859 -83.905,25.27 -55.415,31.814 -88.990003,90.103 -93.140003,156.954 -4.415,71.12 30.388003,127.122 83.750003,164.604 l 13.71,-11.919 c 55.678,-114.235 78.857,-203.81 87.498,-245.213 1.032,-4.945 8.052,-4.945 9.084,0 9.048,43.351 34.034,139.513 95.575,261.499 2.199,4.359 7.841,5.943 11.836,3.137 50.235,-35.281 83.094,-93.622 83.094,-159.672 0,-111.844 -94.138,-201.702 -207.502,-194.66 z"
     id="path6619"
     inkscape:connector-curvature="0"
     style="fill:#e5646e" />
  <circle
     cx="203.25648"
     cy="250.98239"
     r="16.254"
     id="circle6621"
     style="fill:#5d5360" />
  <circle
     cx="154.49449"
     cy="413.52139"
     r="16.254"
     id="circle6623"
     style="fill:#5d5360" />
  <path
     d="m 97.606497,324.12539 c 0,-62.117 29.064003,-117.416 74.306003,-153.135 -10.844,6.225 -21.049,13.464 -30.481,21.583 l -41.495003,49.636 c -15.028,25.542 -24.399,54.717 -26.324,85.735 -4.415,71.12 29.338003,134.621 82.700003,172.102 3.998,2.808 9.647,1.223 11.847,-3.139 2.781,-5.512 5.433,-10.878 8.066,-16.281 -47.697,-35.559 -78.619003,-92.435 -78.619003,-156.501 z"
     id="path6625"
     inkscape:connector-curvature="0"
     style="fill:#db4655" />
  <path
     d="m 374.3975,501.21239 c 1.975,0.341 4.057,0.082 5.828,-1.162 2.604,-1.829 5.132,-3.757 7.64,-5.708 -4.387,2.46 -8.879,4.748 -13.468,6.87 z"
     id="path6627"
     inkscape:connector-curvature="0"
     style="fill:#db4655" />
  <path
     d="m 105.5225,240.54739 c 3.52,3.256 6.879,8.967 6.879,8.967 3.024,0.952 6.241,1.468 9.586,1.468 17.954,0 32.508,-14.555 32.508,-32.508 0,-8.675 -3.449,-16.494 -9.005,-22.3 -1.229,-1.285 -4.967,-0.752 -4.967,-0.752 -16.418,14.128 -23.972,26.375 -35.001,45.125 z"
     id="path6629"
     inkscape:connector-curvature="0"
     style="fill:#5d5360" />
  <path
     d="m 374.3975,501.21239 c 1.975,0.341 4.057,0.082 5.828,-1.162 2.604,-1.829 5.132,-3.757 7.64,-5.708 -4.387,2.46 -8.879,4.748 -13.468,6.87 z"
     id="path6631"
     inkscape:connector-curvature="0"
     style="fill:#db4655" />
  <path
     d="m 141.4315,192.57239 c -16.417,14.128 -30.466,30.886 -41.495003,49.636 3.532003,3.266 7.769003,5.835 12.465003,7.305 8.119,-19.523 19.413,-37.627 33.088,-53.339 -1.245,-1.308 -2.615,-2.51 -4.058,-3.602 z"
     id="path6633"
     inkscape:connector-curvature="0"
     style="fill:#4b3f4e" />
  <g
     id="g6645"
     style="fill:#5d5360"
     transform="translate(12.272497,7.1723925)">
    <circle
       cx="142.222"
       cy="316.953"
       r="32.507999"
       id="circle6635" />
    <circle
       cx="321.01599"
       cy="243.81"
       r="16.254"
       id="circle6637" />
    <circle
       cx="369.77701"
       cy="316.953"
       r="32.507999"
       id="circle6639" />
    <circle
       cx="369.77701"
       cy="406.349"
       r="16.254"
       id="circle6641" />
    <path
       d="m 424.472,234.949 c -10.99,-18.802 -25.006,-35.613 -41.427,-49.724 -8.008,5.921 -13.267,15.353 -13.267,26.077 0,17.953 14.554,32.508 32.508,32.508 8.603,0 16.371,-3.404 22.186,-8.861 z"
       id="path6643"
       inkscape:connector-curvature="0" />
  </g>
</svg>
