<?xml version="1.0" encoding="UTF-8" standalone="no"?>
<svg
   xmlns:dc="http://purl.org/dc/elements/1.1/"
   xmlns:cc="http://creativecommons.org/ns#"
   xmlns:rdf="http://www.w3.org/1999/02/22-rdf-syntax-ns#"
   xmlns:svg="http://www.w3.org/2000/svg"
   xmlns="http://www.w3.org/2000/svg"
   xmlns:sodipodi="http://sodipodi.sourceforge.net/DTD/sodipodi-0.dtd"
   xmlns:inkscape="http://www.inkscape.org/namespaces/inkscape"
   id="Capa_1"
   enable-background="new 0 0 510.429 510.429"
   height="16"
   viewBox="0 0 527.95088 527.95088"
   width="16"
   version="1.1"
   sodipodi:docname="dark_ns.svg"
   inkscape:version="0.92.3 (2405546, 2018-03-11)">
  <metadata
     id="metadata2043">
    <rdf:RDF>
      <cc:Work
         rdf:about="">
        <dc:format>image/svg+xml</dc:format>
        <dc:type
           rdf:resource="http://purl.org/dc/dcmitype/StillImage" />
        <dc:title></dc:title>
      </cc:Work>
    </rdf:RDF>
  </metadata>
  <defs
     id="defs2041" />
  <sodipodi:namedview
     pagecolor="#ffffff"
     bordercolor="#666666"
     borderopacity="1"
     objecttolerance="10"
     gridtolerance="10"
     guidetolerance="10"
     inkscape:pageopacity="0"
     inkscape:pageshadow="2"
     inkscape:window-width="1920"
     inkscape:window-height="1017"
     id="namedview2039"
     showgrid="false"
     inkscape:zoom="10.429825"
     inkscape:cx="4.5622716"
     inkscape:cy="4.6354537"
     inkscape:window-x="0"
     inkscape:window-y="30"
     inkscape:window-maximized="1"
     inkscape:current-layer="Capa_1" />
  <path
     d="m 269.46703,164.38999 c 25.82,-21.733 59.153,-34.827 95.54302,-34.827 81.98998,0 148.455,66.466 148.455,148.455 0,81.989 -66.46601,148.455 -148.455,148.455 -34.74202,0 -66.69702,-11.934 -91.98802,-31.927"
     id="path1990"
     inkscape:connector-curvature="0"
     style="fill:#5a5a5a;stroke-width:1" />
  <path
     d="m 365.01104,129.56299 c -18.042,0 -35.33101,3.22202 -51.32701,9.116 34.323,36.362 55.36999,85.39 55.36999,139.339 0,53.949 -21.04699,102.977 -55.36999,139.339 15.996,5.89401 33.28501,9.116 51.32701,9.116 81.99001,0 148.455,-66.466 148.455,-148.455 0,-81.989 -66.46601,-148.455 -148.455,-148.455 z"
     id="path1992"
     inkscape:connector-curvature="0"
     style="fill:#9c9c9c;stroke-width:1" />
  <path
     d="m 365.01104,129.56299 c -5.05002,0 -10.03902,0.261 -14.959,0.75401 74.92498,7.539 133.41501,70.78901 133.41501,147.70101 0,76.912 -58.48901,140.16199 -133.41501,147.701 4.91998,0.49297 9.90898,0.75398 14.959,0.75398 81.99001,0 148.455,-66.46598 148.455,-148.45498 0,-81.989 -66.46601,-148.45501 -148.455,-148.45502 z"
     id="path1994"
     inkscape:connector-curvature="0"
     style="fill:#838383;stroke-width:1" />
  <circle
     cx="166.49203"
     cy="278.01797"
     r="148.455"
     id="circle1996"
     style="fill:#fedf30;stroke-width:1" />
  <path
     d="m 166.49304,129.56299 c -5.063,0 -10.067,0.25605 -15,0.75101 74.94499,7.52 133.45499,70.778 133.45499,147.705 0,76.927 -58.511,140.184 -133.45499,147.704 4.933,0.49495 9.937,0.75101 15,0.75101 81.98999,0 148.45499,-66.46601 148.45499,-148.45501 0,-81.989 -66.466,-148.456 -148.45499,-148.45601 z"
     id="path1998"
     inkscape:connector-curvature="0"
     style="fill:#fed402;stroke-width:1" />
  <circle
     cx="231.12103"
     cy="335.62997"
     r="15.577"
     id="circle2000"
     style="fill:#e8b800;stroke-width:1" />
  <circle
     cx="103.51303"
     cy="219.61896"
     r="15.577"
     id="circle2002"
     style="fill:#e8b800;stroke-width:1" />
  <circle
     cx="449.32904"
     cy="251.04099"
     r="15.845"
     id="circle2004"
     style="fill:#838383;stroke-width:1" />
  <circle
     cx="439.83206"
     cy="343.67398"
     r="21.280001"
     id="circle2006"
     style="fill:#838383;stroke-width:1" />
  <path
     style="stroke-width:1"
     d="m 463.79705,157.33399 c -3.20301,-2.62501 -7.92903,-2.15701 -10.55503,1.04699 -2.62589,3.204 -2.15701,7.929 1.047,10.555 32.84197,26.913 51.67698,66.67201 51.67698,109.08301 0,77.723 -63.23201,140.95501 -140.95499,140.95501 -13.91702,0 -27.60701,-2.0501 -40.68401,-5.986 2.88301,-3.15088 5.69,-6.40801 8.354,-9.71901 2.59703,-3.228 2.08503,-7.948 -1.14296,-10.545 -3.22901,-2.597 -7.94901,-2.084 -10.54501,1.143 -2.848,3.54 -5.867,7.023 -8.976,10.353 -0.989,1.06 -1.604,2.331 -1.866,3.65501 -11.867,-5.01401 -23.056,-11.66501 -33.24,-19.82901 28.125,-28.224 45.536,-67.129 45.536,-110.027 0,-42.897 -17.412,-81.803 -45.536,-110.027 10.171,-8.152 21.344,-14.797 33.195,-19.808 0.2719,1.29401 0.88201,2.53301 1.85001,3.569 3.10699,3.325 6.128,6.806 8.979,10.346 1.481,1.841 3.654,2.79698 5.847,2.79698 1.65001,0 3.313,-0.542 4.698,-1.65799 3.22699,-2.59699 3.73599,-7.31899 1.13899,-10.54499 -2.645,-3.286 -5.432,-6.518 -8.292,-9.643 13.078,-3.937 26.769,-5.987 40.68302,-5.987 23.14098,0 46.08397,5.726 66.34999,16.56 3.653,1.95299 8.19799,0.57401 10.14999,-3.07799 1.95309,-3.653 0.57415,-8.198 -3.07795,-10.15 -22.43501,-11.992 -47.82301,-18.331 -73.422,-18.331 -36.38901,0 -71.40201,12.64 -99.31001,35.711 -26.97904,-22.29801 -61.55704,-35.71101 -99.20903,-35.71101 -41.061,0 -79.822002,15.824 -109.145005,44.558 -2.958999,2.89901 -3.00701,7.648 -0.10691,10.606 2.899012,2.959 7.649002,3.00599 10.604999,0.1079 26.502003,-25.97 61.535006,-40.272 98.646006,-40.272 2.92,0 5.817,0.1 8.694,0.27585 l -61.54809,61.54825 c -3.05901,-1.50001 -6.494,-2.34499 -10.125,-2.34499 -12.725002,0 -23.077003,10.352 -23.077003,23.077 0,12.725 10.353001,23.077 23.077003,23.077 12.724,0 23.077,-10.352 23.077,-23.077 0,-3.63 -0.84498,-7.066 -2.34499,-10.125 l 69.73198,-69.73301 c 29.874,5.929 56.378,21.326 76.244,42.924 l -34.334,34.334 c -2.929,2.92901 -2.929,7.678 0,10.607 1.465,1.465 3.384,2.197 5.304,2.197 1.919,0 3.839,-0.732 5.304,-2.197 l 33.326,-33.325 c 17.351,23.426 27.627,52.393 27.627,83.717 0,41.241 -17.804,78.4 -46.128,104.199 -0.44001,0.31315 -0.85501,0.674 -1.23101,1.092 -0.006,0.007 -0.01,0.014 -0.016,0.02 -24.909,22.159 -57.69701,35.64401 -93.58,35.64401 -2.64599,0 -5.27299,-0.0792 -7.883,-0.22438 l 62.38701,-62.38663 c 3.05902,1.50001 6.494,2.345 10.125,2.345 12.725,0 23.077,-10.352 23.077,-23.077 0,-12.725 -10.353,-23.07701 -23.077,-23.07701 -12.724,0 -23.077,10.35201 -23.077,23.07701 0,3.63 0.84499,7.066 2.34499,10.125 l -69.84598,69.84599 c -0.262,0.26068 -0.49301,0.54412 -0.70801,0.83284 -34.42699,-6.61684 -64.435994,-25.79583 -85.056994,-52.56683 l 33.475,-33.475 c 2.929005,-2.929 2.929005,-7.678 0,-10.606 -2.929996,-2.929 -7.678,-2.929 -10.606999,0 l -31.517001,31.518 c -13.058,-21.37 -20.591,-46.465 -20.591,-73.287 0,-28.208 8.302,-55.427 24.008001,-78.714 2.315998,-3.434 1.409998,-8.096 -2.023999,-10.412 -3.436,-2.316 -8.097002,-1.41 -10.411002,2.024 -17.385,25.775 -26.573,55.894 -26.573,87.102 0,85.994 69.961002,155.955 155.955004,155.955 37.65199,0 72.22899,-13.41299 99.20799,-35.71 27.908,23.073 62.91401,35.71 99.31101,35.71 85.99399,0 155.95501,-69.961 155.95501,-155.955 0,-46.923 -20.83701,-90.911 -57.169,-120.684 z m -360.28301,70.363 c -4.454002,0 -8.077002,-3.623 -8.077002,-8.077 0,-4.454 3.623,-8.077 8.077002,-8.077 4.454,0 8.077,3.623 8.077,8.077 0,4.454 -3.623,8.077 -8.077,8.077 z m 127.60699,99.856 c 4.454,0 8.077,3.623 8.077,8.077 0,4.454 -3.623,8.077 -8.077,8.077 -4.454,0 -8.077,-3.623 -8.077,-8.077 0,-4.454 3.623,-8.077 8.077,-8.077 z"
     id="path2008"
     inkscape:connector-curvature="0" />
  <path
     style="stroke-width:1"
     d="m 176.79203,93.052986 c 2.23901,0 4.505,0.04 6.733,0.12001 0.0911,0.003 0.18215,0.005 0.2719,0.005 4.019,0 7.34599,-3.184 7.49,-7.232 0.1481,-4.13901 -3.0879,-7.61501 -7.2279,-7.76301 -2.405,-0.086 -4.852,-0.13 -7.269,-0.13 -4.14299,0 -7.49999,3.358 -7.49999,7.5 0,4.142 3.359,7.5 7.50199,7.5 z"
     id="path2010"
     inkscape:connector-curvature="0" />
  <path
     style="stroke-width:1"
     d="m 222.21703,98.669986 c 4.412,1.114 8.835,2.408004 13.148,3.847004 0.78701,0.26298 1.58699,0.387 2.374,0.387 3.13999,0 6.065,-1.987 7.113,-5.129004 1.312,-3.929 -0.812,-8.177 -4.741,-9.488 -4.665,-1.556 -9.45,-2.956 -14.223,-4.161 -4.012,-1.013 -8.093,1.419 -9.107,5.436 -1.01498,4.016 1.419,8.094 5.436,9.108 z"
     id="path2012"
     inkscape:connector-curvature="0" />
  <path
     style="stroke-width:1"
     d="m 235.47103,453.485 c -4.31,1.43998 -8.73,2.73709 -13.139,3.85298 -4.016,1.01697 -6.446,5.09602 -5.43,9.11201 0.86,3.39802 3.913,5.66102 7.265,5.66102 0.60899,0 1.229,-0.0759 1.847,-0.23098 4.769,-1.20802 9.55001,-2.61006 14.21101,-4.16699 3.929,-1.31294 6.049,-5.56203 4.736,-9.491 -1.31401,-3.93 -5.56301,-6.049 -9.49,-4.73701 z"
     id="path2014"
     inkscape:connector-curvature="0" />
  <path
     style="stroke-width:1"
     d="m 366.20704,319.88699 c 3.55998,0 6.71999,-2.54499 7.37198,-6.172 0.87112,-4.833 1.57197,-9.764 2.08409,-14.656 0.43193,-4.12 -2.55891,-7.809 -6.67802,-8.24 -4.12798,-0.43401 -7.80998,2.55901 -8.23999,6.678 -0.47516,4.526 -1.12289,9.088 -1.92801,13.56 -0.73386,4.077 1.97486,7.976 6.052,8.711 0.44908,0.0798 0.89685,0.11912 1.33802,0.11912 z"
     id="path2016"
     inkscape:connector-curvature="0" />
  <path
     style="stroke-width:1"
     d="m 270.90003,118.74899 c 3.909,2.315 7.786,4.809 11.522,7.413 1.30701,0.90999 2.802,1.347 4.281,1.347 2.37001,0 4.703,-1.12101 6.16,-3.21301 2.368,-3.39799 1.533,-8.07299 -1.865,-10.44099 -4.039,-2.814 -8.229,-5.51 -12.454,-8.012 -3.563,-2.11 -8.164,-0.933 -10.275,2.631 -2.11,3.564 -0.932,8.164 2.631,10.275 z"
     id="path2018"
     inkscape:connector-curvature="0" />
  <path
     style="stroke-width:1"
     d="m 358.79504,244.85599 c 0.8081,4.466 1.46012,9.027 1.93692,13.557 0.40587,3.853 3.66002,6.715 7.45002,6.715 0.26067,0 0.52696,-0.014 0.7939,-0.0419 4.12,-0.43401 7.10698,-4.125 6.674,-8.244 -0.51608,-4.897 -1.22089,-9.828 -2.09498,-14.656 -0.73682,-4.076 -4.63699,-6.784 -8.71601,-6.045 -4.07499,0.73698 -6.78199,4.639 -6.04398,8.715 z"
     id="path2020"
     inkscape:connector-curvature="0" />
  <path
     style="stroke-width:1"
     d="m 355.49103,188.18899 c -1.86301,-3.699 -6.37098,-5.188 -10.07199,-3.325 -3.69902,1.86301 -5.18801,6.373 -3.32401,10.072 2.04515,4.061 3.963,8.249 5.699,12.448 1.19515,2.89 3.989,4.635 6.93401,4.635 0.95493,0 1.92702,-0.18412 2.86413,-0.572 3.82699,-1.583 5.64601,-5.97 4.06298,-9.797 -1.87884,-4.541 -3.95197,-9.07 -6.16399,-13.461 z"
     id="path2022"
     inkscape:connector-curvature="0" />
  <path
     style="stroke-width:1"
     d="m 282.50203,429.82099 c -3.732,2.60411 -7.606,5.09901 -11.513,7.415 -3.563,2.11312 -4.738,6.71299 -2.62599,10.276 1.40098,2.36291 3.896,3.67599 6.458,3.67599 1.301,0 2.61801,-0.33888 3.818,-1.04996 4.223,-2.50414 8.41,-5.20101 12.444,-8.01499 3.397,-2.36984 4.23,-7.04501 1.86,-10.44201 -2.36799,-3.397 -7.043,-4.231 -10.44101,-1.86003 z"
     id="path2024"
     inkscape:connector-curvature="0" />
  <path
     style="stroke-width:1"
     d="m 345.47105,371.07899 c 1.08098,0.54399 2.23092,0.80199 3.36397,0.80199 2.74402,0 5.38902,-1.51198 6.706,-4.131 2.21112,-4.396 4.28402,-8.931 6.16102,-13.477 1.57989,-3.829 -0.24088,-8.214 -4.071,-9.794 -3.82701,-1.58101 -8.213,0.24187 -9.79401,4.071 -1.73498,4.203 -3.65098,8.395 -5.696,12.459 -1.86198,3.7 -0.37088,8.208 3.33002,10.07001 z"
     id="path2026"
     inkscape:connector-curvature="0" />
  <path
     style="stroke-width:1"
     d="m 183.52503,462.86398 c -2.23201,0.0792 -4.498,0.11879 -6.733,0.11879 -4.14299,0 -7.49999,3.358 -7.49999,7.5 0,4.14201 3.357,7.50001 7.49999,7.50001 2.413,0 4.858,-0.0429 7.269,-0.12869 4.14,-0.14849 7.376,-3.62399 7.228,-7.76299 -0.14914,-4.13999 -3.661,-7.37901 -7.764,-7.22702 z"
     id="path2028"
     inkscape:connector-curvature="0" />
  <path
     style="stroke-width:1"
     d="m 111.73704,306.90699 12.832,-12.832 c 2.92901,-2.929 2.92901,-7.678 0,-10.606 -2.92999,-2.929 -7.678,-2.929 -10.607,0 l -12.832,12.832 c -2.929007,2.92901 -2.929007,7.678 0,10.607 1.465,1.46401 3.385,2.197 5.304,2.197 1.919,0 3.838,-0.73299 5.303,-2.198 z"
     id="path2030"
     inkscape:connector-curvature="0" />
  <path
     style="stroke-width:1"
     d="m 202.66803,271.45399 17.851,-17.851 c 2.92901,-2.929 2.92901,-7.678 -10e-4,-10.607 -2.92801,-2.929 -7.677,-2.92798 -10.606,0 l -17.851,17.851 c -2.929,2.92901 -2.929,7.678 0.001,10.607 1.46401,1.46401 3.384,2.197 5.303,2.197 1.919,0 3.838,-0.732 5.303,-2.197 z"
     id="path2032"
     inkscape:connector-curvature="0" />
  <path
     style="stroke-width:1"
     d="m 449.32905,227.69699 c -12.872,0 -23.34503,10.472 -23.34503,23.345 0,12.873 10.47303,23.345 23.34503,23.345 12.87197,0 23.345,-10.472 23.345,-23.345 0,-12.873 -10.47303,-23.345 -23.345,-23.345 z m 0,31.689 c -4.60202,0 -8.34502,-3.743 -8.34502,-8.345 0,-4.602 3.743,-8.345 8.34502,-8.345 4.60198,0 8.34499,3.743 8.34499,8.345 0,4.602 -3.74301,8.345 -8.34499,8.345 z"
     id="path2034"
     inkscape:connector-curvature="0" />
  <path
     style="stroke-width:1"
     d="m 439.83204,314.89299 c -15.86902,0 -28.77999,12.911 -28.77999,28.78 0,15.869 12.91097,28.78 28.77999,28.78 15.86898,0 28.77999,-12.911 28.77999,-28.78 0,-15.869 -12.91101,-28.78 -28.77999,-28.78 z m 0,42.561 c -7.599,0 -13.78001,-6.182 -13.78001,-13.78 0,-7.598 6.182,-13.78 13.78001,-13.78 7.598,0 13.77998,6.182 13.77998,13.78 0,7.598 -6.18099,13.78 -13.77998,13.78 z"
     id="path2036"
     inkscape:connector-curvature="0" />
</svg>
