<?xml version="1.0" encoding="UTF-8" standalone="no"?>
<svg
   xmlns:dc="http://purl.org/dc/elements/1.1/"
   xmlns:cc="http://creativecommons.org/ns#"
   xmlns:rdf="http://www.w3.org/1999/02/22-rdf-syntax-ns#"
   xmlns:svg="http://www.w3.org/2000/svg"
   xmlns="http://www.w3.org/2000/svg"
   xmlns:sodipodi="http://sodipodi.sourceforge.net/DTD/sodipodi-0.dtd"
   xmlns:inkscape="http://www.inkscape.org/namespaces/inkscape"
   viewBox="0 0 512 512"
   version="1.1"
   id="svg1257"
   sodipodi:docname="dragon_ns.svg"
   width="16"
   height="16"
   inkscape:version="0.92.3 (2405546, 2018-03-11)">
  <metadata
     id="metadata1263">
    <rdf:RDF>
      <cc:Work
         rdf:about="">
        <dc:format>image/svg+xml</dc:format>
        <dc:type
           rdf:resource="http://purl.org/dc/dcmitype/StillImage" />
        <dc:title></dc:title>
      </cc:Work>
    </rdf:RDF>
  </metadata>
  <defs
     id="defs1261" />
  <sodipodi:namedview
     pagecolor="#ffffff"
     bordercolor="#666666"
     borderopacity="1"
     objecttolerance="10"
     gridtolerance="10"
     guidetolerance="10"
     inkscape:pageopacity="0"
     inkscape:pageshadow="2"
     inkscape:window-width="724"
     inkscape:window-height="480"
     id="namedview1259"
     showgrid="false"
     inkscape:zoom="10.429825"
     inkscape:cx="7.645091"
     inkscape:cy="15.057744"
     inkscape:window-x="0"
     inkscape:window-y="30"
     inkscape:window-maximized="0"
     inkscape:current-layer="svg1257" />
  <g
     id="Chinese_Dragon"
     data-name="Chinese Dragon"
     transform="translate(-4.4301506,-1.5594594)">
    <g
       id="Filled">
      <path
         d="m 472,252 a 32,32 0 0 1 -32,-32 v -12 a 32,32 0 0 1 32,-32 z"
         id="path1212"
         inkscape:connector-curvature="0"
         style="fill:#fdd835" />
      <path
         d="M 470.856,184.342 A 70.24,70.24 0 0 1 440,219.176 V 220 a 32,32 0 0 0 32,32 v -67.771 c -0.381,0.039 -0.766,0.064 -1.144,0.113 z"
         id="path1214"
         inkscape:connector-curvature="0"
         style="fill:#f9a825" />
      <path
         d="m 504,212 h -32 v -52 a 32,32 0 0 1 32,-32 z"
         id="path1216"
         inkscape:connector-curvature="0"
         style="fill:#fdd835" />
      <path
         d="M 504,144.143 A 70.248,70.248 0 0 1 472,174.9 V 212 h 32 z"
         id="path1218"
         inkscape:connector-curvature="0"
         style="fill:#fbc02d" />
      <path
         d="m 212,128 h 32 A 32,32 0 0 0 212,96 h -71.113 v 98.26 l 40.427,40.426 c 12.5,-12.5 15.006,-30.248 5.605,-39.649 l -6.4,-6.4 36.55,17.688 c 7.7,-15.908 3.255,-33.975 -9.926,-40.354 L 194.806,160 H 244 a 32,32 0 0 0 -32,-32 z"
         id="path1220"
         inkscape:connector-curvature="0"
         style="fill:#fdd835" />
      <path
         d="m 504,192 a 48,48 0 0 0 -48,48 v 64 a 32,32 0 0 1 -32,32 32,32 0 0 1 -32,-32 80,80 0 0 0 -80,-80 80,80 0 0 0 -80,80 32,32 0 0 1 -32,32 32,32 0 0 1 -32,-32 V 188 h -48 v 116 a 80,80 0 0 0 80,80 80,80 0 0 0 80,-80 32,32 0 0 1 32,-32 32,32 0 0 1 32,32 80,80 0 0 0 80,80 80,80 0 0 0 80,-80 z"
         id="path1222"
         inkscape:connector-curvature="0"
         style="fill:#ff5252" />
      <path
         d="M 168,224.26 V 188 h -48 v 86.586 a 164.826,164.826 0 0 1 48,-50.326 z"
         id="path1224"
         inkscape:connector-curvature="0"
         style="fill:#e53935" />
      <path
         d="m 104,192 h 48 a 48,48 0 0 0 48,-48 48,48 0 0 0 -48,-48 h -40 a 16,16 0 0 0 -12.8,6.4 L 80,128 H 40 v 32 h 64 a 16,16 0 0 1 16,16 16,16 0 0 1 -16,16 z"
         id="path1226"
         inkscape:connector-curvature="0"
         style="fill:#ff8a80" />
      <path
         d="m 200,144 a 47.87,47.87 0 0 0 -16.4,-36.117 c 0.261,2.671 0.4,5.377 0.4,8.117 a 84,84 0 0 1 -48.209,76 H 152 a 48,48 0 0 0 48,-48 z"
         id="path1228"
         inkscape:connector-curvature="0"
         style="fill:#ff5252" />
      <circle
         cx="128"
         cy="128.006"
         r="24"
         id="circle1230"
         style="fill:#ff5252" />
      <path
         d="m 30,116 a 22,22 0 0 1 22,22 v 22 H 30 A 22,22 0 0 1 8,138 22,22 0 0 1 30,116 Z"
         id="path1232"
         inkscape:connector-curvature="0"
         style="fill:#fdd835" />
      <path
         d="M 16.882,155.662 A 21.908,21.908 0 0 0 30,160 h 22 v -22 a 21.9,21.9 0 0 0 -4.339,-13.118 36.008,36.008 0 0 1 -30.779,30.78 z"
         id="path1234"
         inkscape:connector-curvature="0"
         style="fill:#fbc02d" />
    </g>
    <g
       id="Outline">
      <path
         d="m 135.313,200 46,46 c 2.133,-2.658 20.967,-16.614 19.175,-38.812 l 20.3,9.822 c 0.47,-1.972 17.461,-26.951 0.959,-49.01 H 252 c -0.529,-4.479 2.48,-18.043 -8.022,-32 H 252 c 2.4,-25.31 -13.6,-47.988 -40,-48 h -27.541 l 33.832,-43.058 c 6.769,-8.632 -6.378,-17.8 -12.582,-9.884 L 163.223,89.131 C 155.259,87.504 150.056,88.144 144.459,88 l 33.832,-43.058 c 6.726,-8.571 -6.353,-17.826 -12.582,-9.884 L 124.112,88 c -6.25,0.837 -21.44,-3.565 -31.312,9.6 L 76,120 H 53.984 A 29.988,29.988 0 0 0 32,108.074 C 31,102.364 33.669,96 40,96 69.383,96 72.042,47.781 40,48 H 24 C 13.28,48.066 14.073,31.916 24,32 h 72 c 10.08,0.083 10.366,-16.089 0,-16 H 24 C -8.022,16.18 -7.272,63.867 24,64 H 40 C 50.113,63.892 50.331,80 40,80 22.771,80 13.948,96.023 16,111.479 -11.641,126.129 -1.091,168 30,168 h 74 c 10.112,0 10.331,16.1 0,16 H 40 c -10.895,-0.155 -9.84,16 0,16 z M 44,152 H 30 a 14,14 0 1 1 14,-14 z m 140.407,60.581 a 27.109,27.109 0 0 1 -3.769,10.116 l -22.982,-22.982 a 55.522,55.522 0 0 0 17.542,-4.766 l 0.618,0.3 c 2.225,3.578 10.2,5.96 8.591,17.332 z m 27.993,-17.4 -21.879,-10.589 a 56.335,56.335 0 0 0 10.113,-12.881 c 0.302,0.308 15.254,4.697 11.766,23.467 z M 207.419,152 a 55.38,55.38 0 0 0 0,-16 c 0.436,0.122 20.7,-2.354 27.21,16 z M 212,104 a 24.042,24.042 0 0 1 22.629,16 H 202.586 A 56.251,56.251 0 0 0 191.138,104 Z M 104,152 H 60 c -0.029,-14.447 0.06,-13.967 -0.074,-16 H 84 c 20.894,-26.224 21.043,-32 28,-32 h 40 a 40,40 0 0 1 0,80 H 126.629 A 24.029,24.029 0 0 0 104,152 Z"
         id="path1237"
         inkscape:connector-curvature="0" />
      <path
         d="m 464,160 v 8.805 A 40.067,40.067 0 0 0 432,208 c 0.874,5.28 -4.637,28.438 16,43.972 V 304 c 0.16,29.912 -48,31.345 -48,0 a 87.935,87.935 0 0 0 -38.58,-72.82 c -8.441,-5.73 -17.688,7.323 -9,13.23 A 72.017,72.017 0 0 1 384,304 40.006,40.006 0 0 0 416,343.2 V 356 c -0.092,10.2 16.091,10.264 16,0 v -12.8 a 39.486,39.486 0 0 0 16,-7.2 v 8 c -0.092,10.2 16,10.265 16,0 V 240 a 40.008,40.008 0 0 1 32,-39.2 V 304 a 72.081,72.081 0 0 1 -72,72 c -29.989,0 -34.981,-15.917 -48.59,-6.482 l -30.873,21.4 8.34,31 -16.8,5.2 c -10.785,3.124 -4.511,18.273 4.726,15.285 l 31.534,-9.749 -9.416,-35 21.613,-14.975 A 86.813,86.813 0 0 0 416,391.643 V 488 c -0.092,10.2 16.091,10.265 16,0 V 391.633 A 88.118,88.118 0 0 0 512,304 V 120 c -24,0 -48.02,14.35 -48,40 z m 0,40.819 a 55.529,55.529 0 0 0 -14.666,27.028 C 447.241,221.836 448.268,217.983 448,208 a 24.039,24.039 0 0 1 16,-22.624 z m 32,-16.246 a 55.242,55.242 0 0 0 -16,4.819 V 160 a 24.042,24.042 0 0 1 16,-22.629 z"
         id="path1239"
         inkscape:connector-curvature="0" />
      <path
         d="m 88,64 h 28 c 10.079,0.083 10.366,-16.089 0,-16 H 88 c -10.9,-0.154 -9.837,16.12 0,16 z"
         id="path1241"
         inkscape:connector-curvature="0" />
      <path
         d="M 262.06,231.529 C 261.093,232.614 224,256.048 224,304 c 0,29.913 -48.179,31.345 -48,0 v -40 c 0.07,-10.568 -16.077,-10.011 -16,0 v 76 c 0.107,13.742 18.691,8.418 16,-4 a 39.5,39.5 0 0 0 16,7.2 v 8.8 c -0.092,10.2 16.091,10.264 16,0 v -8.8 a 39.486,39.486 0 0 0 16,-7.2 v 8 c -0.092,10.2 16.042,10.265 16,0 -0.136,-33.271 0.308,-32.3 -0.387,-34.452 0.913,-6.618 -1.6,-28.5 16.387,-50.778 V 272 c -0.092,10.2 16.091,10.264 16,0 v -27.985 c 7.329,-6.665 -1.812,-18.126 -9.94,-12.486 z"
         id="path1243"
         inkscape:connector-curvature="0" />
      <path
         d="m 136,304 a 8.0000391,8.0000391 0 0 0 0.05,-16 H 128 v -64 a 8,8 0 0 0 -16,0 v 64 H 78.46 L 67.22,317.97 C 50.244,312.45 50.264,312 48,312 c -9,0 -11.143,12.711 -2.53,15.59 L 76.78,338.029 89.54,304 Z"
         id="path1245"
         inkscape:connector-curvature="0" />
      <path
         d="m 388,352 c 10.066,0.081 10.369,-16.087 0,-16 h -28.513 c -17.335,-34.934 3.04,-76 -15.487,-76 -6.19,0 -9.022,6.554 -8,12.022 a 39.841,39.841 0 0 0 -16,-7.217 V 252 c 0.071,-10.568 -16.079,-10.017 -16,0 v 12.805 A 40.067,40.067 0 0 0 272,304 c 0,75.319 -112.788,102.367 -140.453,22.414 a 8.01,8.01 0 0 0 -10.05,-4.964 c -2.122,0.692 -28.774,21.679 -28.877,21.76 l 8.26,30.71 c -14.46,5.081 -18.954,4.25 -21.52,9.1 -3.365,6.359 4.531,11.74 7.08,11.74 1.77,0 -0.089,0.4 33.89,-10.111 l -9.49,-35.3 9.691,-7.5 A 87.785,87.785 0 0 0 192,391.627 V 488 c -0.092,10.2 16.091,10.265 16,0 V 391.633 A 88.118,88.118 0 0 0 288,304 a 24,24 0 0 1 48,0 88.192,88.192 0 0 0 6.021,32 H 330.45 l -11.23,29.97 C 302.244,360.45 302.264,360 300,360 c -9.125,0 -10.97,12.8 -2.53,15.59 L 328.78,386.029 341.54,352 Z"
         id="path1247"
         inkscape:connector-curvature="0" />
      <circle
         cx="128"
         cy="128"
         r="8"
         id="circle1249" />
      <circle
         cx="296"
         cy="224"
         r="8"
         id="circle1251" />
      <circle
         cx="328"
         cy="224"
         r="8"
         id="circle1253" />
    </g>
  </g>
</svg>
