<?xml version="1.0" encoding="UTF-8" standalone="no"?>
<!-- Generator: Adobe Illustrator 19.0.0, SVG Export Plug-In . SVG Version: 6.00 Build 0)  -->

<svg
   xmlns:dc="http://purl.org/dc/elements/1.1/"
   xmlns:cc="http://creativecommons.org/ns#"
   xmlns:rdf="http://www.w3.org/1999/02/22-rdf-syntax-ns#"
   xmlns:svg="http://www.w3.org/2000/svg"
   xmlns="http://www.w3.org/2000/svg"
   xmlns:sodipodi="http://sodipodi.sourceforge.net/DTD/sodipodi-0.dtd"
   xmlns:inkscape="http://www.inkscape.org/namespaces/inkscape"
   version="1.1"
   id="Layer_1"
   x="0px"
   y="0px"
   viewBox="0 0 512 512"
   xml:space="preserve"
   sodipodi:docname="electric_ns.svg"
   width="16"
   height="16"
   inkscape:version="0.92.3 (2405546, 2018-03-11)"><metadata
   id="metadata1005"><rdf:RDF><cc:Work
       rdf:about=""><dc:format>image/svg+xml</dc:format><dc:type
         rdf:resource="http://purl.org/dc/dcmitype/StillImage" /><dc:title></dc:title></cc:Work></rdf:RDF></metadata><defs
   id="defs1003" /><sodipodi:namedview
   pagecolor="#ffffff"
   bordercolor="#666666"
   borderopacity="1"
   objecttolerance="10"
   gridtolerance="10"
   guidetolerance="10"
   inkscape:pageopacity="0"
   inkscape:pageshadow="2"
   inkscape:window-width="1920"
   inkscape:window-height="1017"
   id="namedview1001"
   showgrid="false"
   inkscape:zoom="9.2144852"
   inkscape:cx="25.700524"
   inkscape:cy="-11.21068"
   inkscape:window-x="0"
   inkscape:window-y="30"
   inkscape:window-maximized="1"
   inkscape:current-layer="Layer_1" />



<g
   id="g970"
   transform="translate(0,-496)">
</g>
<g
   id="g972"
   transform="translate(0,-496)">
</g>
<g
   id="g974"
   transform="translate(0,-496)">
</g>
<g
   id="g976"
   transform="translate(0,-496)">
</g>
<g
   id="g978"
   transform="translate(0,-496)">
</g>
<g
   id="g980"
   transform="translate(0,-496)">
</g>
<g
   id="g982"
   transform="translate(0,-496)">
</g>
<g
   id="g984"
   transform="translate(0,-496)">
</g>
<g
   id="g986"
   transform="translate(0,-496)">
</g>
<g
   id="g988"
   transform="translate(0,-496)">
</g>
<g
   id="g990"
   transform="translate(0,-496)">
</g>
<g
   id="g992"
   transform="translate(0,-496)">
</g>
<g
   id="g994"
   transform="translate(0,-496)">
</g>
<g
   id="g996"
   transform="translate(0,-496)">
</g>
<g
   id="g998"
   transform="translate(0,-496)">
</g>
<path
   style="fill:#f29f26;stroke-width:1"
   d="m 304.08546,355.34512 -122.645,148.92297 c -0.86099,1.03904 -2.11501,1.58912 -3.388,1.58912 -0.76301,0 -1.53398,-0.2016 -2.232,-0.61088 -1.86301,-1.09792 -2.65299,-3.383 -1.86499,-5.39398 l 57.116,-150.74502 h -58.584 c -1.53901,0 -2.968,-0.80704 -3.764,-2.12416 -0.79802,-1.32 -0.85101,-2.96 -0.13408,-4.325 l 62.78508,-119.70406 h -93.10801 c -1.535,0 -2.96,-0.8 -3.76,-2.10998 -0.798,-1.309 -0.86,-2.941 -0.15699,-4.30701 L 238.67346,13.507109 c 0.75399,-1.47 2.26599,-2.392 3.91701,-2.392 h 66.60899 29.11501 32.84499 c 1.577,0 3.03501,0.842 3.818,2.21 0.78602,1.368 0.78199,3.048998 -0.014,4.413 L 313.18247,123.67011 h 69.45899 c 1.608,0 3.089,0.87699 3.862,2.28701 0.772,1.412 0.716,3.13101 -0.15008,4.486 l -89.02,139.408 h 67.834 c 1.70599,0 3.26101,0.98899 3.986,2.53501 0.725,1.547 0.492,3.37099 -0.60099,4.686 l -47.06693,57.14998"
   id="path960"
   inkscape:connector-curvature="0" /><path
   style="fill:#ef8229;stroke-width:1"
   d="m 168.82246,338.84413 c -0.716,1.36608 -0.66301,3.00512 0.13504,4.32499 0.796,1.31712 2.22499,2.12416 3.764,2.12416 h 58.58401 l -57.11701,150.744 c -0.787,2.01216 0.002,4.296 1.865,5.39398 0.12416,0.0736 0.25216,0.1312 0.38201,0.192 L 304.65346,307.30211 h -66.134 c -1.54,0 -2.968,-0.80701 -3.764,-2.124 -0.79801,-1.32 -0.851,-2.96 -0.13504,-4.325 l 62.78605,-119.705 h -76.92801 c -1.536,0 -2.96,-0.8 -3.76,-2.11002 -0.79801,-1.30899 -0.86,-2.94099 -0.15712,-4.307 L 302.59247,7.3001095 h -59.76701 c -1.64899,0 -3.163,0.9230016 -3.91699,2.3909984 L 134.58246,212.72311 c -0.701,1.36701 -0.641,2.99798 0.15699,4.307 0.8,1.30899 2.225,2.10998 3.76,2.10998 h 93.10801 z"
   id="path962"
   inkscape:connector-curvature="0" /><g
   id="g968"
   transform="translate(4.4594511,2.4861091)"><path
     style="fill:#231f20"
     d="m 173.594,512 c -2.322,0 -4.61,-0.625 -6.615,-1.808 -5.544,-3.266 -7.864,-9.987 -5.515,-15.978 l 52.652,-138.965 h -46.087 c -4.531,0 -8.803,-2.409 -11.149,-6.287 -2.349,-3.883 -2.498,-8.789 -0.388,-12.804 l 56.155,-107.061 h -78.839 c -4.509,0 -8.77,-2.39 -11.123,-6.238 -2.353,-3.857 -2.532,-8.74 -0.472,-12.749 L 226.539,7.077 C 228.781,2.713 233.223,0 238.131,0 h 66.609 c 4.765,0 8.629,3.864 8.629,8.629 0,4.765 -3.864,8.629 -8.629,8.629 h -64.029 l -99.982,194.58 h 86.188 c 3.02,0 5.82,1.579 7.384,4.164 1.563,2.584 1.661,5.799 0.258,8.473 L 175.02,337.99 h 51.594 c 2.836,0 5.49,1.393 7.101,3.726 1.611,2.333 1.973,5.309 0.969,7.961 L 186.637,476.482 292.966,347.37 c 3.03,-3.678 8.467,-4.205 12.148,-1.176 3.678,3.031 4.205,8.468 1.176,12.148 L 183.642,507.268 c -2.498,3.015 -6.154,4.732 -10.048,4.732 z"
     id="path964"
     inkscape:connector-curvature="0" /><path
     style="fill:#231f20"
     d="m 317.02,340.364 c -1.931,0 -3.873,-0.645 -5.481,-1.967 -3.678,-3.031 -4.205,-8.468 -1.176,-12.148 l 41.389,-50.256 h -58.881 c -3.152,0 -6.052,-1.718 -7.568,-4.483 -1.514,-2.765 -1.402,-6.134 0.294,-8.79 L 370.466,129.812 H 308.72 c -3.089,0 -5.943,-1.651 -7.481,-4.332 -1.539,-2.678 -1.528,-5.976 0.028,-8.645 l 58.077,-99.577 h -25.491 c -4.765,0 -8.629,-3.864 -8.629,-8.629 0,-4.765 3.865,-8.629 8.63,-8.629 H 366.7 c 4.658,0 8.989,2.509 11.304,6.547 2.316,4.028 2.299,9.032 -0.046,13.051 l -54.213,92.955 h 54.437 c 4.762,0 9.143,2.594 11.43,6.77 2.288,4.184 2.116,9.27 -0.448,13.28 l -80.542,126.132 h 52.085 c 5.031,0 9.661,2.944 11.799,7.5 2.135,4.555 1.437,9.997 -1.777,13.864 l -47.043,57.122 c -1.705,2.071 -4.175,3.143 -6.666,3.143 z"
     id="path966"
     inkscape:connector-curvature="0" /></g></svg>