<?xml version="1.0" encoding="UTF-8" standalone="no"?>
<svg
   xmlns:dc="http://purl.org/dc/elements/1.1/"
   xmlns:cc="http://creativecommons.org/ns#"
   xmlns:rdf="http://www.w3.org/1999/02/22-rdf-syntax-ns#"
   xmlns:svg="http://www.w3.org/2000/svg"
   xmlns="http://www.w3.org/2000/svg"
   xmlns:sodipodi="http://sodipodi.sourceforge.net/DTD/sodipodi-0.dtd"
   xmlns:inkscape="http://www.inkscape.org/namespaces/inkscape"
   id="Capa_1"
   enable-background="new 0 0 511.998 511.998"
   height="16"
   viewBox="0 0 512 512"
   width="16"
   version="1.1"
   sodipodi:docname="fairy_ns.svg"
   inkscape:version="0.92.3 (2405546, 2018-03-11)">
  <metadata
     id="metadata1854">
    <rdf:RDF>
      <cc:Work
         rdf:about="">
        <dc:format>image/svg+xml</dc:format>
        <dc:type
           rdf:resource="http://purl.org/dc/dcmitype/StillImage" />
        <dc:title></dc:title>
      </cc:Work>
    </rdf:RDF>
  </metadata>
  <defs
     id="defs1852" />
  <sodipodi:namedview
     pagecolor="#ffffff"
     bordercolor="#666666"
     borderopacity="1"
     objecttolerance="10"
     gridtolerance="10"
     guidetolerance="10"
     inkscape:pageopacity="0"
     inkscape:pageshadow="2"
     inkscape:window-width="1920"
     inkscape:window-height="1017"
     id="namedview1850"
     showgrid="false"
     scale-x="32"
     inkscape:pagecheckerboard="false"
     inkscape:zoom="5.2149125"
     inkscape:cx="49.592066"
     inkscape:cy="-6.201806"
     inkscape:window-x="0"
     inkscape:window-y="30"
     inkscape:window-maximized="1"
     inkscape:current-layer="Capa_1" />
  <g
     id="g1847"
     transform="translate(4.3389831,2.9850019)">
    <g
       id="g1835">
      <path
         d="M 297.883,185.95 10.696,473.137 c -5.191,5.191 -5.191,13.609 0,18.8 l 8.58,8.58 c 5.191,5.191 13.608,5.191 18.8,0 L 325.264,213.33 Z"
         id="path1817"
         inkscape:connector-curvature="0"
         style="fill:#928392" />
      <path
         d="M 14.759,496 311.346,199.413 297.883,185.95 10.696,473.137 c -5.191,5.191 -5.191,13.609 0,18.8 z"
         id="path1819"
         inkscape:connector-curvature="0"
         style="fill:#7a6d79" />
      <path
         d="m 357.365,147.434 -16.05,-4.989 -43.71,43.784 27.38,27.38 43.811,-43.885 -4.898,-15.756 c -0.969,-3.121 -3.413,-5.565 -6.533,-6.534 z"
         id="path1821"
         inkscape:connector-curvature="0"
         style="fill:#fbc700" />
      <path
         d="m 361.135,149.625 c -1.068,-0.984 -2.343,-1.748 -3.77,-2.191 l -16.05,-4.99 -43.71,43.784 13.463,13.463 z"
         id="path1823"
         inkscape:connector-curvature="0"
         style="fill:#ffa812" />
      <path
         d="m 476.896,212.656 c -6.458,-3.303 -11.733,-8.587 -15.021,-15.053 -0.715,-1.405 -2.148,-2.297 -3.724,-2.297 -1.576,0 -3.01,0.892 -3.724,2.297 -3.288,6.466 -8.563,11.75 -15.021,15.053 -1.4,0.716 -2.288,2.147 -2.288,3.719 v 0.102 c 0,1.556 0.861,2.991 2.246,3.698 6.436,3.283 11.698,8.532 14.997,14.959 0.708,1.38 2.141,2.236 3.693,2.236 h 0.194 c 1.552,0 2.985,-0.856 3.693,-2.236 3.298,-6.427 8.56,-11.677 14.996,-14.959 1.386,-0.707 2.246,-2.142 2.246,-3.698 v -0.103 c 0.001,-1.57 -0.887,-3.002 -2.287,-3.718 z"
         id="path1825"
         inkscape:connector-curvature="0"
         style="fill:#ffe02f" />
      <path
         d="m 455.614,220.176 c -1.386,-0.707 -2.246,-2.142 -2.246,-3.698 v -0.103 c 0,-1.572 0.888,-3.003 2.288,-3.719 4.082,-2.088 7.687,-4.971 10.62,-8.44 -1.708,-2.019 -3.191,-4.234 -4.401,-6.614 -0.715,-1.405 -2.148,-2.297 -3.724,-2.297 -1.576,0 -3.01,0.892 -3.724,2.297 -3.288,6.466 -8.563,11.75 -15.021,15.053 -1.4,0.716 -2.288,2.147 -2.288,3.719 v 0.103 c 0,1.556 0.86,2.991 2.246,3.698 6.437,3.283 11.698,8.532 14.997,14.959 0.708,1.38 2.142,2.236 3.693,2.236 h 0.195 c 1.552,0 2.985,-0.856 3.693,-2.236 1.197,-2.332 2.659,-4.503 4.335,-6.487 -2.944,-3.483 -6.561,-6.379 -10.663,-8.471 z"
         id="path1827"
         inkscape:connector-curvature="0"
         style="fill:#fbc700" />
      <path
         d="m 501.808,146.821 -33.681,-45.133 c -1.954,-2.619 -2.495,-6.032 -1.446,-9.126 L 484.766,39.23 c 2.643,-7.793 -4.798,-15.233 -12.591,-12.591 l -53.332,18.085 c -3.095,1.049 -6.507,0.509 -9.126,-1.446 L 364.585,9.598 C 357.99,4.677 348.615,9.453 348.72,17.682 l 0.72,56.31 c 0.042,3.267 -1.527,6.346 -4.195,8.233 l -45.979,32.516 c -6.719,4.752 -5.072,15.144 2.786,17.587 l 53.777,16.716 c 3.12,0.97 5.564,3.413 6.534,6.534 l 16.716,53.777 c 2.443,7.858 12.835,9.504 17.587,2.786 l 32.516,-45.979 c 1.886,-2.668 4.965,-4.237 8.233,-4.195 l 56.31,0.72 c 8.227,0.104 13.004,-9.271 8.083,-15.866 z"
         id="path1829"
         inkscape:connector-curvature="0"
         style="fill:#ffe02f" />
      <g
         id="g1833">
        <path
           d="m 409.51,150.17 c -0.97,-3.121 -3.414,-5.564 -6.534,-6.534 L 349.2,126.92 c -7.858,-2.443 -9.504,-12.835 -2.786,-17.587 l 45.979,-32.516 c 2.668,-1.886 4.237,-4.965 4.195,-8.233 L 396.135,33.142 364.586,9.598 c -6.595,-4.921 -15.97,-0.145 -15.865,8.083 l 0.72,56.31 c 0.042,3.267 -1.527,6.346 -4.195,8.233 l -45.979,32.516 c -6.719,4.752 -5.073,15.144 2.786,17.587 l 53.776,16.716 c 3.12,0.97 5.564,3.413 6.534,6.534 l 16.716,53.777 c 2.443,7.858 12.835,9.504 17.587,2.786 l 22.304,-31.539 z"
           id="path1831"
           inkscape:connector-curvature="0"
           style="fill:#fbc700" />
      </g>
    </g>
    <g
       id="g1845">
      <path
         d="m 376.898,245.767 c -4.143,0 -7.5,3.358 -7.5,7.5 v 4.111 h -4.111 c -4.143,0 -7.5,3.358 -7.5,7.5 0,4.142 3.357,7.5 7.5,7.5 h 4.111 v 4.111 c 0,4.142 3.357,7.5 7.5,7.5 4.143,0 7.5,-3.358 7.5,-7.5 v -4.111 h 4.111 c 4.143,0 7.5,-3.358 7.5,-7.5 0,-4.142 -3.357,-7.5 -7.5,-7.5 h -4.111 v -4.111 c 0,-4.142 -3.357,-7.5 -7.5,-7.5 z"
         id="path1837"
         inkscape:connector-curvature="0" />
      <path
         d="m 295.755,83.412 c 4.143,0 7.5,-3.358 7.5,-7.5 V 65.794 h 10.118 c 4.143,0 7.5,-3.358 7.5,-7.5 0,-4.142 -3.357,-7.5 -7.5,-7.5 H 303.255 V 40.675 c 0,-4.142 -3.357,-7.5 -7.5,-7.5 -4.143,0 -7.5,3.358 -7.5,7.5 v 10.118 h -10.118 c -4.143,0 -7.5,3.358 -7.5,7.5 0,4.142 3.357,7.5 7.5,7.5 h 10.118 v 10.118 c 0,4.143 3.358,7.501 7.5,7.501 z"
         id="path1839"
         inkscape:connector-curvature="0" />
      <path
         d="m 469.302,238.559 c 2.563,-4.995 6.729,-9.15 11.731,-11.702 8.427,-4.3 8.486,-16.521 -0.034,-20.878 H 481 c -5.022,-2.569 -9.196,-6.751 -11.751,-11.774 -4.331,-8.523 -16.481,-8.527 -20.82,-0.002 -2.555,5.024 -6.729,9.206 -11.751,11.776 -8.527,4.361 -8.455,16.585 -0.033,20.878 5.001,2.551 9.167,6.707 11.731,11.705 4.321,8.41 16.598,8.425 20.926,-0.003 z m -20.96,-22.132 c 4.079,-2.846 7.65,-6.415 10.497,-10.49 2.847,4.076 6.418,7.645 10.496,10.49 -4.078,2.847 -7.65,6.42 -10.497,10.498 -2.845,-4.078 -6.418,-7.65 -10.496,-10.498 z"
         id="path1841"
         inkscape:connector-curvature="0" />
      <path
         d="m 14.661,505.82 c 8.107,8.107 21.3,8.108 29.407,0 L 180.157,369.731 c 2.929,-2.929 2.929,-7.678 0,-10.606 -2.93,-2.929 -7.678,-2.929 -10.607,0 L 33.46,495.214 c -2.26,2.259 -5.937,2.257 -8.192,0 l -8.58,-8.58 c -2.26,-2.259 -2.26,-5.935 0,-8.194 l 281.604,-281.605 16.774,16.774 -120.769,120.768 c -2.929,2.929 -2.929,7.678 0,10.606 2.929,2.928 7.677,2.93 10.607,0 4.448,-4.448 156.816,-156.816 159.566,-159.566 l 8.133,26.163 c 4.288,13.795 22.541,16.67 30.871,4.891 l 32.517,-45.979 c 0.463,-0.653 1.21,-1.05 2.015,-1.026 l 56.31,0.721 c 0.077,10e-4 0.152,10e-4 0.229,10e-4 14.292,0 22.555,-16.339 13.962,-27.853 l -22.329,-29.921 c -2.477,-3.32 -7.178,-4.003 -10.496,-1.525 -3.32,2.478 -4.003,7.177 -1.525,10.497 l 22.329,29.921 c 0.785,1.052 0.474,2.052 0.218,2.554 -0.257,0.503 -0.859,1.379 -2.195,1.326 l -56.312,-0.721 c -0.073,-0.001 -0.146,-0.001 -0.22,-0.001 -5.654,0 -10.962,2.743 -14.23,7.366 L 391.23,207.81 c -0.758,1.072 -1.807,1.084 -2.362,0.996 -0.557,-0.088 -1.549,-0.423 -1.938,-1.678 -1.888,-6.073 -14.979,-48.187 -16.717,-53.775 -1.696,-5.459 -5.98,-9.764 -11.469,-11.471 -18.17,-5.648 -31.863,-9.904 -53.776,-16.716 -1.255,-0.39 -1.59,-1.382 -1.679,-1.939 -0.088,-0.557 -0.076,-1.604 0.996,-2.362 l 45.979,-32.516 c 4.685,-3.313 7.438,-8.716 7.363,-14.453 l -0.72,-56.31 c -0.017,-1.314 0.824,-1.939 1.326,-2.195 0.503,-0.255 1.503,-0.567 2.555,0.218 L 405.92,49.29 c 4.599,3.431 10.587,4.379 16.021,2.537 l 53.331,-18.085 c 1.246,-0.421 2.1,0.185 2.497,0.583 0.399,0.398 1.005,1.253 0.583,2.497 l -14.47,42.669 c -1.33,3.923 0.771,8.181 4.694,9.511 3.921,1.332 8.18,-0.771 9.511,-4.694 l 14.47,-42.67 c 4.636,-13.67 -8.433,-26.741 -22.102,-22.101 l -53.33,18.084 c -0.758,0.257 -1.594,0.125 -2.234,-0.353 L 369.758,3.588 c -11.571,-8.637 -28.033,-0.245 -27.85,14.19 l 0.72,56.311 c 0.01,0.8 -0.373,1.552 -1.025,2.014 l -45.98,32.516 c -11.789,8.337 -8.895,26.587 4.891,30.872 l 25.87,8.041 c -0.002,0.002 -33.395,33.394 -33.395,33.394 L 6.081,467.834 c -8.107,8.107 -8.107,21.299 0,29.407 z m 294.238,-319.592 33.667,-33.667 11.724,3.645 h 10e-4 c 0.748,0.232 1.355,0.821 1.597,1.598 l 3.553,11.43 -33.768,33.767 z"
         id="path1843"
         inkscape:connector-curvature="0" />
    </g>
  </g>
</svg>
