<svg width="324" height="324" viewBox="0 0 324 324" fill="none" xmlns="http://www.w3.org/2000/svg">
<g clip-path="url(#clip0)">
<path d="M67.7283 232.436L86.821 238.644L91.5651 256.273L50.1121 297.726C43.7451 304.093 33.4224 304.093 27.0554 297.726L26.2752 296.946C19.9082 290.579 19.9082 280.256 26.2752 273.889L67.7283 232.436Z" fill="#766D78"/>
<path d="M3.99917 293.427C1.79048 305.859 10.0779 317.727 22.5097 319.936C34.9415 322.145 46.8099 313.857 49.0186 301.425C51.2273 288.994 42.9398 277.125 30.5081 274.916C18.0763 272.708 6.20786 280.995 3.99917 293.427Z" fill="#F8E837"/>
<path d="M21.7916 296.514C21.3502 299.237 23.1998 301.803 25.9229 302.244C28.6459 302.685 31.2112 300.836 31.6526 298.113C32.0941 295.39 30.2444 292.824 27.5214 292.383C24.7984 291.942 22.2331 293.791 21.7916 296.514Z" fill="#DBC92F"/>
<path d="M280.347 0.33054L321.833 0.000677146C322.959 0.156583 323.844 1.04179 324 2.16728L323.67 43.6538C323.786 44.4907 323.478 45.3307 322.847 45.8938L131.076 220.795L111.348 213.953L103.205 192.925L278.107 1.15322C278.67 0.523153 279.509 0.214577 280.347 0.33054V0.33054Z" fill="#91DAFA"/>
<path d="M131.076 220.795L141.184 211.576C130.747 201.14 130.361 184.341 140.307 173.435L297.434 1.15322C297.997 0.523155 298.837 0.214579 299.674 0.330542L322.386 0.149509C322.209 0.0825075 322.026 0.0271063 321.833 4.81459e-05L280.346 0.329872C279.509 0.213908 278.669 0.522524 278.106 1.15259L103.205 192.925L110.634 213.238L131.076 220.795Z" fill="#75CFF9"/>
<path d="M272.054 47.1152C273.29 47.1152 274.527 47.5868 275.47 48.5307C277.357 50.4176 277.357 53.4771 275.47 55.3635L121.499 209.335C119.612 211.222 116.552 211.222 114.666 209.335C112.779 207.448 112.779 204.388 114.666 202.502L268.637 48.5307C269.58 47.5875 270.817 47.1152 272.054 47.1152Z" fill="#6CBFF8"/>
<path d="M66.2942 231.002L92.9992 257.707C94.8353 259.543 97.8123 259.543 99.6484 257.707L113.674 243.682L103.263 220.387L80.3193 210.328L66.2942 224.353C64.4581 226.189 64.4581 229.165 66.2942 231.002V231.002Z" fill="#DBC92F"/>
<path d="M127.131 257.139L66.8618 196.87C62.2612 192.269 62.2612 184.811 66.8618 180.21L77.2231 169.849C78.0258 169.046 79.3272 169.046 80.1299 169.849L154.151 243.871C154.954 244.674 154.954 245.976 154.151 246.778L143.79 257.14C139.19 261.739 131.731 261.739 127.131 257.139V257.139Z" fill="#F8E837"/>
<path d="M232.436 256.272L238.644 237.179L256.273 232.435L297.726 273.888C304.093 280.255 304.093 290.578 297.726 296.945L296.946 297.725C290.579 304.092 280.256 304.092 273.889 297.725L232.436 256.272Z" fill="#766D78"/>
<path d="M293.427 320.001C305.859 322.21 317.727 313.922 319.936 301.49C322.145 289.059 313.857 277.19 301.425 274.981C288.994 272.773 277.125 281.06 274.916 293.492C272.708 305.924 280.995 317.792 293.427 320.001Z" fill="#F8E837"/>
<path d="M296.514 302.208C299.237 302.65 301.803 300.8 302.244 298.077C302.685 295.354 300.836 292.789 298.113 292.347C295.39 291.906 292.824 293.756 292.383 296.479C291.942 299.202 293.791 301.767 296.514 302.208Z" fill="#DBC92F"/>
<path d="M0.330542 43.6531L0.000677241 2.16723C0.156583 1.0411 1.04179 0.155912 2.16728 5.70225e-06L43.6538 0.329859C44.4907 0.213895 45.3307 0.522487 45.8938 1.15255L220.795 192.924L213.953 212.652L192.925 220.795L1.15322 45.8931C0.523155 45.3301 0.214579 44.4906 0.330542 43.6531V43.6531Z" fill="#91DAFA"/>
<path d="M220.795 192.924L211.576 182.816C201.14 193.253 184.341 193.639 173.435 183.693L1.15321 26.5659C0.523141 26.0028 0.214564 25.1627 0.330528 24.3259L0.149493 1.61446C0.0824922 1.79098 0.027091 1.97395 3.29112e-05 2.16722L0.329858 43.6537C0.213895 44.4906 0.522511 45.3307 1.15258 45.8937L192.925 220.795L213.238 213.366L220.795 192.924Z" fill="#75CFF9"/>
<path d="M47.1153 51.9464C47.1153 50.7101 47.5869 49.4732 48.5307 48.53C50.4176 46.643 53.4771 46.643 55.3635 48.53L209.335 202.502C211.222 204.389 211.222 207.448 209.335 209.334C207.448 211.221 204.389 211.221 202.502 209.334L48.5307 55.3628C47.5875 54.4196 47.1153 53.1834 47.1153 51.9464Z" fill="#6CBFF8"/>
<path d="M231.002 257.706L257.707 231.001C259.543 229.165 259.543 226.188 257.707 224.352L243.682 210.326L220.387 220.737L210.328 243.681L224.353 257.706C226.189 259.542 229.165 259.542 231.002 257.706V257.706Z" fill="#DBC92F"/>
<path d="M257.139 196.869L196.87 257.138C192.269 261.739 184.811 261.739 180.21 257.138L169.849 246.777C169.046 245.974 169.046 244.673 169.849 243.87L243.871 169.849C244.674 169.046 245.976 169.046 246.778 169.849L257.14 180.21C261.739 184.81 261.739 192.269 257.139 196.869V196.869Z" fill="#F8E837"/>
</g>
<defs>
<clipPath id="clip0">
<rect width="324" height="324" fill="white"/>
</clipPath>
</defs>
</svg>
