<?xml version="1.0" encoding="UTF-8" standalone="no"?>
<svg
   xmlns:dc="http://purl.org/dc/elements/1.1/"
   xmlns:cc="http://creativecommons.org/ns#"
   xmlns:rdf="http://www.w3.org/1999/02/22-rdf-syntax-ns#"
   xmlns:svg="http://www.w3.org/2000/svg"
   xmlns="http://www.w3.org/2000/svg"
   xmlns:sodipodi="http://sodipodi.sourceforge.net/DTD/sodipodi-0.dtd"
   xmlns:inkscape="http://www.inkscape.org/namespaces/inkscape"
   width="16"
   height="16"
   viewBox="0 0 328 328"
   version="1.1"
   id="svg9507"
   sodipodi:docname="fighting_ns.svg"
   style="fill:none"
   inkscape:version="0.92.3 (2405546, 2018-03-11)">
  <metadata
     id="metadata9511">
    <rdf:RDF>
      <cc:Work
         rdf:about="">
        <dc:format>image/svg+xml</dc:format>
        <dc:type
           rdf:resource="http://purl.org/dc/dcmitype/StillImage" />
        <dc:title></dc:title>
      </cc:Work>
    </rdf:RDF>
  </metadata>
  <sodipodi:namedview
     pagecolor="#ffffff"
     bordercolor="#666666"
     borderopacity="1"
     objecttolerance="10"
     gridtolerance="10"
     guidetolerance="10"
     inkscape:pageopacity="0"
     inkscape:pageshadow="2"
     inkscape:window-width="1920"
     inkscape:window-height="1017"
     id="namedview9509"
     showgrid="false"
     scale-x="20.5"
     inkscape:zoom="5.8271605"
     inkscape:cx="54.725381"
     inkscape:cy="23.448747"
     inkscape:window-x="0"
     inkscape:window-y="30"
     inkscape:window-maximized="1"
     inkscape:current-layer="svg9507" />
  <g
     clip-path="url(#clip0)"
     id="g9497"
     transform="translate(5.8288271,8.0171736)">
    <path
       d="m 66.1188,231.65 26.2313,26.231 c 1.8035,1.804 4.7277,1.804 6.5313,0 L 112.658,244.105 79.8951,211.342 66.1188,225.119 c -1.8036,1.803 -1.8036,4.727 0,6.531 z"
       id="path9463"
       inkscape:connector-curvature="0"
       style="fill:#dbc92f" />
    <path
       d="m 276.375,5.07011 40.75,-0.32401 c 1.106,0.15314 1.976,1.02265 2.129,2.12817 L 318.93,47.6249 c 0.114,0.822 -0.189,1.6472 -0.808,2.2002 L 129.752,221.624 102.376,194.248 274.174,5.8782 c 0.553,-0.61889 1.379,-0.922 2.201,-0.80809 z"
       id="path9465"
       inkscape:connector-curvature="0"
       style="fill:#91dafa" />
    <path
       d="m 129.751,221.624 9.929,-9.055 c -10.251,-10.252 -10.631,-26.752 -0.861,-37.465 L 293.159,5.87822 c 0.553,-0.61889 1.378,-0.92199 2.2,-0.80809 L 317.668,4.89231 C 317.495,4.8265 317.315,4.77208 317.125,4.7455 l -40.75,0.32397 c -0.822,-0.1139 -1.648,0.18924 -2.201,0.80813 L 102.375,194.248 Z"
       id="path9467"
       inkscape:connector-curvature="0"
       style="fill:#75cff9" />
    <path
       d="m 125.877,257.323 -59.2007,-59.2 c -4.5189,-4.519 -4.5189,-11.845 0,-16.364 l 10.1775,-10.178 c 0.7885,-0.788 2.0668,-0.788 2.8553,0 l 72.7089,72.71 c 0.788,0.788 0.788,2.067 0,2.855 l -10.178,10.178 c -4.518,4.518 -11.845,4.518 -16.363,-0.001 z"
       id="path9469"
       inkscape:connector-curvature="0"
       style="fill:#f8e837" />
    <path
       d="m 67.5274,233.059 23.4141,23.414 -40.7177,40.717 c -6.2541,6.254 -16.3937,6.254 -22.6477,0 l -0.7664,-0.766 c -6.2541,-6.254 -6.2541,-16.394 0,-22.648 z"
       id="path9471"
       inkscape:connector-curvature="0"
       style="fill:#766d78" />
    <path
       d="M 4.91402,294.801 C 3.84786,307.149 12.9936,318.023 25.3415,319.089 37.6895,320.155 48.5638,311.01 49.63,298.662 50.6961,286.314 41.5504,275.44 29.2024,274.374 16.8545,273.308 5.98018,282.453 4.91402,294.801 Z"
       id="path9473"
       inkscape:connector-curvature="0"
       style="fill:#f8e837" />
    <path
       d="m 22.2864,296.807 c 0,2.709 2.1965,4.907 4.9068,4.907 2.7097,0 4.9069,-2.197 4.9069,-4.907 0,-2.71 -2.1966,-4.907 -4.9069,-4.907 -2.7097,0 -4.9068,2.196 -4.9068,4.907 z"
       id="path9475"
       inkscape:connector-curvature="0"
       style="fill:#000000" />
    <path
       d="M 5.86442e-5,296.806 C 5.73332e-5,311.801 12.1988,324 27.1933,324 c 13.9883,0 25.539,-10.617 27.0274,-24.216 0.2405,-0.164 0.4708,-0.35 0.6847,-0.564 l 11.0457,-11.045 c 1.8535,-1.854 1.8535,-4.859 0,-6.712 -0.9264,-0.927 -2.1414,-1.39 -3.3558,-1.39 -1.2143,0 -2.4293,0.463 -3.3558,1.39 l -6.3781,6.377 c -2.7299,-7.791 -8.91,-13.971 -16.7018,-16.701 l 31.3685,-31.369 16.7018,16.702 -11.6114,11.611 c -1.8536,1.854 -1.8536,4.859 0,6.712 1.8535,1.854 4.8587,1.854 6.7116,0 l 11.9044,-11.904 c 3.5375,1.87 8.0292,1.319 11.0025,-1.655 l 10.421,-10.42 9.863,9.863 c 3.082,3.082 7.179,4.779 11.537,4.779 4.358,0 8.456,-1.697 11.538,-4.779 l 10.177,-10.177 c 1.278,-1.278 1.981,-2.977 1.981,-4.784 0,-1.807 -0.703,-3.506 -1.981,-4.784 l -19.153,-19.152 105.37,-96.1 c 1.936,-1.767 2.074,-4.769 0.308,-6.706 -1.767,-1.936 -4.769,-2.074 -6.705,-0.308 l -105.692,96.395 -7.127,-7.127 148.811,-148.8092 c 1.853,-1.8535 1.853,-4.8587 0,-6.7116 -0.927,-0.9264 -2.142,-1.3903 -3.356,-1.3903 -1.215,0 -2.429,0.4633 -3.356,1.3903 L 116.064,201.224 108.937,194.098 277.011,9.81113 314.487,9.51308 314.189,46.9889 249.627,105.871 c -1.936,1.767 -2.074,4.768 -0.308,6.705 1.767,1.936 4.769,2.074 6.706,0.308 l 65.259,-59.5195 c 1.692,-1.5125 2.569,-3.7134 2.394,-5.9586 L 324,6.91223 C 324.001,6.68189 323.987,6.45217 323.955,6.22436 323.513,3.02802 320.972,0.48729 317.775,0.0449535 317.56,0.0152113 317.342,1.46767e-5 317.125,1.46577e-5 l -0.038,-3.3e-9 L 276.594,0.322114 C 274.346,0.147458 272.151,1.02137 270.667,2.6806 L 102.217,187.378 83.0643,168.225 c -1.3188,-1.318 -3.0508,-1.978 -4.7828,-1.978 -1.732,10e-4 -3.4653,0.66 -4.7834,1.979 l -10.1775,10.177 c -3.0818,3.082 -4.779,7.179 -4.779,11.538 0,4.358 1.6972,8.456 4.779,11.538 l 9.863,9.863 -10.4206,10.42 c -2.9736,2.974 -3.5241,7.466 -1.6541,11.003 L 24.0767,269.796 C 10.5459,271.349 5.98628e-5,282.866 5.86442e-5,296.806 Z m 44.8948413558,0 c 0,9.761 -7.9405,17.702 -17.7016,17.702 -9.7605,0 -17.70106,-7.941 -17.70105,-17.702 0,-9.76 7.94055,-17.701 17.70105,-17.701 9.7605,0 17.7016,7.941 17.7016,17.701 z m 25.1373,-111.691 8.2493,-8.249 68.8515,68.853 -8.248,8.248 c -2.661,2.661 -6.991,2.661 -9.652,0 l -59.2002,-59.2 c -2.6616,-2.661 -2.6616,-6.991 -6e-4,-9.652 z m 9.863,32.939 26.0508,26.05 -10.3299,10.33 -26.0503,-26.051 z"
       id="path9477"
       inkscape:connector-curvature="0"
       style="fill:#000000" />
    <g
       clip-path="url(#clip1)"
       id="g9495">
      <path
         d="m 231.65,257.881 26.231,-26.231 c 1.804,-1.804 1.804,-4.728 0,-6.531 l -13.776,-13.777 -32.763,32.763 13.777,13.776 c 1.803,1.804 4.727,1.804 6.531,0 z"
         id="path9479"
         inkscape:connector-curvature="0"
         style="fill:#dbc92f" />
      <path
         d="M 5.0701,47.6255 4.74608,6.87488 C 4.89922,5.76872 5.76873,4.89924 6.87426,4.7461 l 40.75054,0.324 c 0.8221,-0.1139 1.6473,0.18921 2.2003,0.8081 L 221.624,194.248 194.248,221.624 5.87818,49.8258 C 5.25929,49.2727 4.95619,48.4475 5.0701,47.6255 Z"
         id="path9481"
         inkscape:connector-curvature="0"
         style="fill:#91dafa" />
      <path
         d="m 221.624,194.249 -9.055,-9.929 c -10.252,10.251 -26.752,10.631 -37.465,0.861 L 5.87821,30.8414 C 5.25931,30.2883 4.95621,29.4631 5.07012,28.6411 L 4.8923,6.33191 C 4.82648,6.50531 4.77206,6.68502 4.74549,6.87487 L 5.06946,47.6255 c -0.11391,0.822 0.18924,1.6472 0.80813,2.2002 L 194.248,221.625 Z"
         id="path9483"
         inkscape:connector-curvature="0"
         style="fill:#75cff9" />
      <path
         d="m 257.323,198.123 -59.2,59.201 c -4.519,4.519 -11.845,4.519 -16.364,0 l -10.178,-10.178 c -0.788,-0.788 -0.788,-2.067 0,-2.855 l 72.71,-72.709 c 0.788,-0.788 2.067,-0.788 2.855,0 l 10.178,10.178 c 4.518,4.518 4.518,11.845 -0.001,16.363 z"
         id="path9485"
         inkscape:connector-curvature="0"
         style="fill:#f8e837" />
      <path
         d="m 233.058,256.473 23.415,-23.414 40.717,40.717 c 6.254,6.254 6.254,16.394 0,22.648 l -0.766,0.766 c -6.254,6.254 -16.394,6.254 -22.648,0 z"
         id="path9487"
         inkscape:connector-curvature="0"
         style="fill:#766d78" />
      <path
         d="m 294.801,319.086 c 12.348,1.066 23.222,-8.08 24.288,-20.428 1.066,-12.348 -8.079,-23.222 -20.427,-24.288 -12.347,-1.066 -23.222,8.08 -24.288,20.428 -1.066,12.348 8.079,23.222 20.427,24.288 z"
         id="path9489"
         inkscape:connector-curvature="0"
         style="fill:#f8e837" />
      <path
         d="m 296.807,301.714 c 2.709,0 4.907,-2.197 4.907,-4.907 0,-2.71 -2.197,-4.907 -4.907,-4.907 -2.71,0 -4.907,2.196 -4.907,4.907 0,2.71 2.196,4.907 4.907,4.907 z"
         id="path9491"
         inkscape:connector-curvature="0"
         style="fill:#000000" />
      <path
         d="M 296.806,324 C 311.801,324 324,311.801 324,296.807 c 0,-13.989 -10.617,-25.539 -24.216,-27.028 -0.164,-0.24 -0.35,-0.471 -0.564,-0.684 l -11.045,-11.046 c -1.854,-1.854 -4.859,-1.854 -6.712,0 -0.927,0.926 -1.39,2.141 -1.39,3.356 0,1.214 0.463,2.429 1.39,3.355 l 6.377,6.379 c -7.791,2.73 -13.971,8.91 -16.701,16.701 l -31.369,-31.368 16.702,-16.702 11.611,11.612 c 1.854,1.853 4.859,1.853 6.712,0 1.854,-1.854 1.854,-4.859 0,-6.712 l -11.904,-11.905 c 1.87,-3.537 1.319,-8.029 -1.655,-11.002 l -10.42,-10.421 9.863,-9.863 c 3.082,-3.082 4.779,-7.179 4.779,-11.537 0,-4.358 -1.697,-8.456 -4.779,-11.538 l -10.177,-10.177 c -1.278,-1.278 -2.977,-1.982 -4.784,-1.982 -1.807,0 -3.506,0.704 -4.784,1.982 l -19.152,19.153 -96.1,-105.3701 c -1.767,-1.9364 -4.769,-2.0743 -6.706,-0.3082 -1.936,1.7669 -2.074,4.7689 -0.308,6.7053 l 96.395,105.692 -7.127,7.127 L 59.1268,52.4152 c -1.8535,-1.8535 -4.8587,-1.8535 -6.7116,0 -0.9264,0.9264 -1.3903,2.1414 -1.3903,3.3558 0,1.215 0.4633,2.4293 1.3903,3.3558 L 201.224,207.936 194.098,215.063 9.81112,46.9894 9.51306,9.51302 46.9889,9.81108 105.871,74.3725 c 1.767,1.9364 4.768,2.0744 6.705,0.3082 1.936,-1.7668 2.074,-4.7689 0.308,-6.7053 L 53.3645,2.71599 C 51.852,1.02385 49.6511,0.14677 47.4059,0.322058 L 6.91221,-4.48152e-5 C 6.68187,-0.00131045 6.45216,0.0132442 6.22434,0.0448848 3.02801,0.486588 0.487275,3.02796 0.0449385,6.22493 0.0151963,6.44009 -2.91026e-7,6.65777 -3.00541e-7,6.87546 L -3.02173e-7,6.9128 0.322101,47.4065 C 0.147445,49.6542 1.02135,51.8494 2.68059,53.3328 L 187.378,221.783 168.225,240.936 c -1.318,1.318 -1.978,3.05 -1.978,4.782 10e-4,1.733 0.66,3.466 1.979,4.784 l 10.177,10.177 c 3.082,3.082 7.179,4.779 11.538,4.779 4.358,0 8.456,-1.697 11.538,-4.779 l 9.863,-9.863 10.42,10.421 c 2.974,2.974 7.466,3.524 11.003,1.654 l 37.031,37.032 c 1.553,13.531 13.07,24.077 27.01,24.077 z m 0,-44.895 c 9.761,0 17.702,7.941 17.702,17.702 0,9.76 -7.941,17.701 -17.702,17.701 -9.76,0 -17.701,-7.941 -17.701,-17.701 0,-9.761 7.941,-17.702 17.701,-17.702 z m -111.691,-25.137 -8.249,-8.25 68.853,-68.851 8.248,8.248 c 2.661,2.661 2.661,6.991 0,9.652 l -59.2,59.2 c -2.661,2.662 -6.991,2.662 -9.652,10e-4 z m 32.939,-9.863 26.05,-26.051 10.33,10.33 -26.051,26.05 z"
         id="path9493"
         inkscape:connector-curvature="0"
         style="fill:#000000" />
    </g>
  </g>
  <defs
     id="defs9505">
    <clipPath
       id="clip0">
      <rect
         x="324"
         y="324"
         width="324"
         height="324"
         transform="rotate(-180,324,324)"
         id="rect9499"
         style="fill:#ffffff" />
    </clipPath>
    <clipPath
       id="clip1">
      <rect
         x="324"
         y="1.52588e-05"
         width="324"
         height="324"
         transform="rotate(90,324,1.52588e-5)"
         id="rect9502"
         style="fill:#ffffff" />
    </clipPath>
  </defs>
</svg>
