<?xml version="1.0" encoding="UTF-8" standalone="no"?>
<!-- Generator: Adobe Illustrator 19.0.0, SVG Export Plug-In . SVG Version: 6.00 Build 0)  -->

<svg
   xmlns:dc="http://purl.org/dc/elements/1.1/"
   xmlns:cc="http://creativecommons.org/ns#"
   xmlns:rdf="http://www.w3.org/1999/02/22-rdf-syntax-ns#"
   xmlns:svg="http://www.w3.org/2000/svg"
   xmlns="http://www.w3.org/2000/svg"
   xmlns:sodipodi="http://sodipodi.sourceforge.net/DTD/sodipodi-0.dtd"
   xmlns:inkscape="http://www.inkscape.org/namespaces/inkscape"
   version="1.1"
   id="Capa_1"
   x="0px"
   y="0px"
   viewBox="0 0 543.96765 543.96765"
   xml:space="preserve"
   sodipodi:docname="fire_ns.svg"
   width="16.998989"
   height="16.998989"
   inkscape:version="0.92.3 (2405546, 2018-03-11)"><metadata
   id="metadata1026"><rdf:RDF><cc:Work
       rdf:about=""><dc:format>image/svg+xml</dc:format><dc:type
         rdf:resource="http://purl.org/dc/dcmitype/StillImage" /><dc:title></dc:title></cc:Work></rdf:RDF></metadata><defs
   id="defs1024" /><sodipodi:namedview
   pagecolor="#ffffff"
   bordercolor="#666666"
   borderopacity="1"
   objecttolerance="10"
   gridtolerance="10"
   guidetolerance="10"
   inkscape:pageopacity="0"
   inkscape:pageshadow="2"
   inkscape:window-width="1920"
   inkscape:window-height="1017"
   id="namedview1022"
   showgrid="false"
   inkscape:zoom="13.031276"
   inkscape:cx="35.846056"
   inkscape:cy="25.043779"
   inkscape:window-x="0"
   inkscape:window-y="30"
   inkscape:window-maximized="1"
   inkscape:current-layer="Capa_1" />
<path
   style="fill:#ed694a"
   d="m 382.32115,179.80755 c -10.356,-11.307 -26.457,-26.568 -33.306,7.892 -2.329,11.715 -7.772,20.747 -12.435,28.02 -5.028,-25.442 -20.15,-51.775 -34.4,-69.53 -5.332,-6.643 -24.253,-33.05 -27.889,-77.229003 -0.543,-6.594 -8.375,-9.69 -13.272,-5.242 -46.814,42.496003 -72.509,100.944003 -73.463,166.744003 0,0 -19.494,-16.431 -30.083,-46.999 -2.852,-8.232 -13.887,-9.802 -18.675,-2.523 -0.919,1.397 -1.771,2.797 -2.54,4.157 -36.118,63.864 -53.492997,141.42 -37.430997,213.574 26.855997,120.837 204.507997,154.619 298.558997,78.67 92.016,-74.305 62.766,-212.605 -15.065,-297.534 z"
   id="path943"
   inkscape:connector-curvature="0" />
<g
   id="g949"
   transform="translate(12.278153,13.315547)">
	<path
   style="fill:#d8553a"
   d="m 111.547,392.941 c -15.875,-72.926 0.929,-151.237 36.199,-216.102 -0.892,-2.152 -1.75,-4.377 -2.552,-6.692 -2.852,-8.232 -13.887,-9.802 -18.675,-2.523 -0.919,1.397 -1.771,2.797 -2.54,4.157 -36.118,63.865 -53.492,141.419 -37.431,213.575 12.249,55.117 55.876,92.11 108.629,108.852 -41.152,-19.936 -73.38,-54.109 -83.63,-101.267 z"
   id="path945"
   inkscape:connector-curvature="0" />
	<path
   style="fill:#d8553a"
   d="m 200.4,215.936 c 1.95,-59.718 23.55,-113.266 62.209,-154.402 -0.265,-2.265 -0.463,-4.291 -0.591,-5.828 -0.554,-6.651 -8.1,-9.985 -12.977,-5.576 -45.216,40.88 -72.775,98.736 -73.764,167.016 l 8.463,6.572 c 4.168,3.237 9.815,3.096 13.795,0.131 2.376,-2.014 2.716,-5.052 2.865,-7.913 z"
   id="path947"
   inkscape:connector-curvature="0" />
</g>
<path
   style="fill:#f4a32c"
   d="m 353.92615,268.14055 c -7.65,-8.351 -19.541,-19.624 -24.601,5.829 -1.72,8.654 -5.741,15.324 -9.185,20.696 -3.713,-18.792 -14.883,-38.242 -25.409,-51.357 -3.938,-4.907 -17.914,-24.411 -20.599,-57.042 -0.401,-4.87 -6.186,-7.157 -9.804,-3.872 -34.577,31.389 -53.557,74.56 -54.262,123.16 0,0 -14.398,-12.136 -22.22,-34.714 -2.106,-6.08 -10.258,-7.24 -13.793,-1.864 -0.679,1.032 -1.308,2.066 -1.876,3.07 -26.678,47.172 -39.511,104.456 -27.648,157.752 19.836,89.252 151.054,114.206 220.522,58.108 67.966,-54.883 46.362,-157.035 -11.125,-219.766 z"
   id="path951"
   inkscape:connector-curvature="0" />
<path
   style="fill:#e89528"
   d="m 169.27115,436.79755 c -10.505,-52.098 0.375,-107.999 23.442,-154.549 -1.758,-3.442 -3.424,-7.247 -4.866,-11.409 -2.106,-6.081 -10.258,-7.24 -13.793,-1.864 -0.679,1.032 -1.308,2.066 -1.876,3.071 -26.678,47.172 -39.511,104.456 -27.648,157.751 9.226,41.51 42.547,69.102 82.54,81.11 -28.415,-14.249 -50.787,-39.284 -57.799,-74.11 z"
   id="path953"
   inkscape:connector-curvature="0" />
<path
   style="fill:#f4d44e"
   d="m 328.00315,348.78355 c -5.178,-5.653 -13.228,-13.284 -16.653,3.946 -1.165,5.858 -3.886,10.374 -6.218,14.009 -2.514,-12.72 -10.076,-25.888 -17.2,-34.764 -2.666,-3.322 -12.126,-16.524 -13.944,-38.614 -0.271,-3.297 -4.187,-4.845 -6.636,-2.621 -23.407,21.248 -36.254,50.473 -36.731,83.371 0,0 -9.747,-8.216 -15.041,-23.5 -1.426,-4.116 -6.944,-4.901 -9.338,-1.262 -0.46,0.699 -0.885,1.399 -1.27,2.078 -18.059,31.933 -26.747,70.71 -18.716,106.787 13.428,60.418 102.254,77.31 149.279,39.335 16.103,-13.004 26.087,-31.329 28.112,-51.597 3.054,-30.698 -8.761,-67.832 -35.644,-97.168 z"
   id="path955"
   inkscape:connector-curvature="0" />
<path
   style="fill:#eae9e8"
   d="m 303.94615,423.61855 c -2.885,-3.15 -7.37,-7.401 -9.278,2.198 -0.649,3.264 -2.165,5.78 -3.464,7.806 -1.4,-7.088 -5.613,-14.422 -9.583,-19.368 -1.485,-1.851 -6.756,-9.207 -7.769,-21.513 -0.151,-1.837 -2.333,-2.699 -3.697,-1.46 -13.04,11.837 -20.198,28.12 -20.464,46.449 0,0 -5.431,-4.577 -8.38,-13.092 -0.794,-2.293 -3.869,-2.73 -5.202,-0.703 -0.256,0.389 -0.493,0.779 -0.708,1.158 -10.062,17.79 -14.901,39.395 -10.428,59.494 10.189,45.843 93.707,44.453 98.83,-6.832 1.704,-17.105 -4.879,-37.793 -19.857,-54.137 z"
   id="path957"
   inkscape:connector-curvature="0" />
<path
   style="fill:#f7e7a1"
   d="m 244.36715,493.68455 c -4.475,-17.98 0.366,-37.306 10.428,-53.221 0.214,-0.339 0.451,-0.688 0.708,-1.036 1.333,-1.814 4.408,-1.423 5.202,0.628 2.95,7.618 8.38,11.711 8.38,11.711 0.219,-13.471 5.099,-25.702 14.062,-35.511 -2.004,-2.775 -8.137,-9.47 -9.293,-23.517 -0.151,-1.837 -2.333,-2.699 -3.698,-1.46 -13.04,11.837 -20.198,28.12 -20.464,46.449 0,0 -5.431,-4.578 -8.381,-13.092 -0.794,-2.293 -3.869,-2.73 -5.202,-0.703 -0.256,0.389 -0.493,0.779 -0.708,1.158 -10.062,17.79 -14.901,39.394 -10.428,59.494 4.141,18.631 21.151,29.828 39.957,32.53 -10.142,-4.978 -17.939,-12.867 -20.563,-23.43 z"
   id="path959"
   inkscape:connector-curvature="0" />
<g
   id="g969"
   transform="translate(12.278153,13.315547)">
	<path
   style="fill:#d8553a"
   d="m 186.697,73.544 c 20.99,-17.072 20.943,-49.011 0,-66.044 -20.988,17.07 -20.942,49.011 0,66.044 z"
   id="path961"
   inkscape:connector-curvature="0" />
	<path
   style="fill:#d8553a"
   d="m 438.271,210.561 c 20.99,-17.072 20.943,-49.011 0,-66.044 -9.592,7.802 -20.943,49.011 0,66.044 z"
   id="path963"
   inkscape:connector-curvature="0" />
	<path
   style="fill:#d8553a"
   d="m 66.524,223.56 c 15.127,-12.303 15.093,-35.322 0,-47.599 -6.913,5.623 -15.093,35.324 0,47.599 z"
   id="path965"
   inkscape:connector-curvature="0" />
	<path
   style="fill:#d8553a"
   d="m 328.512,121.142 c 15.127,-12.303 15.093,-35.322 0,-47.599 -15.126,12.304 -15.093,35.324 0,47.599 z"
   id="path967"
   inkscape:connector-curvature="0" />
</g>
<path
   style="fill:#e89528"
   d="m 229.36715,297.75055 c 3.474,-41.009 19.133,-77.474 45.43,-105.273 -0.265,-2.015 -0.49,-4.083 -0.665,-6.21 -0.401,-4.87 -6.186,-7.157 -9.804,-3.872 -27.4,24.873 -44.985,57.15 -51.463,93.66 l -0.01,-0.003 c -0.48,2.708 -1.077,6.653 -1.453,9.752 0.001,0.002 0.002,0.005 0.003,0.007 -0.787,6.469 -1.243,13.052 -1.34,19.745 0.735,0.142 17.299,8.659 19.302,-7.806 z"
   id="path971"
   inkscape:connector-curvature="0" />
<g
   id="g977"
   transform="translate(12.278153,13.315547)">
	<path
   style="fill:#e8c842"
   d="m 198.181,453.471 c -7.14,-33.704 -1.059,-69.645 13.065,-100.786 -2.735,-3.837 -5.73,-8.991 -7.947,-15.388 -1.426,-4.116 -6.944,-4.901 -9.338,-1.262 -0.459,0.699 -0.886,1.399 -1.27,2.079 -18.06,31.933 -26.747,70.71 -18.716,106.787 6.289,28.295 29.115,47.042 56.437,55.081 -15.903,-10.56 -27.933,-26.188 -32.231,-46.511 z"
   id="path973"
   inkscape:connector-curvature="0" />
	<path
   style="fill:#e8c842"
   d="m 244.111,346.067 c 2.367,-16.912 9.284,-35.547 20.172,-51.126 -1.186,-4.399 -2.119,-9.37 -2.574,-14.896 -0.271,-3.297 -4.188,-4.845 -6.637,-2.621 -14.584,13.239 -25.053,29.582 -31,47.974 l -0.016,-0.003 c -0.936,2.889 -2.258,7.677 -3.061,11.456 0.007,-0.002 0.014,-0.002 0.021,-0.004 -1.643,7.71 -2.556,15.711 -2.676,23.95 13.1,1.632 23.933,-1.611 25.771,-14.73 z"
   id="path975"
   inkscape:connector-curvature="0" />
</g>
<path
   d="m 205.11315,14.996547 c -2.756,-2.242 -6.709,-2.242 -9.465,0 -24.681,20.076 -24.63,57.646 0,77.682 2.756,2.242 6.709,2.242 9.465,0 11.752,-9.56 18.492,-23.716 18.492,-38.841 0.001,-15.126 -6.739,-29.282 -18.492,-38.841 z m -4.732,61.399 c -10.887,-12.907 -11.046,-32.019 0,-45.116 10.889,12.91 11.043,32.022 0,45.116 z"
   id="path979"
   inkscape:connector-curvature="0" />
<path
   d="m 456.68715,152.01355 c -2.756,-2.242 -6.709,-2.242 -9.465,0 -24.632,20.035 -24.681,57.606 0,77.682 2.756,2.242 6.709,2.242 9.465,0 24.728,-20.113 24.585,-57.685 0,-77.682 z m -4.732,61.399 c -10.888,-12.909 -11.047,-32.019 0,-45.116 10.888,12.909 11.047,32.018 0,45.116 z"
   id="path981"
   inkscape:connector-curvature="0" />
<path
   d="m 84.941153,183.45955 c -2.757,-2.242 -6.708,-2.242 -9.465,0 -18.82,15.306 -18.781,43.961 0,59.234 2.757,2.242 6.708,2.242 9.465,0 18.819997,-15.305 18.780997,-43.96 0,-59.234 z m -4.732,42.386 c -5.04,-7.609 -5.182,-17.715 0,-25.538 5.04,7.609 5.181,17.715 0,25.538 z"
   id="path983"
   inkscape:connector-curvature="0" />
<path
   d="m 346.92915,140.27655 c 18.82,-15.305 18.782,-43.960003 0,-59.234003 -2.758,-2.242 -6.709,-2.242 -9.465,0 -18.82,15.308 -18.78,43.959003 0,59.234003 2.755,2.242 6.709,2.242 9.465,0 z m -4.733,-42.387003 c 5.084,7.672003 5.142,17.778003 0,25.538003 -5.06,-7.64 -5.161,-17.747 0,-25.538003 z"
   id="path985"
   inkscape:connector-curvature="0" />
<path
   d="m 309.43515,141.49355 c -5.291,-6.592 -22.822,-31.348 -26.264,-73.148003 -1.052,-12.783 -16.289,-18.808 -25.787,-10.18 -20.209,18.336 -37.451,40.479 -50.24,65.577003 -1.88,3.691 -0.413,8.207 3.278,10.088 3.688,1.877 8.206,0.412 10.087,-3.277 11.74,-23.041 27.708,-43.813003 46.958,-61.282003 0.296,-0.272 0.722,-0.105 0.756,0.305 3.79,46.048003 23.55,73.876003 29.515,81.307003 13.833,17.235 28.214,42.613 32.894,66.29 1.305,6.611 10.034,8.27 13.67,2.594 5.186,-8.087 10.93,-17.788 13.478,-30.606 2.739,-13.781 6.302,-15.142 6.337,-15.151 6.221,-1.717 50.983,46.701 71.597,107.265 1.339,3.935 5.615,6.015 9.517,4.683 3.921,-1.334 6.018,-5.595 4.683,-9.517 -12.581,-36.959 -33.555,-72.126 -60.653,-101.696 -5.948,-6.493 -17.018,-18.584 -29.183,-15.18 -8.343,2.333 -13.905,11.059 -17.01,26.674 -0.681,3.427 -1.66,6.595 -2.836,9.564 -5.546,-15.606 -14.293,-31.663 -26.461,-48.629 -1.258,-1.755 -2.676,-3.612 -4.336,-5.681 z"
   id="path987"
   inkscape:connector-curvature="0" />
<path
   d="m 450.40215,305.32555 c -4.067,0.781 -6.731,4.712 -5.95,8.78 12.329,64.199 -3.235,121.74 -54.075,160.275 48.683,-61.48 23.011,-153.986 -29.516,-211.307 -4.346,-4.742 -13.39,-14.617 -23.528,-11.773 -10.343,2.892 -12.625,15.857 -14.299,22.75 -15.333,-37.16 -36.134,-41.174 -40.021,-88.399 -0.911,-11.063 -14.099,-16.271 -22.318,-8.81 -30.996,28.129 -50.622,65.701 -55.528,109.522 -3.129,-4.8 -6.349,-10.823 -8.828,-17.978 -4.164,-12.02 -20.231,-14.045 -27.147,-3.528 -0.753,1.145 -1.472,2.321 -2.138,3.498 -29.523,52.203 -39.889,111.641 -28.441,163.071 3.495,15.726 10.436,30.145 20.314,42.725 -26.629,-19.684 -44.429,-45.851 -51.377,-77.11 -14.562997,-65.426 -1.209,-141.331 36.639,-208.252 0.711,-1.259 1.478,-2.513 2.278,-3.729 1.382,-2.102 4.512,-1.483 5.323,0.856 11.137,32.148 31.477,49.554 32.337,50.278 4.826,4.072 12.24,0.69 12.332,-5.626 0.34,-23.44 3.945,-46.145 10.717,-67.486 1.252,-3.948 -0.933,-8.165 -4.881,-9.417 -3.948,-1.255 -8.165,0.932 -9.417,4.88 -5.419,17.081 -8.936,34.962 -10.503,53.361 -5.494,-7.352 -11.855,-17.748 -16.412,-30.9 -4.897,-14.135 -23.839,-16.634 -32.028,-4.189 -0.983,1.495 -1.925,3.038 -2.801,4.586 -39.652997,70.11 -53.585997,149.894 -38.225997,218.893 11.443997,51.494 50.728997,92.469 107.780997,112.419 127.395,44.545 291.32,-30.54 258.49,-201.44 -0.778,-4.068 -4.716,-6.73 -8.777,-5.95 z m -145.565,195.342 c -21.982,17.747 -64.929,10.217 -71.136,-17.71 -3.279,-14.728 -1.049,-31.584 6.095,-47.231 2.991,4.715 5.991,7.336 6.469,7.738 4.822,4.066 12.24,0.699 12.332,-5.626 0.185,-12.723 4.037,-24.205 11.214,-33.609 4.352,14.61 12.996,18.468 15.442,30.849 1.305,6.611 10.032,8.269 13.67,2.595 1.192,-1.859 2.376,-3.877 3.293,-6.235 16.417,19.866 24.119,51.868 2.621,69.229 z m 54.457,-16.693 c 27.968,-42.47 10.323,-102.416 -24.355,-140.257 -3.268,-3.568 -10.066,-10.996 -18.367,-8.668 -5.403,1.512 -8.193,6.354 -9.678,10.534 -3.291,-6.478 -7.928,-13.59 -11.708,-18.305 -1.763,-2.196 -10.645,-14.185 -12.318,-34.533 -0.78,-9.49 -12.098,-13.961 -19.15,-7.561 -19.658,17.838 -32.767,41.259 -37.366,68.511 -0.819,-1.707 -1.593,-3.556 -2.28,-5.539 -3.466,-10.007 -16.888,-11.746 -22.687,-2.933 -5.662,8.601 -14.488,27.569 -19.319,46.702 -1.014,4.016 1.419,8.094 5.435,9.107 4.02,1.016 8.094,-1.419 9.108,-5.436 3.316,-13.132 8.355,-25.945 14.992,-38.126 6.08,14.24 15.172,22.019 15.593,22.373 4.819,4.065 12.24,0.701 12.332,-5.626 0.413,-28.459 10.524,-53.678 29.267,-73.055 3.197,19.827 11.873,31.985 14.697,35.503 6.557,8.162 13.482,20.343 15.692,31.525 1.303,6.601 10.026,8.281 13.669,2.595 7.212,-11.24 6.683,-15.578 8.098,-19.89 0.722,0.644 1.678,1.583 2.933,2.953 38.031,41.501 50.776,108.517 4.286,140.903 11.439,-24.157 1.513,-55.691 -17.283,-76.201 -2.091,-2.283 -6.985,-7.63 -13.575,-5.785 -1.684,0.471 -3.145,1.328 -4.379,2.566 -4.135,-6.579 -9.136,-10.34 -10.195,-23.211 -0.662,-8.032 -10.248,-11.813 -16.213,-6.396 -9.374,8.519 -16.298,19.273 -19.959,31.779 -4.599,-3.778 -11.785,-3.054 -15.311,2.306 -12.654,19.228 -19.026,53.417 -9.336,75 -23.35,-15.861 -30.112,-38.12 -29.737,-66.236 0.055,-4.142 -3.258,-7.544 -7.399,-7.599 -4.114,-0.057 -7.544,3.257 -7.6,7.398 -0.257,19.32 2.705,39.188 13.205,55.508 -19.178,-14.307 -32.2,-33.538 -37.128,-55.714 -10.653,-47.857 -0.865,-103.416 26.855,-152.43 0.502,-0.887 1.045,-1.775 1.639,-2.695 0.001,0 0.035,-0.009 0.083,-0.009 0.098,0 0.256,0.037 0.333,0.26 8.4,24.249 23.82,37.444 24.473,37.994 4.833,4.072 12.241,0.689 12.332,-5.626 0.636,-43.876 16.467,-84.057 49.404,-115.48 3.482,32.592 17.562,52.399 21.915,57.822 10.02,12.474 20.511,30.969 23.899,48.113 1.302,6.598 10.025,8.28 13.67,2.594 12.839,-20.024 9.104,-27.187 13.559,-32.793 1.055,0.395 3.443,1.895 8.383,7.286 0,0 10e-4,0 10e-4,0.001 55.982,61.095 76.134,160.092 9.49,210.771 z"
   id="path989"
   inkscape:connector-curvature="0" />
<g
   id="g991"
   transform="translate(0,-495)">
</g>
<g
   id="g993"
   transform="translate(0,-495)">
</g>
<g
   id="g995"
   transform="translate(0,-495)">
</g>
<g
   id="g997"
   transform="translate(0,-495)">
</g>
<g
   id="g999"
   transform="translate(0,-495)">
</g>
<g
   id="g1001"
   transform="translate(0,-495)">
</g>
<g
   id="g1003"
   transform="translate(0,-495)">
</g>
<g
   id="g1005"
   transform="translate(0,-495)">
</g>
<g
   id="g1007"
   transform="translate(0,-495)">
</g>
<g
   id="g1009"
   transform="translate(0,-495)">
</g>
<g
   id="g1011"
   transform="translate(0,-495)">
</g>
<g
   id="g1013"
   transform="translate(0,-495)">
</g>
<g
   id="g1015"
   transform="translate(0,-495)">
</g>
<g
   id="g1017"
   transform="translate(0,-495)">
</g>
<g
   id="g1019"
   transform="translate(0,-495)">
</g>
</svg>