<?xml version="1.0" encoding="UTF-8" standalone="no"?>
<!-- Generator: Adobe Illustrator 19.0.0, SVG Export Plug-In . SVG Version: 6.00 Build 0)  -->

<svg
   xmlns:dc="http://purl.org/dc/elements/1.1/"
   xmlns:cc="http://creativecommons.org/ns#"
   xmlns:rdf="http://www.w3.org/1999/02/22-rdf-syntax-ns#"
   xmlns:svg="http://www.w3.org/2000/svg"
   xmlns="http://www.w3.org/2000/svg"
   xmlns:sodipodi="http://sodipodi.sourceforge.net/DTD/sodipodi-0.dtd"
   xmlns:inkscape="http://www.inkscape.org/namespaces/inkscape"
   version="1.1"
   id="Capa_1"
   x="0px"
   y="0px"
   viewBox="0 0 543.97 543.96765"
   xml:space="preserve"
   sodipodi:docname="flying_ns.svg"
   width="16.998989"
   height="16.998989"
   inkscape:version="0.92.3 (2405546, 2018-03-11)"><metadata
   id="metadata2567"><rdf:RDF><cc:Work
       rdf:about=""><dc:format>image/svg+xml</dc:format><dc:type
         rdf:resource="http://purl.org/dc/dcmitype/StillImage" /><dc:title></dc:title></cc:Work></rdf:RDF></metadata><defs
   id="defs2565" /><sodipodi:namedview
   pagecolor="#ffffff"
   bordercolor="#666666"
   borderopacity="1"
   objecttolerance="10"
   gridtolerance="10"
   guidetolerance="10"
   inkscape:pageopacity="0"
   inkscape:pageshadow="2"
   inkscape:window-width="1920"
   inkscape:window-height="1017"
   id="namedview2563"
   showgrid="false"
   inkscape:zoom="7.3750145"
   inkscape:cx="27.064363"
   inkscape:cy="8.1931113"
   inkscape:window-x="0"
   inkscape:window-y="30"
   inkscape:window-maximized="1"
   inkscape:current-layer="Capa_1" />
<g
   id="g2512"
   transform="translate(21.694966,32.260146)">
	<path
   style="fill:#dde5e8"
   d="m 235.443,223.476 c -9.437,-16.931 -27.648,-27.081 -47.03,-27.081 H 12.584 c -3.979,0 -6.415,4.365 -4.325,7.752 l 4.19,6.786 c 9.617,15.578 26.617,25.062 44.925,25.062 l 4.128,0.4 6.794,14.539 c 7.28,15.578 20.149,25.062 34.009,25.062 h 17.623 l 4.598,14.539 c 4.926,15.578 13.638,25.062 23.018,25.062 h 63.845 25.812 c 2.806,0 5.083,-2.276 5.083,-5.083 v -60.72 c -0.001,-9.208 -2.354,-18.268 -6.841,-26.318 z"
   id="path2508"
   inkscape:connector-curvature="0" />
	<path
   style="fill:#dde5e8"
   d="m 322.667,196.396 c -19.311,0 -37.081,10.542 -46.335,27.49 v 0 c -4.339,7.947 -6.614,16.856 -6.614,25.91 v 60.722 c 0,2.806 2.276,5.083 5.083,5.083 h 25.812 63.845 c 9.38,0 18.09,-9.485 23.018,-25.062 L 392.074,276 h 17.623 c 13.858,0 26.729,-9.485 34.009,-25.062 l 6.794,-14.539 4.128,-0.4 c 18.307,0 35.308,-9.485 44.925,-25.062 l 4.19,-6.786 c 2.09,-3.386 -0.345,-7.752 -4.325,-7.752 z"
   id="path2510"
   inkscape:connector-curvature="0" />
</g>
<g
   id="g2518"
   transform="translate(21.694966,32.260146)">
	<path
   style="fill:#bacbd1"
   d="m 503.742,204.152 -4.188,6.779 c -9.616,15.582 -26.621,25.066 -44.928,25.066 l -4.127,0.396 -6.8,14.545 c -7.278,15.572 -20.146,25.056 -34,25.056 h -17.625 l -4.604,14.545 c -4.919,15.572 -13.631,25.056 -23.013,25.056 h -43.454 c 9.91,0 19.11,-10.012 24.313,-26.468 l 4.858,-15.359 h 18.621 c 14.637,0 28.237,-10.022 35.922,-26.478 l 7.177,-15.359 4.36,-0.417 c 19.343,0 37.304,-10.022 47.458,-26.478 l 4.421,-7.166 c 0.295,-0.477 0.508,-0.975 0.64,-1.474 h 30.637 c 3.986,0 6.416,4.361 4.332,7.756 z"
   id="path2514"
   inkscape:connector-curvature="0" />
	<path
   style="fill:#bacbd1"
   d="m 8.257,204.152 4.188,6.779 c 9.616,15.582 26.621,25.066 44.928,25.066 l 4.127,0.396 6.8,14.545 c 7.278,15.572 20.146,25.056 34,25.056 h 17.625 l 4.604,14.545 c 4.919,15.572 13.631,25.056 23.013,25.056 h 43.454 c -9.91,0 -19.11,-10.012 -24.313,-26.468 l -4.858,-15.359 h -18.622 c -14.637,0 -28.237,-10.022 -35.922,-26.478 l -7.177,-15.359 -4.36,-0.417 c -19.343,0 -37.304,-10.022 -47.458,-26.478 l -4.421,-7.166 c -0.295,-0.477 -0.508,-0.975 -0.64,-1.474 H 12.587 c -3.985,0 -6.414,4.361 -4.33,7.756 z"
   id="path2516"
   inkscape:connector-curvature="0" />
</g>
<path
   d="m 258.89597,355.36615 h -89.656 c -12.893,0 -24.171,-11.329 -30.172,-30.304 l -2.94,-9.298 h -12.127 c -16.698,0 -32.335004,-11.262 -40.807004,-29.391 l -4.962,-10.617 c -20.735,-0.279 -39.554,-10.933 -50.472,-28.618 l -4.19,-6.786 c -2.395,-3.88 -2.502,-8.762 -0.281,-12.743 2.221,-3.981 6.432,-6.454 10.992,-6.454 H 211.02997 c 22.067,0 42.345,12.03 52.922,31.397 4.928,9.023 7.532,19.226 7.532,29.507 v 60.721 c -0.002,6.939 -5.649,12.586 -12.588,12.586 z m -220.276004,-119.204 1.909,3.093 c 8.31,13.463 22.717,21.5 38.539,21.5 0.241,0 0.482,0.012 0.723,0.035 l 4.127,0.399 c 2.641,0.256 4.951,1.888 6.075,4.292 l 6.794,14.539 c 6.068004,12.985 16.239004,20.736 27.211004,20.736 h 17.624 c 3.273,0 6.168,2.121 7.155,5.241 l 4.598,14.538 c 3.75,11.857 10.124,19.823 15.863,19.823 h 87.235 v -58.3 c 0,-7.775 -1.97,-15.491 -5.696,-22.314 -7.944,-14.546 -23.175,-23.583 -39.749,-23.583 z"
   id="path2520"
   inkscape:connector-curvature="0" />
<path
   d="M 199.06697,276.16015 H 83.195966 c -4.144,0 -7.504,-3.36 -7.504,-7.504 0,-4.144 3.36,-7.504 7.504,-7.504 H 199.06697 c 4.144,0 7.504,3.36 7.504,7.504 -10e-4,4.144 -3.36,7.504 -7.504,7.504 z"
   id="path2522"
   inkscape:connector-curvature="0" />
<path
   d="m 222.44497,315.75015 h -80.797 c -4.144,0 -7.504,-3.359 -7.504,-7.504 0,-4.145 3.36,-7.504 7.504,-7.504 h 80.797 c 4.144,0 7.504,3.359 7.504,7.504 0,4.145 -3.36,7.504 -7.504,7.504 z"
   id="path2524"
   inkscape:connector-curvature="0" />
<path
   d="m 386.14997,355.36615 h -89.656 c -6.941,0 -12.586,-5.647 -12.586,-12.586 v -60.721 c 0,-10.282 2.605,-20.486 7.533,-29.508 10.575,-19.365 30.854,-31.396 52.921,-31.396 h 69.381 c 4.145,0 7.504,3.36 7.504,7.504 0,4.144 -3.359,7.504 -7.504,7.504 h -69.381 c -16.574,0 -31.806,9.037 -39.749,23.583 -3.727,6.822 -5.696,14.538 -5.696,22.314 v 58.301 h 87.235 c 5.739,0 12.113,-7.966 15.862,-19.823 l 4.6,-14.538 c 0.986,-3.121 3.882,-5.241 7.154,-5.241 h 17.624 c 10.971,0 21.143,-7.752 27.21,-20.736 l 6.794,-14.539 c 1.124,-2.403 3.433,-4.036 6.073,-4.292 l 4.128,-0.4 c 0.241,-0.023 0.482,-0.035 0.725,-0.035 15.821,0 30.227,-8.038 38.539,-21.501 l 1.909,-3.093 h -53.711 c -4.145,0 -7.504,-3.36 -7.504,-7.504 0,-4.144 3.359,-7.504 7.504,-7.504 h 58.051 c 4.558,0 8.77,2.473 10.991,6.454 2.221,3.981 2.113,8.863 -0.281,12.742 l -4.19,6.787 c -10.919,17.687 -29.738,28.34 -50.472,28.618 l -4.962,10.618 c -8.472,18.129 -24.108,29.391 -40.807,29.391 h -12.127 l -2.941,9.298 c -6,18.974 -17.278,30.303 -30.171,30.303 z"
   id="path2526"
   inkscape:connector-curvature="0" />
<path
   d="m 472.19297,276.16015 h -115.87 c -4.145,0 -7.504,-3.36 -7.504,-7.504 0,-4.144 3.359,-7.504 7.504,-7.504 h 115.87 c 4.145,0 7.504,3.36 7.504,7.504 -0.001,4.144 -3.359,7.504 -7.504,7.504 z"
   id="path2528"
   inkscape:connector-curvature="0" />
<path
   d="m 413.74197,315.75015 h -80.798 c -4.145,0 -7.504,-3.359 -7.504,-7.504 0,-4.145 3.359,-7.504 7.504,-7.504 h 80.798 c 4.145,0 7.504,3.359 7.504,7.504 0,4.145 -3.359,7.504 -7.504,7.504 z"
   id="path2530"
   inkscape:connector-curvature="0" />
<g
   id="g2532"
   transform="translate(0,-15.46878)">
</g>
<g
   id="g2534"
   transform="translate(0,-15.46878)">
</g>
<g
   id="g2536"
   transform="translate(0,-15.46878)">
</g>
<g
   id="g2538"
   transform="translate(0,-15.46878)">
</g>
<g
   id="g2540"
   transform="translate(0,-15.46878)">
</g>
<g
   id="g2542"
   transform="translate(0,-15.46878)">
</g>
<g
   id="g2544"
   transform="translate(0,-15.46878)">
</g>
<g
   id="g2546"
   transform="translate(0,-15.46878)">
</g>
<g
   id="g2548"
   transform="translate(0,-15.46878)">
</g>
<g
   id="g2550"
   transform="translate(0,-15.46878)">
</g>
<g
   id="g2552"
   transform="translate(0,-15.46878)">
</g>
<g
   id="g2554"
   transform="translate(0,-15.46878)">
</g>
<g
   id="g2556"
   transform="translate(0,-15.46878)">
</g>
<g
   id="g2558"
   transform="translate(0,-15.46878)">
</g>
<g
   id="g2560"
   transform="translate(0,-15.46878)">
</g>
</svg>