<?xml version="1.0" encoding="UTF-8" standalone="no"?>
<svg
   xmlns:dc="http://purl.org/dc/elements/1.1/"
   xmlns:cc="http://creativecommons.org/ns#"
   xmlns:rdf="http://www.w3.org/1999/02/22-rdf-syntax-ns#"
   xmlns:svg="http://www.w3.org/2000/svg"
   xmlns="http://www.w3.org/2000/svg"
   xmlns:sodipodi="http://sodipodi.sourceforge.net/DTD/sodipodi-0.dtd"
   xmlns:inkscape="http://www.inkscape.org/namespaces/inkscape"
   height="16"
   viewBox="0 0 512 512"
   width="16"
   version="1.1"
   id="svg10844"
   sodipodi:docname="ghost_ns.svg"
   inkscape:version="0.92.3 (2405546, 2018-03-11)">
  <metadata
     id="metadata10850">
    <rdf:RDF>
      <cc:Work
         rdf:about="">
        <dc:format>image/svg+xml</dc:format>
        <dc:type
           rdf:resource="http://purl.org/dc/dcmitype/StillImage" />
        <dc:title></dc:title>
      </cc:Work>
    </rdf:RDF>
  </metadata>
  <defs
     id="defs10848" />
  <sodipodi:namedview
     pagecolor="#ffffff"
     bordercolor="#666666"
     borderopacity="1"
     objecttolerance="10"
     gridtolerance="10"
     guidetolerance="10"
     inkscape:pageopacity="0"
     inkscape:pageshadow="2"
     inkscape:window-width="1920"
     inkscape:window-height="1017"
     id="namedview10846"
     showgrid="false"
     inkscape:zoom="20.85965"
     inkscape:cx="17.928584"
     inkscape:cy="3.9569031"
     inkscape:window-x="0"
     inkscape:window-y="30"
     inkscape:window-maximized="1"
     inkscape:current-layer="svg10844" />
  <g
     id="g10842"
     transform="matrix(4.0635842,0,0,3.5546169,-11.981935,32.118438)">
    <g
       id="g10826">
      <path
         d="m 98.605,109.964 -2.248,-0.659 a 4.043,4.043 0 0 0 -4.807,2.185 l -2.606,5.646 a 4.043,4.043 0 0 1 -5.54,1.889 L 78.951,116.7 a 4.042,4.042 0 0 0 -5.656,2.167 4.053,4.053 0 0 1 -4.937,2.465 C 57.158,118.024 48.314,113.461 41.58,107.992 29.5,98.2 24.191,85.505 24.191,71.9 V 42.526 A 36.027,36.027 0 0 1 60.218,6.5 36.026,36.026 0 0 1 96.244,42.526 V 71.9 c 0,11.794 2.324,23.083 7.113,32.379 a 4.036,4.036 0 0 1 -4.752,5.685 z"
         id="path10818"
         inkscape:connector-curvature="0"
         style="fill:#eaeaf0" />
      <g
         id="g10824"
         style="fill:#575f64">
        <ellipse
           cx="45.778"
           cy="45.964001"
           rx="6"
           ry="8.3330002"
           id="ellipse10820" />
        <ellipse
           cx="74.581001"
           cy="45.964001"
           rx="6"
           ry="8.3330002"
           id="ellipse10822" />
      </g>
    </g>
    <g
       id="g10840"
       style="fill:#0d0614">
      <path
         d="m 96.244,57.083 a 1.75,1.75 0 0 0 -1.75,1.75 V 63.5 a 1.75,1.75 0 1 0 3.5,0 v -4.667 a 1.75,1.75 0 0 0 -1.75,-1.75 z"
         id="path10828"
         inkscape:connector-curvature="0" />
      <path
         d="M 25.941,71.9 V 42.526 a 34.277,34.277 0 0 1 68.553,0 v 9.141 a 1.75,1.75 0 0 0 3.5,0 v -9.141 a 37.777,37.777 0 0 0 -75.553,0 V 71.9 A 46.982,46.982 0 0 0 28.11,94.762 1.7500893,1.7500893 0 1 0 31.179,93.079 43.518,43.518 0 0 1 25.941,71.9 Z"
         id="path10830"
         inkscape:connector-curvature="0" />
      <path
         d="M 104.913,103.481 C 100.387,94.7 97.994,83.775 97.994,71.9 v -1.37 a 1.75,1.75 0 0 0 -3.5,0 v 1.37 c 0,12.428 2.527,23.9 7.307,33.18 a 2.2,2.2 0 0 1 -0.273,2.45 2.276,2.276 0 0 1 -2.43,0.752 l -2.248,-0.659 a 5.831,5.831 0 0 0 -6.889,3.13 l -2.606,5.647 a 2.292,2.292 0 0 1 -3.141,1.072 L 79.76,115.15 a 5.793,5.793 0 0 0 -8.1,3.1 2.308,2.308 0 0 1 -2.8,1.4 C 58.286,116.526 49.481,112.145 42.689,106.628 a 49.541,49.541 0 0 1 -6.27,-6.045 1.75,1.75 0 1 0 -2.647,2.289 53.042,53.042 0 0 0 6.711,6.474 c 7.151,5.809 16.366,10.405 27.386,13.661 a 5.754,5.754 0 0 0 1.627,0.236 5.824,5.824 0 0 0 5.444,-3.767 2.292,2.292 0 0 1 3.207,-1.229 l 4.454,2.324 a 5.793,5.793 0 0 0 7.938,-2.708 l 2.606,-5.645 a 2.31,2.31 0 0 1 2.726,-1.24 l 2.248,0.66 a 5.736,5.736 0 0 0 6.114,-1.883 5.66,5.66 0 0 0 0.68,-6.274 z"
         id="path10832"
         inkscape:connector-curvature="0" />
      <path
         d="M 34.229,85.372 A 38.99,38.99 0 0 1 31.941,71.9 a 1.75,1.75 0 0 0 -3.5,0 42.522,42.522 0 0 0 2.5,14.674 1.75,1.75 0 0 0 3.287,-1.2 z"
         id="path10834"
         inkscape:connector-curvature="0" />
      <path
         d="m 38.028,45.964 c 0,5.654 3.405,10.083 7.75,10.083 4.345,0 7.75,-4.429 7.75,-10.083 0,-5.654 -3.4,-10.083 -7.75,-10.083 -4.35,0 -7.75,4.429 -7.75,10.083 z m 12,0 c 0,3.569 -1.946,6.583 -4.25,6.583 -2.304,0 -4.25,-3.014 -4.25,-6.583 0,-3.569 1.947,-6.583 4.25,-6.583 2.303,0 4.25,3.019 4.25,6.583 z"
         id="path10836"
         inkscape:connector-curvature="0" />
      <path
         d="m 66.831,45.964 c 0,5.654 3.4,10.083 7.75,10.083 4.35,0 7.75,-4.429 7.75,-10.083 0,-5.654 -3.4,-10.083 -7.75,-10.083 -4.35,0 -7.75,4.429 -7.75,10.083 z m 12,0 c 0,3.569 -1.946,6.583 -4.25,6.583 -2.304,0 -4.25,-3.014 -4.25,-6.583 0,-3.569 1.946,-6.583 4.25,-6.583 2.304,0 4.25,3.019 4.25,6.583 z"
         id="path10838"
         inkscape:connector-curvature="0" />
    </g>
  </g>
</svg>
