<?xml version="1.0" encoding="UTF-8" standalone="no"?>
<!-- Generator: Adobe Illustrator 19.0.0, SVG Export Plug-In . SVG Version: 6.00 Build 0)  -->

<svg
   xmlns:dc="http://purl.org/dc/elements/1.1/"
   xmlns:cc="http://creativecommons.org/ns#"
   xmlns:rdf="http://www.w3.org/1999/02/22-rdf-syntax-ns#"
   xmlns:svg="http://www.w3.org/2000/svg"
   xmlns="http://www.w3.org/2000/svg"
   xmlns:sodipodi="http://sodipodi.sourceforge.net/DTD/sodipodi-0.dtd"
   xmlns:inkscape="http://www.inkscape.org/namespaces/inkscape"
   version="1.1"
   id="Capa_1"
   x="0px"
   y="0px"
   viewBox="0 0 512.03137 512.03137"
   xml:space="preserve"
   sodipodi:docname="grass_ns.svg"
   width="16.00098"
   height="16.00098"
   inkscape:version="0.92.3 (2405546, 2018-03-11)"><metadata
   id="metadata1952"><rdf:RDF><cc:Work
       rdf:about=""><dc:format>image/svg+xml</dc:format><dc:type
         rdf:resource="http://purl.org/dc/dcmitype/StillImage" /><dc:title></dc:title></cc:Work></rdf:RDF></metadata><defs
   id="defs1950" /><sodipodi:namedview
   pagecolor="#ffffff"
   bordercolor="#666666"
   borderopacity="1"
   objecttolerance="10"
   gridtolerance="10"
   guidetolerance="10"
   inkscape:pageopacity="0"
   inkscape:pageshadow="2"
   inkscape:window-width="1920"
   inkscape:window-height="1017"
   id="namedview1948"
   showgrid="false"
   inkscape:zoom="7.3749859"
   inkscape:cx="26.906831"
   inkscape:cy="29.46415"
   inkscape:window-x="0"
   inkscape:window-y="30"
   inkscape:window-maximized="1"
   inkscape:current-layer="Capa_1" />
<path
   style="fill:#9cd38c"
   d="m 370.38998,375.07905 c -37.912,-127.175 2.566,-252.047 2.566,-252.047 0,0 -44.037,33.624 -80.966,106.871 -21.509,42.662 -20.816,98.564 -14.561,145.175 z"
   id="path1881"
   inkscape:connector-curvature="0" />
<path
   style="fill:#80c56e"
   d="m 370.38998,375.07905 c -37.912,-127.175 2.566,-252.047 2.566,-252.047 0,0 -83.048,121.001 -62.108,252.047 z"
   id="path1883"
   inkscape:connector-curvature="0" />
<path
   style="fill:#66ad66"
   d="m 227.93798,375.07905 h 73.483 c 3.524,-18.047 6.243,-45.852 5.856,-87.777 -0.654,-70.872 -42.598,-187.800005 -42.598,-187.800005 0,0 -41.944,116.928005 -42.598,187.800005 -0.386,41.925 2.333,69.73 5.857,87.777 z"
   id="path1885"
   inkscape:connector-curvature="0" />
<path
   style="fill:#5e9e5e"
   d="m 261.67898,375.07905 h 39.741 c 3.524,-18.047 6.243,-45.852 5.856,-87.777 -0.653,-70.872 -42.597,-187.800005 -42.597,-187.800005 z"
   id="path1887"
   inkscape:connector-curvature="0" />
<path
   style="fill:#9cd38c"
   d="m 444.87498,375.07905 c -5.695,-76.99 68.305,-131.046 68.305,-131.046 0,0 -66.034,7.499 -109.038,44.615 -31.69,27.35 -41.059,72.502 -43.281,86.431 z"
   id="path1889"
   inkscape:connector-curvature="0" />
<path
   style="fill:#80c56e"
   d="m 444.87498,375.07905 c -5.695,-76.99 68.305,-131.046 68.305,-131.046 0,0 -95.5,29.296 -108,131.046 z"
   id="path1891"
   inkscape:connector-curvature="0" />
<path
   style="fill:#66ad66"
   d="m 371.23998,225.68705 c -48.366,33.554 -74.958,104.752 -87.745,149.392 h 91.159 c 12.783,-130.493 117.346,-203.499 117.346,-203.499 0,0 -55.69,8.965 -120.76,54.107 z"
   id="path1893"
   inkscape:connector-curvature="0" />
<path
   style="fill:#5e9e5e"
   d="m 321.17898,375.07905 h 53.475 c 12.783,-130.493 117.346,-203.499 117.346,-203.499 0,0 -135.278,49.21 -170.821,203.499 z"
   id="path1895"
   inkscape:connector-curvature="0" />
<path
   style="fill:#9cd38c"
   d="m 158.96898,375.07905 c 37.912,-127.175 -2.566,-252.047 -2.566,-252.047 0,0 44.037,33.624 80.966,106.871 21.509,42.662 20.816,98.564 14.561,145.175 z"
   id="path1897"
   inkscape:connector-curvature="0" />
<path
   style="fill:#80c56e"
   d="m 203.67898,375.07905 c 37.912,-127.175 -47.276,-252.047 -47.276,-252.047 0,0 44.037,33.624 80.966,106.871 21.509,42.662 20.816,98.564 14.561,145.175 z"
   id="path1899"
   inkscape:connector-curvature="0" />
<path
   style="fill:#9cd38c"
   d="m 84.483983,375.07905 c 5.695,-76.99 -68.305,-131.046 -68.305,-131.046 0,0 66.034,7.499 109.037997,44.615 31.69,27.35 41.059,72.502 43.281,86.431 z"
   id="path1901"
   inkscape:connector-curvature="0" />
<path
   style="fill:#80c56e"
   d="m 120.17898,375.07905 c 0,-93.602 -103.999997,-131.046 -103.999997,-131.046 0,0 66.034,7.499 109.037997,44.615 31.69,27.35 41.059,72.502 43.281,86.431 z"
   id="path1903"
   inkscape:connector-curvature="0" />
<path
   style="fill:#66ad66"
   d="m 158.11798,225.68705 c 48.366,33.554 74.958,104.752 87.745,149.392 h -91.159 c -12.782,-130.493 -117.344997,-203.499 -117.344997,-203.499 0,0 55.689,8.965 120.758997,54.107 z"
   id="path1905"
   inkscape:connector-curvature="0" />
<path
   style="fill:#5e9e5e"
   d="m 158.11798,225.68705 c 48.366,33.554 74.958,104.752 87.745,149.392 h -54.85 c -10,-149.455 -153.653997,-203.499 -153.653997,-203.499 0,0 55.689,8.965 120.758997,54.107 z"
   id="path1907"
   inkscape:connector-curvature="0" />
<path
   style="fill:#80c56e"
   d="m 260.75198,334.79605 c -9.603,12.498 -16.424,26.5 -21.3,40.283 h 71.396 c 6.317,-57.065 45.874,-93.602 45.874,-93.602 0,0 -57.485,3.235 -95.97,53.319 z"
   id="path1909"
   inkscape:connector-curvature="0" />
<path
   style="fill:#9cd38c"
   d="m 268.60698,334.79605 c 9.603,12.498 16.424,26.5 21.3,40.283 h -71.396 c -6.317,-57.065 -45.874,-93.602 -45.874,-93.602 0,0 57.485,3.235 95.97,53.319 z"
   id="path1911"
   inkscape:connector-curvature="0" />
<path
   style="fill:#80c56e"
   d="m 268.60698,334.79605 c 9.603,12.498 16.424,26.5 21.3,40.283 h -37.977 c -6.317,-57.065 -79.293,-93.602 -79.293,-93.602 0,0 57.485,3.235 95.97,53.319 z"
   id="path1913"
   inkscape:connector-curvature="0" />
<path
   d="m 510.22598,382.57905 c 4.142,0 7.5,-3.357 7.5,-7.5 0,-4.143 -3.358,-7.5 -7.5,-7.5 h -58.149 c -0.046,-5.378 0.3,-10.786 1.056,-16.153 0.578,-4.102 -2.279,-7.895 -6.38,-8.473 -4.106,-0.581 -7.896,2.279 -8.473,6.381 -0.854,6.058 -1.258,12.168 -1.212,18.245 h -53.991 c 0.42,-3.203 0.884,-6.375 1.415,-9.501 0.032,-0.19 0.066,-0.381 0.098,-0.571 3.395,-19.729 8.918,-37.905 15.613,-54.395 2.821,-3.201 5.788,-6.155 8.838,-8.787 24.164,-20.855 56.431,-32.022 78.788,-37.669 -9.676,9.903 -21.12,23.467 -30.723,40.031 -2.077,3.584 -0.856,8.173 2.728,10.25 3.582,2.076 8.172,0.856 10.25,-2.727 19.216,-33.149 47.244,-53.919 47.519,-54.121 2.748,-2.008 3.8,-5.612 2.563,-8.782 -1.237,-3.17 -4.456,-5.116 -7.833,-4.727 -2.456,0.279 -53.917,6.423 -96.387,33.928 9.069,-16.12 18.788,-29.877 27.709,-41.029 26.768,-33.46 52.387,-51.575 52.638,-51.751 2.868,-2.002 3.971,-5.721 2.659,-8.963 -1.312,-3.242 -4.691,-5.144 -8.144,-4.591 -2.343,0.377 -58.128,9.76 -123.843,55.35 -1.325,0.919 -2.641,1.871 -3.949,2.854 4.203,-56.658 16.934,-96.601 17.074,-97.034 1.012,-3.121 -0.123,-6.538 -2.801,-8.434 -2.679,-1.897 -6.278,-1.833 -8.886,0.161 -1.504,1.148 -34.125,26.437 -66.962,80.376 -12.234,-51.466 -28.617,-97.455005 -29.702,-100.479005 -1.069,-2.98 -3.894,-4.968 -7.06,-4.968 -3.166,0 -5.991,1.988 -7.06,4.968 -0.19,0.531 -17.158,48.067005 -29.659,100.519005 -32.786,-53.901 -65.415,-79.201 -67.007,-80.417 -2.606,-1.992 -6.205,-2.055 -8.882,-0.16 -2.678,1.894 -3.813,5.31 -2.804,8.431 0.141,0.437 12.872,40.379 17.075,97.037 -1.308,-0.983 -2.625,-1.935 -3.95,-2.854 -65.713997,-45.59 -121.499997,-54.973 -123.841997,-55.35 -3.453,-0.556 -6.832,1.349 -8.144,4.591 -1.312,3.242 -0.209,6.961 2.659,8.963 0.252,0.177 25.568,18.021 52.323,51.359 9.025,11.246 18.860997,25.134 28.025997,41.423 -42.469997,-27.507 -93.932997,-33.651 -96.388997,-33.93 -3.374,-0.376 -6.596,1.556 -7.8330004,4.727 -1.237,3.17 -0.185,6.774 2.5630004,8.782 0.28,0.204 28.227,20.841 47.519,54.119 2.078,3.584 6.667,4.806 10.25,2.727 3.583,-2.077 4.804,-6.666 2.727,-10.25 -9.61,-16.577 -21.063,-30.147 -30.744,-40.053 22.338,5.632 54.592,16.791 78.809997,37.692 3.052,2.634 6.021,5.59 8.844,8.792 6.687,16.472 12.201,34.623 15.596,54.318 0.035,0.203 0.07,0.406 0.105,0.609 0.533,3.137 0.999,6.32 1.421,9.534 H 92.290983 c 0.046,-6.078 -0.359,-12.188 -1.212,-18.245 -0.578,-4.102 -4.366,-6.958 -8.473,-6.381 -4.102,0.578 -6.958,4.371 -6.38,8.473 0.756,5.366 1.103,10.775 1.056,16.153 h -58.149 c -4.142,0 -7.5,3.357 -7.5,7.5 0,4.143 3.358,7.5 7.5,7.5 H 510.22598 m -151.086,-236.487 c -4.649,20.537 -10.295,52.203 -11.973,90.151 -1.023,1.028 -2.038,2.086 -3.05,3.158 -0.21,0.222 -0.42,0.445 -0.629,0.669 -1.061,1.136 -2.115,2.293 -3.163,3.477 -0.204,0.23 -0.406,0.465 -0.61,0.697 -1.006,1.148 -2.007,2.313 -3,3.505 -0.138,0.166 -0.277,0.331 -0.415,0.497 -0.968,1.169 -1.929,2.365 -2.885,3.576 -0.272,0.344 -0.544,0.686 -0.815,1.034 -0.934,1.199 -1.863,2.419 -2.785,3.657 -0.305,0.409 -0.608,0.822 -0.911,1.235 -0.92,1.253 -1.836,2.519 -2.744,3.811 -0.242,0.344 -0.481,0.696 -0.721,1.042 -0.794,1.143 -1.583,2.301 -2.367,3.474 -0.241,0.361 -0.484,0.717 -0.725,1.081 -0.908,1.374 -1.807,2.773 -2.702,4.187 -0.257,0.407 -0.515,0.814 -0.771,1.225 -0.908,1.453 -1.81,2.924 -2.704,4.418 -0.192,0.321 -0.383,0.646 -0.574,0.969 -0.343,0.579 -0.689,1.154 -1.03,1.739 -0.012,-0.273 -0.03,-0.555 -0.043,-0.829 -0.893,-18.443 -4.056,-39.152 -8.293,-59.824 17.964,-32.335 37.815,-57.075 52.91,-72.949 z m -94.463,-23.102 c 8.881,27.398 23.835,77.167 31.017,121.877 0.091,0.565 0.179,1.126 0.266,1.686 0.137,0.876 0.271,1.749 0.402,2.62 0.129,0.857 0.255,1.711 0.376,2.556 0.063,0.441 0.127,0.882 0.188,1.322 0.169,1.203 0.332,2.398 0.486,3.576 0.027,0.206 0.052,0.411 0.079,0.617 0.147,1.139 0.286,2.267 0.419,3.384 0.024,0.198 0.048,0.397 0.071,0.595 0.149,1.273 0.289,2.532 0.42,3.775 0.012,0.112 0.023,0.224 0.034,0.336 0.124,1.196 0.24,2.377 0.347,3.544 0.01,0.109 0.021,0.219 0.031,0.328 0.112,1.238 0.215,2.46 0.308,3.666 0.008,0.109 0.016,0.216 0.024,0.324 0.082,1.086 0.156,2.158 0.222,3.217 0.011,0.172 0.022,0.345 0.033,0.517 0.069,1.139 0.129,2.263 0.18,3.371 0.006,0.128 0.01,0.255 0.016,0.383 0.042,0.951 0.075,1.888 0.103,2.815 0.008,0.264 0.016,0.529 0.023,0.792 0.027,1.041 0.048,2.072 0.057,3.083 0.013,1.467 0.022,2.912 0.028,4.342 -11.672,6.413 -23.841,15.127 -35.12,26.977 -0.488,-0.513 -0.979,-1.018 -1.47,-1.52 -0.009,-0.646 -0.033,-1.277 -0.046,-1.919 -0.021,-1.095 -0.046,-2.187 -0.078,-3.272 -0.035,-1.163 -0.079,-2.318 -0.127,-3.47 -0.044,-1.068 -0.091,-2.135 -0.146,-3.193 -0.06,-1.146 -0.13,-2.282 -0.203,-3.417 -0.067,-1.041 -0.135,-2.08 -0.213,-3.11 -0.085,-1.13 -0.182,-2.25 -0.281,-3.368 -0.089,-1.013 -0.178,-2.026 -0.278,-3.029 -0.111,-1.112 -0.234,-2.211 -0.358,-3.31 -0.111,-0.987 -0.222,-1.975 -0.344,-2.952 -0.137,-1.093 -0.287,-2.173 -0.436,-3.253 -0.133,-0.96 -0.264,-1.922 -0.408,-2.872 -0.163,-1.075 -0.34,-2.136 -0.516,-3.198 -0.155,-0.932 -0.306,-1.868 -0.471,-2.791 -0.189,-1.056 -0.393,-2.096 -0.595,-3.138 -0.176,-0.906 -0.348,-1.817 -0.534,-2.713 -0.215,-1.035 -0.447,-2.054 -0.675,-3.076 -0.197,-0.88 -0.388,-1.765 -0.595,-2.634 -0.243,-1.019 -0.503,-2.02 -0.759,-3.025 -0.216,-0.848 -0.426,-1.703 -0.653,-2.541 -0.272,-1.008 -0.563,-1.997 -0.849,-2.991 -0.234,-0.812 -0.46,-1.631 -0.704,-2.433 -0.304,-1.002 -0.628,-1.983 -0.947,-2.97 -0.249,-0.77 -0.489,-1.549 -0.747,-2.309 -0.341,-1.005 -0.703,-1.988 -1.059,-2.977 -0.259,-0.719 -0.509,-1.448 -0.776,-2.159 -0.39,-1.034 -0.802,-2.045 -1.209,-3.061 -0.257,-0.64 -0.502,-1.292 -0.766,-1.925 -0.482,-1.157 -0.988,-2.288 -1.493,-3.42 -0.21,-0.47 -0.407,-0.951 -0.621,-1.417 -0.73,-1.591 -1.483,-3.159 -2.26,-4.7 0,-0.001 0,-0.001 0,-0.001 -0.029,-0.057 -0.06,-0.115 -0.089,-0.173 -0.745,-1.475 -1.492,-2.929 -2.242,-4.373 -0.118,-0.228 -0.236,-0.454 -0.355,-0.681 -0.8,-1.534 -1.602,-3.055 -2.407,-4.554 7.745,-36.125 18.639,-71.994 25.7,-93.758 z m -40.21,98.477 c 0.005,0.009 0.009,0.019 0.014,0.028 1.005,1.84 1.995,3.693 2.971,5.545 0.132,0.251 0.264,0.503 0.396,0.755 0.961,1.834 1.907,3.668 2.825,5.488 v -0.001 c 0.668,1.325 1.312,2.676 1.943,4.044 0.2,0.434 0.391,0.879 0.588,1.317 0.425,0.95 0.845,1.907 1.252,2.878 0.218,0.518 0.43,1.042 0.642,1.567 0.376,0.928 0.745,1.866 1.105,2.812 0.203,0.533 0.406,1.067 0.604,1.607 0.37,1.008 0.728,2.03 1.081,3.058 0.164,0.479 0.333,0.953 0.494,1.437 0.483,1.457 0.952,2.93 1.399,4.425 0.017,0.056 0.035,0.109 0.052,0.165 0.464,1.557 0.906,3.138 1.332,4.737 0.131,0.49 0.253,0.99 0.38,1.484 0.288,1.121 0.571,2.248 0.841,3.389 0.141,0.597 0.277,1.2 0.413,1.802 0.243,1.074 0.477,2.156 0.704,3.247 0.129,0.621 0.257,1.243 0.381,1.87 0.226,1.145 0.44,2.303 0.649,3.467 0.102,0.567 0.208,1.13 0.305,1.701 0.267,1.567 0.519,3.151 0.755,4.751 0.025,0.169 0.054,0.334 0.079,0.503 0.256,1.768 0.49,3.56 0.708,5.368 0.068,0.566 0.127,1.142 0.192,1.712 0.143,1.261 0.28,2.527 0.405,3.807 0.067,0.69 0.128,1.385 0.19,2.08 0.106,1.197 0.205,2.401 0.296,3.613 0.053,0.717 0.106,1.434 0.154,2.156 0.026,0.394 0.045,0.795 0.069,1.19 -9.859,-7.501 -19.866,-13.103 -29.219,-17.283 -0.536,-0.976 -1.077,-1.94 -1.619,-2.901 -0.101,-0.179 -0.201,-0.363 -0.302,-0.542 -0.917,-1.618 -1.844,-3.208 -2.777,-4.782 -0.269,-0.454 -0.539,-0.904 -0.809,-1.354 -0.81,-1.349 -1.625,-2.683 -2.447,-3.998 -0.194,-0.311 -0.387,-0.625 -0.582,-0.934 -0.873,-1.384 -1.754,-2.744 -2.64,-4.09 -0.339,-0.515 -0.679,-1.027 -1.02,-1.537 -0.798,-1.193 -1.6,-2.372 -2.408,-3.534 -0.321,-0.462 -0.643,-0.92 -0.966,-1.377 -0.791,-1.121 -1.588,-2.226 -2.388,-3.318 -0.356,-0.485 -0.713,-0.969 -1.07,-1.448 -0.93,-1.246 -1.865,-2.479 -2.807,-3.686 -0.222,-0.284 -0.446,-0.56 -0.668,-0.841 -0.852,-1.078 -1.708,-2.139 -2.57,-3.185 -0.311,-0.378 -0.622,-0.755 -0.935,-1.129 -1.026,-1.227 -2.056,-2.436 -3.095,-3.616 -0.15,-0.17 -0.301,-0.334 -0.451,-0.503 -0.958,-1.08 -1.921,-2.137 -2.89,-3.176 -0.256,-0.275 -0.512,-0.551 -0.769,-0.823 -1.015,-1.075 -2.034,-2.137 -3.06,-3.168 -1.674,-37.871 -7.301,-69.482 -11.944,-90.022 14.271,14.925 34.826,39.755 54.217,75.245 z m -63.048,146.114 c -0.046,-0.37 -0.102,-0.733 -0.149,-1.101 -0.173,-1.354 -0.356,-2.707 -0.549,-4.058 -0.079,-0.552 -0.158,-1.105 -0.24,-1.655 -0.242,-1.62 -0.499,-3.238 -0.77,-4.854 -0.037,-0.219 -0.07,-0.44 -0.108,-0.658 -3.408,-19.998 -9.059,-39.705 -16.885,-58.8 -0.115,-0.282 -0.263,-0.548 -0.412,-0.813 -13.101,-31.65 -30.227,-57.26 -45.217997,-75.939 -10.338,-12.881 -20.427,-23.528 -29.103,-31.879 21.788,7.56 52.656997,20.994 85.858997,44.028 5.498,3.814 10.855,8.275 16.065,13.347 0.57,0.555 1.138,1.119 1.704,1.689 0.291,0.293 0.582,0.587 0.872,0.884 0.563,0.576 1.125,1.159 1.685,1.75 0.275,0.291 0.55,0.585 0.825,0.879 0.579,0.621 1.156,1.247 1.731,1.883 0.235,0.26 0.469,0.524 0.703,0.787 0.612,0.686 1.223,1.377 1.83,2.081 0.167,0.193 0.332,0.391 0.498,0.585 0.672,0.786 1.343,1.578 2.01,2.387 0.028,0.034 0.056,0.07 0.084,0.104 3.826,4.649 7.56,9.666 11.194,15.03 0.137,0.203 0.276,0.402 0.413,0.606 0.563,0.837 1.121,1.687 1.679,2.541 0.23,0.352 0.461,0.702 0.69,1.057 0.17,0.263 0.338,0.533 0.507,0.797 -13.103,-3.592 -22.219,-4.207 -23.254,-4.266 -0.004,0 -0.017,-10e-4 -0.021,-10e-4 h -0.001 v 0 c -1.335,-0.074 -2.621,0.228 -3.766,0.801 -1.227,0.613 -2.288,1.541 -3.028,2.735 -0.201,0.324 -0.38,0.666 -0.533,1.025 -1.081,2.55 -0.659,5.453 1.02,7.578 0.24,0.304 0.506,0.591 0.796,0.86 0.011,0.01 0.06,0.056 0.132,0.125 0.026,0.025 0.074,0.072 0.107,0.103 0.064,0.061 0.128,0.123 0.218,0.21 0.056,0.054 0.134,0.132 0.199,0.197 0.097,0.096 0.193,0.19 0.311,0.308 0.079,0.079 0.178,0.179 0.266,0.269 0.132,0.134 0.265,0.267 0.417,0.423 0.105,0.107 0.225,0.233 0.339,0.35 0.161,0.166 0.323,0.335 0.501,0.521 0.127,0.133 0.267,0.283 0.403,0.426 0.19,0.202 0.384,0.408 0.59,0.63 0.146,0.157 0.302,0.328 0.456,0.495 0.218,0.238 0.441,0.481 0.674,0.739 0.164,0.182 0.336,0.375 0.508,0.566 0.241,0.27 0.487,0.547 0.741,0.836 0.184,0.21 0.374,0.428 0.565,0.648 0.262,0.302 0.529,0.613 0.803,0.933 0.198,0.233 0.4,0.471 0.604,0.714 0.283,0.336 0.572,0.683 0.865,1.037 0.211,0.255 0.424,0.514 0.64,0.779 0.303,0.372 0.613,0.757 0.926,1.148 0.219,0.273 0.438,0.548 0.661,0.83 0.323,0.409 0.652,0.833 0.983,1.262 0.226,0.292 0.452,0.583 0.681,0.885 0.341,0.447 0.687,0.91 1.035,1.376 0.229,0.307 0.457,0.61 0.688,0.925 0.362,0.492 0.729,1.003 1.097,1.515 0.226,0.314 0.449,0.622 0.677,0.944 0.386,0.546 0.778,1.114 1.169,1.681 0.214,0.311 0.427,0.614 0.643,0.931 0.425,0.626 0.854,1.275 1.283,1.925 0.185,0.281 0.369,0.552 0.555,0.838 0.51,0.784 1.022,1.592 1.534,2.409 0.106,0.17 0.212,0.331 0.318,0.502 1.25,2.011 2.502,4.121 3.741,6.327 0.118,0.21 0.234,0.43 0.352,0.642 0.493,0.886 0.984,1.78 1.471,2.696 0.189,0.355 0.374,0.724 0.562,1.084 0.412,0.79 0.824,1.581 1.23,2.392 0.215,0.43 0.426,0.873 0.639,1.309 0.372,0.761 0.745,1.523 1.11,2.302 0.226,0.482 0.447,0.977 0.671,1.466 0.344,0.753 0.687,1.506 1.023,2.275 0.23,0.525 0.454,1.062 0.68,1.594 0.319,0.753 0.637,1.509 0.948,2.277 0.227,0.561 0.448,1.13 0.67,1.698 0.298,0.762 0.593,1.526 0.881,2.302 0.22,0.591 0.434,1.189 0.648,1.788 0.276,0.773 0.548,1.55 0.814,2.335 0.209,0.619 0.414,1.243 0.616,1.87 0.254,0.787 0.504,1.581 0.747,2.38 0.195,0.642 0.386,1.287 0.574,1.937 0.232,0.805 0.457,1.617 0.677,2.433 0.179,0.664 0.355,1.33 0.525,2.001 0.208,0.822 0.407,1.651 0.602,2.484 0.16,0.684 0.319,1.369 0.47,2.061 0.183,0.841 0.354,1.692 0.523,2.545 0.139,0.701 0.278,1.402 0.407,2.111 0.048,0.264 0.088,0.533 0.134,0.798 h -48.432 z m 63.655,0 c -0.001,-0.008 -0.003,-0.016 -0.004,-0.025 -0.045,-0.286 -0.096,-0.566 -0.142,-0.851 -0.128,-0.785 -0.256,-1.569 -0.395,-2.345 -0.077,-0.432 -0.162,-0.857 -0.242,-1.286 -0.117,-0.621 -0.232,-1.244 -0.355,-1.859 -0.094,-0.471 -0.196,-0.937 -0.294,-1.405 -0.119,-0.566 -0.237,-1.133 -0.362,-1.694 -0.107,-0.483 -0.22,-0.961 -0.332,-1.441 -0.125,-0.539 -0.25,-1.078 -0.38,-1.612 -0.118,-0.486 -0.242,-0.968 -0.364,-1.45 -0.132,-0.519 -0.264,-1.038 -0.4,-1.553 -0.129,-0.486 -0.261,-0.968 -0.394,-1.451 -0.138,-0.501 -0.277,-1.002 -0.419,-1.499 -0.139,-0.486 -0.281,-0.97 -0.424,-1.452 -0.144,-0.484 -0.289,-0.967 -0.436,-1.448 -0.148,-0.483 -0.298,-0.964 -0.45,-1.442 -0.15,-0.472 -0.301,-0.941 -0.454,-1.408 -0.157,-0.48 -0.316,-0.959 -0.477,-1.434 -0.154,-0.454 -0.31,-0.905 -0.466,-1.355 -0.167,-0.479 -0.334,-0.957 -0.504,-1.432 -0.158,-0.439 -0.318,-0.874 -0.478,-1.31 -0.175,-0.475 -0.35,-0.951 -0.528,-1.421 -0.161,-0.425 -0.325,-0.846 -0.489,-1.267 -0.183,-0.471 -0.365,-0.943 -0.551,-1.409 -0.163,-0.409 -0.33,-0.813 -0.495,-1.218 -0.192,-0.47 -0.383,-0.942 -0.578,-1.407 -0.159,-0.379 -0.321,-0.753 -0.482,-1.129 -0.206,-0.482 -0.411,-0.967 -0.62,-1.444 -0.137,-0.312 -0.276,-0.617 -0.414,-0.926 -0.842,-1.889 -1.705,-3.732 -2.585,-5.529 -0.131,-0.268 -0.261,-0.54 -0.393,-0.805 -0.236,-0.476 -0.475,-0.943 -0.713,-1.412 -0.159,-0.313 -0.317,-0.629 -0.477,-0.94 -0.231,-0.449 -0.465,-0.891 -0.698,-1.334 -0.168,-0.32 -0.336,-0.641 -0.504,-0.957 -0.231,-0.433 -0.463,-0.858 -0.696,-1.285 -0.173,-0.318 -0.346,-0.637 -0.52,-0.951 -0.23,-0.416 -0.46,-0.826 -0.691,-1.235 -0.179,-0.317 -0.357,-0.635 -0.537,-0.949 -0.228,-0.398 -0.456,-0.792 -0.684,-1.185 -0.183,-0.314 -0.366,-0.628 -0.549,-0.939 -0.227,-0.385 -0.455,-0.767 -0.682,-1.146 -0.185,-0.308 -0.369,-0.614 -0.554,-0.917 -0.227,-0.373 -0.453,-0.742 -0.68,-1.109 -0.188,-0.303 -0.375,-0.604 -0.563,-0.903 -0.223,-0.356 -0.446,-0.71 -0.668,-1.06 -0.19,-0.299 -0.381,-0.595 -0.571,-0.89 -0.221,-0.343 -0.442,-0.685 -0.662,-1.022 -0.191,-0.292 -0.382,-0.58 -0.573,-0.868 -0.218,-0.329 -0.435,-0.658 -0.653,-0.981 -0.195,-0.29 -0.388,-0.574 -0.582,-0.859 -0.211,-0.31 -0.422,-0.622 -0.632,-0.926 -0.202,-0.293 -0.402,-0.578 -0.603,-0.866 -0.202,-0.289 -0.404,-0.581 -0.605,-0.865 -0.212,-0.3 -0.422,-0.592 -0.633,-0.887 -0.186,-0.259 -0.372,-0.523 -0.557,-0.777 -0.255,-0.352 -0.507,-0.695 -0.76,-1.038 -0.139,-0.189 -0.279,-0.383 -0.417,-0.569 -0.378,-0.51 -0.752,-1.009 -1.124,-1.499 16.69,4.671 40.806,14.742 61.297,36.217 0.127,0.134 0.255,0.266 0.382,0.4 0.522,0.552 1.041,1.117 1.558,1.684 0.237,0.261 0.477,0.52 0.712,0.782 0.415,0.463 0.826,0.936 1.237,1.409 0.31,0.357 0.623,0.712 0.928,1.071 0.37,0.435 0.736,0.88 1.103,1.323 0.316,0.382 0.636,0.763 0.945,1.145 0.644,0.798 1.285,1.605 1.918,2.43 0.015,0.02 0.029,0.04 0.044,0.06 0.909,1.184 1.795,2.403 2.669,3.641 0.272,0.385 0.537,0.778 0.806,1.168 0.633,0.921 1.258,1.855 1.872,2.805 0.272,0.42 0.544,0.839 0.812,1.265 0.703,1.115 1.392,2.25 2.069,3.402 0.135,0.231 0.276,0.454 0.41,0.686 0.801,1.384 1.581,2.798 2.344,4.234 0.208,0.392 0.41,0.793 0.615,1.189 0.56,1.079 1.111,2.172 1.651,3.279 0.236,0.484 0.47,0.97 0.701,1.459 0.544,1.149 1.075,2.315 1.596,3.494 0.17,0.385 0.345,0.763 0.513,1.151 0.054,0.125 0.104,0.256 0.158,0.382 z m 93.423,-44.876 c -0.151,0.311 -0.303,0.617 -0.453,0.931 -0.381,0.798 -0.759,1.606 -1.132,2.422 -0.144,0.315 -0.285,0.637 -0.428,0.954 -0.234,0.519 -0.468,1.036 -0.699,1.562 -0.164,0.374 -0.324,0.754 -0.486,1.131 -0.206,0.479 -0.413,0.956 -0.615,1.441 -0.166,0.397 -0.329,0.801 -0.494,1.202 -0.194,0.473 -0.388,0.945 -0.579,1.423 -0.165,0.414 -0.326,0.833 -0.489,1.25 -0.185,0.475 -0.37,0.949 -0.551,1.428 -0.162,0.429 -0.321,0.861 -0.481,1.294 -0.176,0.476 -0.351,0.952 -0.523,1.433 -0.158,0.442 -0.314,0.887 -0.469,1.333 -0.168,0.483 -0.336,0.968 -0.501,1.456 -0.151,0.448 -0.3,0.898 -0.448,1.35 -0.162,0.494 -0.322,0.99 -0.48,1.488 -0.145,0.456 -0.288,0.914 -0.429,1.374 -0.155,0.503 -0.306,1.009 -0.457,1.516 -0.137,0.463 -0.273,0.926 -0.407,1.392 -0.148,0.516 -0.292,1.035 -0.435,1.556 -0.128,0.466 -0.256,0.932 -0.381,1.402 -0.141,0.53 -0.276,1.064 -0.412,1.599 -0.119,0.469 -0.239,0.936 -0.354,1.408 -0.134,0.548 -0.261,1.101 -0.39,1.653 -0.108,0.467 -0.219,0.933 -0.323,1.403 -0.128,0.574 -0.248,1.155 -0.37,1.734 -0.096,0.455 -0.194,0.908 -0.286,1.367 -0.125,0.624 -0.242,1.254 -0.36,1.884 -0.079,0.423 -0.163,0.843 -0.239,1.268 -0.139,0.776 -0.267,1.559 -0.394,2.343 -0.046,0.285 -0.098,0.567 -0.143,0.853 -10e-4,0.008 -0.003,0.017 -0.004,0.025 h -9.157 c -0.067,-0.174 -0.141,-0.342 -0.209,-0.515 -0.275,-0.703 -0.563,-1.39 -0.845,-2.085 -0.469,-1.158 -0.94,-2.314 -1.429,-3.449 -0.319,-0.741 -0.649,-1.469 -0.976,-2.2 -0.477,-1.067 -0.959,-2.127 -1.454,-3.173 -0.349,-0.737 -0.704,-1.465 -1.062,-2.191 -0.5,-1.017 -1.008,-2.024 -1.525,-3.02 -0.37,-0.714 -0.744,-1.424 -1.123,-2.127 -0.532,-0.988 -1.076,-1.961 -1.625,-2.928 -0.384,-0.675 -0.766,-1.352 -1.158,-2.016 -0.581,-0.986 -1.178,-1.953 -1.777,-2.916 -0.38,-0.61 -0.754,-1.227 -1.141,-1.828 -0.676,-1.049 -1.371,-2.073 -2.068,-3.093 -0.33,-0.483 -0.652,-0.978 -0.987,-1.455 -1.044,-1.484 -2.107,-2.94 -3.196,-4.358 -0.017,-0.023 -0.035,-0.046 -0.053,-0.069 0.035,-0.037 0.068,-0.075 0.103,-0.112 0.4,-0.428 0.803,-0.846 1.205,-1.265 0.264,-0.276 0.527,-0.553 0.794,-0.826 0.5,-0.511 1.002,-1.013 1.506,-1.511 0.154,-0.152 0.307,-0.305 0.462,-0.457 0.6,-0.587 1.202,-1.167 1.807,-1.735 0.021,-0.02 0.042,-0.039 0.063,-0.059 19.317,-18.13 40.98,-27 56.344,-31.294 -0.375,0.495 -0.754,1 -1.136,1.516 -0.08,0.109 -0.162,0.222 -0.243,0.332 -0.31,0.42 -0.621,0.844 -0.935,1.277 -0.148,0.205 -0.299,0.417 -0.448,0.625 -0.249,0.347 -0.498,0.693 -0.749,1.049 -0.169,0.239 -0.34,0.486 -0.51,0.729 -0.233,0.333 -0.466,0.665 -0.7,1.005 -0.18,0.261 -0.361,0.529 -0.542,0.794 -0.227,0.333 -0.454,0.666 -0.682,1.006 -0.186,0.277 -0.373,0.56 -0.56,0.842 -0.223,0.336 -0.445,0.672 -0.669,1.014 -0.19,0.291 -0.381,0.586 -0.572,0.882 -0.223,0.346 -0.446,0.693 -0.67,1.045 -0.191,0.301 -0.382,0.604 -0.573,0.909 -0.221,0.353 -0.443,0.708 -0.664,1.067 -0.194,0.314 -0.388,0.631 -0.582,0.95 -0.22,0.362 -0.44,0.727 -0.661,1.094 -0.194,0.323 -0.388,0.648 -0.581,0.976 -0.219,0.371 -0.438,0.745 -0.656,1.122 -0.195,0.336 -0.39,0.672 -0.585,1.013 -0.216,0.377 -0.43,0.758 -0.645,1.141 -0.196,0.348 -0.391,0.695 -0.586,1.048 -0.216,0.391 -0.431,0.787 -0.646,1.183 -0.19,0.35 -0.381,0.699 -0.57,1.053 -0.22,0.412 -0.439,0.831 -0.658,1.248 -0.184,0.35 -0.368,0.698 -0.55,1.052 -0.224,0.435 -0.446,0.877 -0.669,1.318 -0.175,0.346 -0.35,0.688 -0.524,1.037 -0.241,0.488 -0.481,0.985 -0.721,1.48 z m 68.554,-27.062 c -0.148,0.264 -0.295,0.53 -0.41,0.811 -7.826,19.094 -13.476,38.801 -16.884,58.797 -0.038,0.224 -0.073,0.45 -0.11,0.673 -0.27,1.611 -0.527,3.224 -0.768,4.838 -0.083,0.553 -0.162,1.109 -0.241,1.665 -0.193,1.349 -0.376,2.7 -0.548,4.052 -0.047,0.369 -0.103,0.732 -0.149,1.103 h -48.426 c 0.046,-0.26 0.085,-0.525 0.132,-0.784 0.128,-0.703 0.267,-1.397 0.405,-2.093 0.169,-0.85 0.339,-1.698 0.522,-2.538 0.152,-0.695 0.312,-1.383 0.473,-2.07 0.193,-0.822 0.389,-1.641 0.595,-2.452 0.173,-0.683 0.353,-1.36 0.535,-2.035 0.215,-0.797 0.435,-1.589 0.662,-2.374 0.193,-0.668 0.39,-1.333 0.592,-1.993 0.236,-0.773 0.477,-1.54 0.723,-2.301 0.211,-0.653 0.424,-1.302 0.643,-1.947 0.254,-0.75 0.515,-1.493 0.779,-2.231 0.226,-0.634 0.453,-1.266 0.686,-1.891 0.272,-0.731 0.551,-1.452 0.832,-2.171 0.239,-0.612 0.477,-1.224 0.722,-1.827 0.289,-0.712 0.584,-1.412 0.88,-2.111 0.25,-0.59 0.498,-1.182 0.752,-1.762 0.304,-0.693 0.614,-1.373 0.923,-2.053 0.257,-0.564 0.512,-1.133 0.773,-1.689 0.319,-0.68 0.645,-1.344 0.97,-2.011 0.26,-0.534 0.518,-1.075 0.782,-1.601 0.337,-0.672 0.678,-1.326 1.019,-1.983 0.258,-0.498 0.514,-1.004 0.774,-1.493 0.363,-0.683 0.731,-1.346 1.097,-2.012 0.243,-0.441 0.483,-0.894 0.727,-1.328 0.453,-0.806 0.908,-1.587 1.364,-2.368 0.262,-0.449 0.524,-0.897 0.787,-1.338 0.508,-0.851 1.016,-1.695 1.524,-2.514 0.264,-0.425 0.526,-0.829 0.789,-1.245 0.353,-0.559 0.707,-1.123 1.059,-1.666 0.288,-0.444 0.574,-0.869 0.861,-1.302 0.325,-0.491 0.651,-0.988 0.974,-1.465 0.294,-0.434 0.584,-0.849 0.875,-1.271 0.312,-0.451 0.624,-0.907 0.933,-1.344 0.295,-0.418 0.585,-0.819 0.876,-1.224 0.299,-0.416 0.599,-0.835 0.893,-1.237 0.291,-0.397 0.576,-0.779 0.863,-1.163 0.287,-0.385 0.575,-0.772 0.858,-1.144 0.284,-0.374 0.563,-0.735 0.841,-1.095 0.275,-0.356 0.55,-0.711 0.819,-1.054 0.272,-0.345 0.538,-0.68 0.803,-1.012 0.265,-0.332 0.53,-0.662 0.788,-0.98 0.258,-0.317 0.511,-0.626 0.762,-0.93 0.25,-0.303 0.497,-0.601 0.739,-0.89 0.244,-0.291 0.484,-0.576 0.72,-0.854 0.234,-0.275 0.463,-0.543 0.689,-0.804 0.227,-0.263 0.451,-0.522 0.669,-0.77 0.216,-0.247 0.426,-0.484 0.633,-0.717 0.207,-0.233 0.412,-0.464 0.609,-0.682 0.198,-0.22 0.387,-0.428 0.574,-0.633 0.185,-0.203 0.372,-0.408 0.546,-0.596 0.176,-0.191 0.342,-0.367 0.506,-0.543 0.161,-0.172 0.325,-0.347 0.474,-0.504 0.157,-0.166 0.301,-0.315 0.444,-0.464 0.132,-0.137 0.27,-0.282 0.39,-0.405 0.13,-0.133 0.242,-0.247 0.357,-0.364 0.109,-0.111 0.227,-0.231 0.323,-0.328 0.1,-0.101 0.181,-0.18 0.266,-0.265 0.08,-0.079 0.171,-0.17 0.237,-0.235 0.084,-0.083 0.143,-0.14 0.205,-0.199 0.037,-0.036 0.09,-0.087 0.118,-0.114 0.072,-0.069 0.121,-0.115 0.132,-0.125 2.325,-2.147 3.052,-5.523 1.816,-8.438 -1.234,-2.911 -4.157,-4.731 -7.316,-4.56 -0.003,0 -0.007,0 -0.01,0 v 0 0 c -0.002,0 -0.008,0 -0.01,0.001 -0.964,0.055 -10.105,0.662 -23.271,4.276 0.151,-0.235 0.3,-0.476 0.451,-0.71 0.21,-0.326 0.422,-0.646 0.633,-0.97 0.578,-0.887 1.158,-1.771 1.741,-2.64 0.085,-0.127 0.171,-0.251 0.257,-0.377 3.664,-5.429 7.432,-10.502 11.293,-15.203 0.054,-0.065 0.107,-0.132 0.16,-0.197 0.67,-0.813 1.343,-1.609 2.019,-2.4 0.163,-0.191 0.326,-0.385 0.49,-0.575 0.617,-0.716 1.238,-1.419 1.86,-2.117 0.226,-0.254 0.452,-0.508 0.678,-0.76 0.587,-0.65 1.176,-1.289 1.767,-1.922 0.263,-0.282 0.526,-0.563 0.79,-0.842 0.574,-0.606 1.15,-1.205 1.728,-1.796 0.276,-0.283 0.554,-0.563 0.831,-0.842 0.581,-0.585 1.164,-1.164 1.749,-1.733 5.205,-5.065 10.557,-9.521 16.05,-13.332 33.203,-23.034 64.073,-36.47 85.86,-44.028 -8.677,8.351 -18.766,18.998 -29.104,31.879 -14.995,18.68 -32.123,44.291 -45.224,75.941 z"
   id="path1915"
   inkscape:connector-curvature="0" />
<g
   id="g1917"
   transform="translate(0,-496)">
</g>
<g
   id="g1919"
   transform="translate(0,-496)">
</g>
<g
   id="g1921"
   transform="translate(0,-496)">
</g>
<g
   id="g1923"
   transform="translate(0,-496)">
</g>
<g
   id="g1925"
   transform="translate(0,-496)">
</g>
<g
   id="g1927"
   transform="translate(0,-496)">
</g>
<g
   id="g1929"
   transform="translate(0,-496)">
</g>
<g
   id="g1931"
   transform="translate(0,-496)">
</g>
<g
   id="g1933"
   transform="translate(0,-496)">
</g>
<g
   id="g1935"
   transform="translate(0,-496)">
</g>
<g
   id="g1937"
   transform="translate(0,-496)">
</g>
<g
   id="g1939"
   transform="translate(0,-496)">
</g>
<g
   id="g1941"
   transform="translate(0,-496)">
</g>
<g
   id="g1943"
   transform="translate(0,-496)">
</g>
<g
   id="g1945"
   transform="translate(0,-496)">
</g>
</svg>