<?xml version="1.0" encoding="iso-8859-1"?>
<!-- Generator: Adobe Illustrator 19.0.0, SVG Export Plug-In . SVG Version: 6.00 Build 0)  -->
<svg version="1.1" id="Capa_1" xmlns="http://www.w3.org/2000/svg" xmlns:xlink="http://www.w3.org/1999/xlink" x="0px" y="0px"
	 viewBox="0 0 512.001 512.001" style="enable-background:new 0 0 512.001 512.001;" xml:space="preserve">
<path style="fill:#9CD38C;" d="M362.944,391.603c-38.355-128.659,2.596-254.988,2.596-254.988s-44.551,34.017-81.911,108.119
	c-21.76,43.16-21.059,99.715-14.731,146.869H362.944z"/>
<path style="fill:#80C56E;" d="M362.944,391.603c-38.355-128.659,2.596-254.988,2.596-254.988s-84.017,122.413-62.832,254.988
	H362.944z"/>
<path style="fill:#66AD66;" d="M218.83,391.603h74.34c3.565-18.258,6.316-46.387,5.925-88.802
	C298.433,231.102,256,112.809,256,112.809s-42.433,118.293-43.095,189.992C212.514,345.216,215.265,373.345,218.83,391.603z"/>
<path style="fill:#5E9E5E;" d="M252.965,391.603h40.205c3.565-18.258,6.316-46.387,5.925-88.802
	C298.433,231.102,256,112.809,256,112.809L252.965,391.603z"/>
<path style="fill:#9CD38C;" d="M438.298,391.603c-5.761-77.889,69.102-132.575,69.102-132.575s-66.804,7.587-110.31,45.135
	c-32.059,27.669-41.538,73.349-43.786,87.44L438.298,391.603L438.298,391.603z"/>
<path style="fill:#80C56E;" d="M438.298,391.603c-5.761-77.889,69.102-132.575,69.102-132.575s-96.615,29.638-109.261,132.575
	L438.298,391.603L438.298,391.603z"/>
<path style="fill:#66AD66;" d="M363.805,240.468c-48.931,33.946-75.832,105.975-88.769,151.135h92.223
	C380.191,259.587,485.974,185.73,485.974,185.73S429.634,194.798,363.805,240.468z"/>
<path style="fill:#5E9E5E;" d="M313.159,391.603h54.099C380.19,259.587,485.973,185.73,485.973,185.73
	S349.117,235.514,313.159,391.603z"/>
<path style="fill:#9CD38C;" d="M149.056,391.603c38.355-128.659-2.596-254.988-2.596-254.988s44.551,34.017,81.911,108.119
	c21.76,43.16,21.059,99.715,14.731,146.869H149.056z"/>
<path style="fill:#80C56E;" d="M194.288,391.603c38.355-128.659-47.828-254.988-47.828-254.988s44.551,34.017,81.911,108.119
	c21.76,43.16,21.059,99.715,14.731,146.869H194.288z"/>
<path style="fill:#9CD38C;" d="M73.702,391.603C79.463,313.714,4.6,259.028,4.6,259.028s66.804,7.587,110.31,45.135
	c32.059,27.669,41.538,73.349,43.786,87.44L73.702,391.603L73.702,391.603z"/>
<path style="fill:#80C56E;" d="M109.814,391.603C109.814,296.908,4.6,259.028,4.6,259.028s66.804,7.587,110.31,45.135
	c32.059,27.669,41.538,73.349,43.786,87.44L109.814,391.603L109.814,391.603z"/>
<path style="fill:#66AD66;" d="M148.195,240.468c48.931,33.946,75.832,105.975,88.769,151.135h-92.223
	C131.81,259.587,26.027,185.729,26.027,185.729S82.366,194.798,148.195,240.468z"/>
<path style="fill:#5E9E5E;" d="M148.195,240.468c48.931,33.946,75.832,105.975,88.769,151.135h-55.491
	C171.356,240.403,26.026,185.73,26.026,185.73S82.366,194.798,148.195,240.468z"/>
<path style="fill:#80C56E;" d="M252.027,350.85c-9.715,12.643-16.616,26.809-21.549,40.753h72.23
	c6.391-57.731,46.41-94.695,46.41-94.695S290.96,300.181,252.027,350.85z"/>
<path style="fill:#9CD38C;" d="M259.973,350.85c9.715,12.643,16.616,26.809,21.549,40.753h-72.23
	c-6.391-57.731-46.41-94.695-46.41-94.695S221.04,300.181,259.973,350.85z"/>
<path style="fill:#80C56E;" d="M259.973,350.85c9.715,12.643,16.616,26.809,21.549,40.753h-38.42
	c-6.391-57.731-80.219-94.695-80.219-94.695S221.04,300.181,259.973,350.85z"/>
<path style="fill:#BA7D60;" d="M504.412,384.016H7.588c-4.19,0-7.588,3.397-7.588,7.588s3.397,7.588,7.588,7.588h496.825
	c4.19,0,7.588-3.397,7.588-7.588S508.603,384.016,504.412,384.016z"/>
<g>
</g>
<g>
</g>
<g>
</g>
<g>
</g>
<g>
</g>
<g>
</g>
<g>
</g>
<g>
</g>
<g>
</g>
<g>
</g>
<g>
</g>
<g>
</g>
<g>
</g>
<g>
</g>
<g>
</g>
</svg>
