<?xml version="1.0" encoding="UTF-8" standalone="no"?>
<svg
   xmlns:dc="http://purl.org/dc/elements/1.1/"
   xmlns:cc="http://creativecommons.org/ns#"
   xmlns:rdf="http://www.w3.org/1999/02/22-rdf-syntax-ns#"
   xmlns:svg="http://www.w3.org/2000/svg"
   xmlns="http://www.w3.org/2000/svg"
   xmlns:sodipodi="http://sodipodi.sourceforge.net/DTD/sodipodi-0.dtd"
   xmlns:inkscape="http://www.inkscape.org/namespaces/inkscape"
   width="16"
   height="16"
   viewBox="0 0 512 512"
   version="1.1"
   id="svg5990"
   sodipodi:docname="ground_ns.svg"
   style="fill:none"
   inkscape:version="0.92.3 (2405546, 2018-03-11)">
  <metadata
     id="metadata5996">
    <rdf:RDF>
      <cc:Work
         rdf:about="">
        <dc:format>image/svg+xml</dc:format>
        <dc:type
           rdf:resource="http://purl.org/dc/dcmitype/StillImage" />
        <dc:title></dc:title>
      </cc:Work>
    </rdf:RDF>
  </metadata>
  <defs
     id="defs5994" />
  <sodipodi:namedview
     pagecolor="#ffffff"
     bordercolor="#666666"
     borderopacity="1"
     objecttolerance="10"
     gridtolerance="10"
     guidetolerance="10"
     inkscape:pageopacity="0"
     inkscape:pageshadow="2"
     inkscape:window-width="1920"
     inkscape:window-height="1017"
     id="namedview5992"
     showgrid="false"
     inkscape:zoom="7.375"
     inkscape:cx="37.117871"
     inkscape:cy="-2.2226817"
     inkscape:window-x="0"
     inkscape:window-y="30"
     inkscape:window-maximized="1"
     inkscape:current-layer="svg5990" />
  <path
     d="m 26,159.18644 h 460 v 230 H 26 Z"
     id="path5958"
     inkscape:connector-curvature="0"
     style="fill:#5b362a" />
  <path
     d="m 26,159.18644 h 460 v 45.62 H 26 Z"
     id="path5960"
     inkscape:connector-curvature="0"
     style="fill:#301d16" />
  <path
     d="m 486,251.68644 c -1.857,0 -3.637,0.738 -4.95,2.05 -1.312,1.313 -2.05,3.093 -2.05,4.95 v 14.996 c 0,1.857 0.738,3.637 2.05,4.95 1.313,1.312 3.093,2.05 4.95,2.05 1.857,0 3.637,-0.738 4.95,-2.05 1.312,-1.313 2.05,-3.093 2.05,-4.95 v -14.996 c 0,-1.857 -0.738,-3.637 -2.05,-4.95 -1.313,-1.312 -3.093,-2.05 -4.95,-2.05 z"
     id="path5962"
     inkscape:connector-curvature="0"
     style="fill:#180f0b" />
  <path
     d="M 486,152.18644 H 110.504 c -1.857,0 -3.637,0.737 -4.95,2.05 -1.313,1.313 -2.05,3.093 -2.05,4.95 0,1.857 0.737,3.637 2.05,4.95 1.313,1.312 3.093,2.05 4.95,2.05 H 479 v 31.62 H 33 v -31.62 h 39 c 1.8565,0 3.637,-0.738 4.9497,-2.05 1.3128,-1.313 2.0503,-3.093 2.0503,-4.95 0,-1.857 -0.7375,-3.637 -2.0503,-4.95 -1.3127,-1.313 -3.0932,-2.05 -4.9497,-2.05 H 26 c -1.8565,0 -3.637,0.737 -4.9497,2.05 -1.3128,1.313 -2.0503,3.093 -2.0503,4.95 v 230 c 0,1.857 0.7375,3.637 2.0503,4.95 1.3127,1.312 3.0932,2.05 4.9497,2.05 h 460 c 1.857,0 3.637,-0.738 4.95,-2.05 1.312,-1.313 2.05,-3.093 2.05,-4.95 v -87.2 c 0,-1.857 -0.738,-3.637 -2.05,-4.95 -1.313,-1.313 -3.093,-2.05 -4.95,-2.05 -1.857,0 -3.637,0.737 -4.95,2.05 -1.312,1.313 -2.05,3.093 -2.05,4.95 v 80.2 H 33 v -170.38 h 446 v 19.88 c 0,1.857 0.738,3.637 2.05,4.95 1.313,1.312 3.093,2.05 4.95,2.05 1.857,0 3.637,-0.738 4.95,-2.05 1.312,-1.313 2.05,-3.093 2.05,-4.95 v -72.5 c 0,-1.857 -0.738,-3.637 -2.05,-4.95 -1.313,-1.313 -3.093,-2.05 -4.95,-2.05 z"
     id="path5964"
     inkscape:connector-curvature="0"
     style="fill:#180f0b" />
  <path
     d="m 169.2,343.98644 c 0,1.857 0.738,3.637 2.05,4.95 1.313,1.313 3.093,2.05 4.95,2.05 h 36 c 1.857,0 3.637,-0.737 4.95,-2.05 1.313,-1.313 2.05,-3.093 2.05,-4.95 0,-1.857 -0.737,-3.637 -2.05,-4.95 -1.313,-1.313 -3.093,-2.05 -4.95,-2.05 h -36 c -1.857,0 -3.637,0.737 -4.95,2.05 -1.312,1.313 -2.05,3.093 -2.05,4.95 z"
     id="path5966"
     inkscape:connector-curvature="0"
     style="fill:#180f0b" />
  <path
     d="m 252.252,297.98644 c 0,-1.857 -0.737,-3.637 -2.05,-4.95 -1.313,-1.313 -3.093,-2.05 -4.95,-2.05 h -36 c -1.857,0 -3.637,0.737 -4.95,2.05 -1.312,1.313 -2.05,3.093 -2.05,4.95 0,1.857 0.738,3.637 2.05,4.95 1.313,1.313 3.093,2.05 4.95,2.05 h 36 c 1.857,0 3.637,-0.737 4.95,-2.05 1.313,-1.313 2.05,-3.093 2.05,-4.95 z"
     id="path5968"
     inkscape:connector-curvature="0"
     style="fill:#180f0b" />
  <path
     d="m 290.248,343.98644 c 0,1.857 0.737,3.637 2.05,4.95 1.313,1.313 3.093,2.05 4.95,2.05 h 36 c 1.857,0 3.637,-0.737 4.95,-2.05 1.313,-1.313 2.05,-3.093 2.05,-4.95 0,-1.857 -0.737,-3.637 -2.05,-4.95 -1.313,-1.313 -3.093,-2.05 -4.95,-2.05 h -36 c -1.857,0 -3.637,0.737 -4.95,2.05 -1.313,1.313 -2.05,3.093 -2.05,4.95 z"
     id="path5970"
     inkscape:connector-curvature="0"
     style="fill:#180f0b" />
  <path
     d="m 451.752,297.98644 c 0,-1.857 -0.737,-3.637 -2.05,-4.95 -1.313,-1.313 -3.093,-2.05 -4.95,-2.05 h -56 c -1.857,0 -3.637,0.737 -4.95,2.05 -1.313,1.313 -2.05,3.093 -2.05,4.95 0,1.857 0.737,3.637 2.05,4.95 1.313,1.313 3.093,2.05 4.95,2.05 h 56 c 1.857,0 3.637,-0.737 4.95,-2.05 1.313,-1.313 2.05,-3.093 2.05,-4.95 z"
     id="path5972"
     inkscape:connector-curvature="0"
     style="fill:#180f0b" />
  <path
     d="m 350.252,249.98644 c 0,-1.857 -0.737,-3.637 -2.05,-4.95 -1.313,-1.313 -3.093,-2.05 -4.95,-2.05 h -56 c -1.857,0 -3.637,0.737 -4.95,2.05 -1.313,1.313 -2.05,3.093 -2.05,4.95 0,1.857 0.737,3.637 2.05,4.95 1.313,1.313 3.093,2.05 4.95,2.05 h 56 c 1.857,0 3.637,-0.737 4.95,-2.05 1.313,-1.313 2.05,-3.093 2.05,-4.95 z"
     id="path5974"
     inkscape:connector-curvature="0"
     style="fill:#180f0b" />
  <path
     d="m 130.252,297.98644 c 0,-1.857 -0.737,-3.637 -2.05,-4.95 -1.313,-1.313 -3.093,-2.05 -4.95,-2.05 h -56 c -1.8565,0 -3.637,0.737 -4.9497,2.05 -1.3128,1.313 -2.0503,3.093 -2.0503,4.95 0,1.857 0.7375,3.637 2.0503,4.95 1.3127,1.313 3.0932,2.05 4.9497,2.05 h 56 c 1.857,0 3.637,-0.737 4.95,-2.05 1.313,-1.313 2.05,-3.093 2.05,-4.95 z"
     id="path5976"
     inkscape:connector-curvature="0"
     style="fill:#180f0b" />
  <path
     d="m 227.252,256.99444 c 1.857,0 3.637,-0.737 4.95,-2.05 1.313,-1.313 2.05,-3.093 2.05,-4.95 0,-1.857 -0.737,-3.637 -2.05,-4.95 -1.313,-1.313 -3.093,-2.05 -4.95,-2.05 h -24 c -1.857,0 -3.637,0.737 -4.95,2.05 -1.312,1.313 -2.05,3.093 -2.05,4.95 0,1.857 0.738,3.637 2.05,4.95 1.313,1.313 3.093,2.05 4.95,2.05 z"
     id="path5978"
     inkscape:connector-curvature="0"
     style="fill:#180f0b" />
  <path
     d="m 440.484,256.99444 c 1.857,0 3.637,-0.737 4.95,-2.05 1.313,-1.313 2.05,-3.093 2.05,-4.95 0,-1.857 -0.737,-3.637 -2.05,-4.95 -1.313,-1.313 -3.093,-2.05 -4.95,-2.05 h -24 c -1.857,0 -3.637,0.737 -4.95,2.05 -1.313,1.313 -2.05,3.093 -2.05,4.95 0,1.857 0.737,3.637 2.05,4.95 1.313,1.313 3.093,2.05 4.95,2.05 z"
     id="path5980"
     inkscape:connector-curvature="0"
     style="fill:#180f0b" />
  <path
     d="m 303.248,304.99444 h 24 c 1.857,0 3.637,-0.737 4.95,-2.05 1.313,-1.313 2.05,-3.093 2.05,-4.95 0,-1.857 -0.737,-3.637 -2.05,-4.95 -1.313,-1.313 -3.093,-2.05 -4.95,-2.05 h -24 c -1.857,0 -3.637,0.737 -4.95,2.05 -1.313,1.313 -2.05,3.093 -2.05,4.95 0,1.857 0.737,3.637 2.05,4.95 1.313,1.313 3.093,2.05 4.95,2.05 z"
     id="path5982"
     inkscape:connector-curvature="0"
     style="fill:#180f0b" />
  <path
     d="m 411.252,336.99444 c -1.857,0 -3.637,0.737 -4.95,2.05 -1.313,1.313 -2.05,3.093 -2.05,4.95 0,1.857 0.737,3.637 2.05,4.95 1.313,1.313 3.093,2.05 4.95,2.05 h 24 c 1.857,0 3.637,-0.737 4.95,-2.05 1.313,-1.313 2.05,-3.093 2.05,-4.95 0,-1.857 -0.737,-3.637 -2.05,-4.95 -1.313,-1.313 -3.093,-2.05 -4.95,-2.05 z"
     id="path5984"
     inkscape:connector-curvature="0"
     style="fill:#180f0b" />
  <path
     d="m 95.248,336.99444 c -1.8565,0 -3.637,0.737 -4.9497,2.05 -1.3128,1.313 -2.0503,3.093 -2.0503,4.95 0,1.857 0.7375,3.637 2.0503,4.95 1.3127,1.313 3.0932,2.05 4.9497,2.05 h 24 c 1.857,0 3.637,-0.737 4.95,-2.05 1.313,-1.313 2.05,-3.093 2.05,-4.95 0,-1.857 -0.737,-3.637 -2.05,-4.95 -1.313,-1.313 -3.093,-2.05 -4.95,-2.05 z"
     id="path5986"
     inkscape:connector-curvature="0"
     style="fill:#180f0b" />
  <path
     d="m 135.468,249.98644 c 0,-1.857 -0.738,-3.637 -2.05,-4.95 -1.313,-1.313 -3.093,-2.05 -4.95,-2.05 h -36 c -1.8565,0 -3.637,0.737 -4.9498,2.05 -1.3127,1.313 -2.0502,3.093 -2.0502,4.95 0,1.857 0.7375,3.637 2.0502,4.95 1.3128,1.313 3.0933,2.05 4.9498,2.05 h 36 c 1.857,0 3.637,-0.737 4.95,-2.05 1.312,-1.313 2.05,-3.093 2.05,-4.95 z"
     id="path5988"
     inkscape:connector-curvature="0"
     style="fill:#180f0b" />
</svg>
