<?xml version="1.0" encoding="UTF-8" standalone="no"?>
<svg
   xmlns:dc="http://purl.org/dc/elements/1.1/"
   xmlns:cc="http://creativecommons.org/ns#"
   xmlns:rdf="http://www.w3.org/1999/02/22-rdf-syntax-ns#"
   xmlns:svg="http://www.w3.org/2000/svg"
   xmlns="http://www.w3.org/2000/svg"
   xmlns:sodipodi="http://sodipodi.sourceforge.net/DTD/sodipodi-0.dtd"
   xmlns:inkscape="http://www.inkscape.org/namespaces/inkscape"
   id="Capa_1"
   enable-background="new 0 0 512 512"
   height="16"
   viewBox="0 0 512 512"
   width="16"
   version="1.1"
   sodipodi:docname="ice_ns.svg"
   inkscape:version="0.92.3 (2405546, 2018-03-11)">
  <metadata
     id="metadata10196">
    <rdf:RDF>
      <cc:Work
         rdf:about="">
        <dc:format>image/svg+xml</dc:format>
        <dc:type
           rdf:resource="http://purl.org/dc/dcmitype/StillImage" />
        <dc:title></dc:title>
      </cc:Work>
    </rdf:RDF>
  </metadata>
  <defs
     id="defs10194" />
  <sodipodi:namedview
     pagecolor="#ffffff"
     bordercolor="#666666"
     borderopacity="1"
     objecttolerance="10"
     gridtolerance="10"
     guidetolerance="10"
     inkscape:pageopacity="0"
     inkscape:pageshadow="2"
     inkscape:window-width="1920"
     inkscape:window-height="1017"
     id="namedview10192"
     showgrid="false"
     inkscape:zoom="14.75"
     inkscape:cx="12.605493"
     inkscape:cy="-8.2519381"
     inkscape:window-x="0"
     inkscape:window-y="30"
     inkscape:window-maximized="1"
     inkscape:current-layer="Capa_1" />
  <g
     id="g10189"
     transform="translate(0,7.3220347)">
    <path
       d="m 309.283,116.801 c -1.366,-2.366 -3.344,-4.378 -5.791,-5.791 L 167.362,32.415 c -4.895,-2.826 -10.927,-2.826 -15.822,0 L 15.411,111.009 c -2.448,1.413 -4.425,3.426 -5.791,5.791 l 149.832,86.505 z"
       id="path10165"
       inkscape:connector-curvature="0"
       style="fill:#daf1f4" />
    <path
       d="m 9.62,116.801 c -1.366,2.366 -2.12,5.085 -2.12,7.911 V 281.9 c 0,5.653 3.016,10.876 7.911,13.702 l 136.129,78.594 c 2.448,1.413 5.179,2.12 7.911,2.12 v -173.01 z"
       id="path10167"
       inkscape:connector-curvature="0"
       style="fill:#b9e4ef" />
    <path
       d="m 159.451,203.306 v 173.011 c 2.732,0 5.463,-0.707 7.911,-2.12 l 76.713,-44.29 v -63.812 c 0,-4.844 2.584,-9.32 6.779,-11.742 l 60.548,-34.958 v -94.683 c 0,-2.826 -0.754,-5.545 -2.12,-7.911 z"
       id="path10169"
       inkscape:connector-curvature="0"
       style="fill:#93d8e4" />
    <path
       d="m 245.892,259.315 c -1.17,2.027 -1.816,4.357 -1.816,6.779 v 134.701 c 0,4.844 2.584,9.32 6.779,11.742 l 116.654,67.35 c 2.098,1.211 4.438,1.816 6.779,1.816 V 333.445 Z"
       id="path10171"
       inkscape:connector-curvature="0"
       style="fill:#b9e4ef" />
    <path
       d="m 502.684,259.315 c -1.17,-2.027 -2.865,-3.752 -4.963,-4.963 l -116.654,-67.35 c -4.195,-2.422 -9.363,-2.422 -13.558,0 l -116.654,67.35 c -2.097,1.211 -3.792,2.936 -4.963,4.963 l 128.396,74.13 z"
       id="path10173"
       inkscape:connector-curvature="0"
       style="fill:#daf1f4" />
    <path
       d="m 374.288,333.445 v 148.259 c 2.341,0 4.682,-0.605 6.779,-1.816 l 116.654,-67.35 c 4.195,-2.422 6.779,-6.898 6.779,-11.742 V 266.094 c 0,-2.422 -0.646,-4.752 -1.816,-6.779 z"
       id="path10175"
       inkscape:connector-curvature="0"
       style="fill:#93d8e4" />
    <path
       d="m 159.451,305.658 c -4.142,0 -7.5,3.358 -7.5,7.5 v 19.666 c 0,4.142 3.358,7.5 7.5,7.5 4.142,0 7.5,-3.358 7.5,-7.5 v -19.666 c 0,-4.142 -3.358,-7.5 -7.5,-7.5 z"
       id="path10177"
       inkscape:connector-curvature="0" />
    <path
       d="m 166.951,207.636 108.416,-62.594 c 3.587,-2.071 4.816,-6.658 2.745,-10.245 -2.07,-3.587 -6.659,-4.816 -10.245,-2.745 L 159.451,194.646 51.036,132.052 c -3.587,-2.072 -8.174,-0.842 -10.245,2.745 -2.071,3.587 -0.842,8.174 2.745,10.245 l 108.415,62.594 v 70.521 c 0,4.142 3.358,7.5 7.5,7.5 4.142,0 7.5,-3.358 7.5,-7.5 z"
       id="path10179"
       inkscape:connector-curvature="0" />
    <path
       d="m 335.147,243.214 42.891,-24.763 c 3.587,-2.071 4.816,-6.658 2.745,-10.245 -2.07,-3.587 -6.66,-4.816 -10.245,-2.745 l -42.891,24.763 c -3.587,2.071 -4.816,6.658 -2.745,10.245 2.081,3.604 6.676,4.807 10.245,2.745 z"
       id="path10181"
       inkscape:connector-curvature="0" />
    <path
       d="m 374.287,451.933 c 4.143,0 7.5,-3.358 7.5,-7.5 V 337.775 l 92.369,-53.33 c 3.587,-2.071 4.816,-6.658 2.745,-10.245 -2.071,-3.588 -6.66,-4.816 -10.245,-2.745 l -92.369,53.33 -92.368,-53.329 c -3.589,-2.072 -8.176,-0.843 -10.245,2.745 -2.071,3.587 -0.842,8.174 2.745,10.245 l 92.368,53.329 v 106.658 c 0,4.142 3.358,7.5 7.5,7.5 z"
       id="path10183"
       inkscape:connector-curvature="0" />
    <path
       d="m 11.661,302.098 136.129,78.594 c 7.19,4.152 16.128,4.153 23.322,0 l 65.463,-37.795 v 57.898 c 0,7.5 4.034,14.487 10.529,18.237 l 116.655,67.351 c 6.494,3.75 14.563,3.75 21.058,0 l 116.654,-67.35 C 507.965,415.283 512,408.295 512,400.796 v -50.627 c 0,-4.142 -3.357,-7.5 -7.5,-7.5 -4.143,0 -7.5,3.358 -7.5,7.5 v 50.627 c 0,2.158 -1.16,4.168 -3.029,5.247 l -116.654,67.351 c -1.87,1.079 -4.189,1.078 -6.058,0 L 254.604,406.043 c -1.868,-1.079 -3.029,-3.089 -3.029,-5.247 0,-17.382 0,-99.733 0,-134.701 0,-2.158 1.161,-4.168 3.029,-5.247 20.729,-11.968 79.876,-46.116 116.656,-67.351 1.867,-1.079 4.188,-1.078 6.057,0 l 116.654,67.351 c 1.869,1.078 3.029,3.089 3.029,5.246 v 49.074 c 0,4.142 3.357,7.5 7.5,7.5 4.143,0 7.5,-3.358 7.5,-7.5 v -49.074 c 0,-7.5 -4.035,-14.488 -10.529,-18.237 l -116.653,-67.35 c -6.495,-3.751 -14.563,-3.751 -21.059,0 l -44.856,25.898 v -81.694 c 0,-8.305 -4.468,-16.044 -11.661,-20.197 L 171.112,25.92 c -7.192,-4.153 -16.129,-4.152 -23.321,0 l -28.366,16.377 c -3.587,2.071 -4.816,6.658 -2.745,10.245 2.072,3.588 6.659,4.817 10.245,2.745 L 155.291,38.91 c 2.567,-1.481 5.756,-1.481 8.322,0 l 136.129,78.594 c 2.566,1.482 4.161,4.244 4.161,7.207 v 90.354 l -56.798,32.792 c -6.495,3.75 -10.529,10.737 -10.529,18.237 v 59.482 l -72.963,42.125 c -2.565,1.481 -5.754,1.482 -8.322,0 L 19.161,289.107 C 16.595,287.625 15,284.864 15,281.9 V 124.711 c 0,-2.963 1.595,-5.725 4.161,-7.207 L 96.382,72.921 C 99.969,70.85 101.198,66.263 99.127,62.676 97.056,59.088 92.469,57.86 88.882,59.931 L 11.66,104.514 C 4.468,108.667 0,116.406 0,124.711 V 281.9 c 0,8.306 4.468,16.044 11.661,20.198 z"
       id="path10185"
       inkscape:connector-curvature="0" />
    <path
       d="m 57.52,115.566 c 2.077,3.598 6.668,4.811 10.245,2.745 L 112.17,92.674 c 3.587,-2.071 4.816,-6.658 2.745,-10.245 -2.071,-3.588 -6.658,-4.817 -10.245,-2.745 l -44.405,25.637 c -3.588,2.071 -4.817,6.657 -2.745,10.245 z"
       id="path10187"
       inkscape:connector-curvature="0" />
  </g>
</svg>
