<?xml version="1.0" encoding="UTF-8" standalone="no"?>
<svg
   xmlns:dc="http://purl.org/dc/elements/1.1/"
   xmlns:cc="http://creativecommons.org/ns#"
   xmlns:rdf="http://www.w3.org/1999/02/22-rdf-syntax-ns#"
   xmlns:svg="http://www.w3.org/2000/svg"
   xmlns="http://www.w3.org/2000/svg"
   xmlns:sodipodi="http://sodipodi.sourceforge.net/DTD/sodipodi-0.dtd"
   xmlns:inkscape="http://www.inkscape.org/namespaces/inkscape"
   enable-background="new 0 0 1920 1920"
   version="1.1"
   viewBox="0 0 1920 1920"
   xml:space="preserve"
   id="svg11508"
   sodipodi:docname="normal_ns.svg"
   width="16"
   height="16"
   inkscape:version="0.92.3 (2405546, 2018-03-11)"><metadata
   id="metadata11514"><rdf:RDF><cc:Work
       rdf:about=""><dc:format>image/svg+xml</dc:format><dc:type
         rdf:resource="http://purl.org/dc/dcmitype/StillImage" /><dc:title></dc:title></cc:Work></rdf:RDF></metadata><defs
   id="defs11512" /><sodipodi:namedview
   pagecolor="#ffffff"
   bordercolor="#666666"
   borderopacity="1"
   objecttolerance="10"
   gridtolerance="10"
   guidetolerance="10"
   inkscape:pageopacity="0"
   inkscape:pageshadow="2"
   inkscape:window-width="1920"
   inkscape:window-height="1017"
   id="namedview11510"
   showgrid="false"
   inkscape:zoom="15.733333"
   inkscape:cx="16.793478"
   inkscape:cy="12.388565"
   inkscape:window-x="0"
   inkscape:window-y="30"
   inkscape:window-maximized="1"
   inkscape:current-layer="svg11508" />
<style
   type="text/css"
   id="style11477">
	.st0{fill:url(#a);}
	.st1{fill:#CC1417;}
	.st2{fill:#FFFFFF;}
</style>
<linearGradient
   id="a"
   x1="465.13"
   x2="1976.2"
   y1="585.15002"
   y2="1853.1"
   gradientUnits="userSpaceOnUse"
   gradientTransform="matrix(1.2124008,0,0,1.1448187,-240.01288,-160.86547)">
	<stop
   offset=".2852"
   id="stop11479" />
	<stop
   stop-color="#262626"
   stop-opacity=".8728"
   offset=".3761"
   id="stop11481" />
	<stop
   stop-color="#828282"
   stop-opacity=".5493"
   offset=".6074"
   id="stop11483" />
	<stop
   stop-color="#C5C5C5"
   stop-opacity=".2862"
   offset=".7954"
   id="stop11485" />
	<stop
   stop-color="#EFEFEF"
   stop-opacity=".096887"
   offset=".9307"
   id="stop11487" />
	<stop
   stop-color="#fff"
   stop-opacity="0"
   offset="1"
   id="stop11489" />
</linearGradient>
<path
   class="st0"
   d="m 484.51783,1527.0552 0.6062,0.5724 0.6062,0.5724 0.6062,0.5724 0.6062,0.5724 0.6062,0.5724 0.6062,0.5724 0.6062,0.5724 0.6062,0.5725 0.6062,0.5724 0.6062,0.5724 0.6062,0.5724 0.6062,0.5724 0.6062,0.5724 0.6062,0.5724 0.60621,0.5724 0.6062,0.5724 0.6062,0.5724 0.6062,0.5725 0.6062,0.5724 0.6062,0.5724 0.6062,0.5724 0.6062,0.5724 0.6062,0.5724 0.6062,0.5724 0.6062,0.5724 0.6062,0.5724 0.6062,0.5724 0.6062,0.5724 0.6062,0.5725 0.6062,0.5724 0.6062,0.5724 0.6062,0.5724 0.6062,0.5724 0.6062,0.5724 0.6062,0.5724 0.6062,0.5724 0.6062,0.5724 0.6062,0.5724 0.6062,0.5724 0.6062,0.5725 0.60621,0.5724 0.6062,0.5724 0.6062,0.5724 0.6062,0.5724 0.6062,0.5724 0.6062,0.5724 0.6062,0.5724 0.6062,0.5724 0.6062,0.5724 0.6062,0.5725 0.6062,0.5724 0.6062,0.5724 0.6062,0.5724 0.6062,0.5724 0.6062,0.5724 0.6062,0.5724 0.6062,0.5724 0.6062,0.5724 0.6062,0.5724 0.6062,0.5724 0.6062,0.5725 0.6062,0.5724 0.6062,0.5724 0.6062,0.5724 0.6062,0.5724 0.60621,0.5724 0.6062,0.5724 0.6062,0.5724 0.6062,0.5724 0.6062,0.5724 0.6062,0.5724 0.6062,0.5725 0.6062,0.5724 0.6062,0.5724 0.6062,0.5724 0.6062,0.5724 0.6062,0.5724 0.6062,0.5724 0.6062,0.5724 0.6062,0.5724 0.6062,0.5724 0.6062,0.5724 0.6062,0.5725 0.6062,0.5724 0.6062,0.5724 0.6062,0.5724 0.6062,0.5724 0.6062,0.5724 0.6062,0.5724 0.6062,0.5724 0.6062,0.5724 0.60621,0.5724 0.6062,0.5725 0.6062,0.5724 0.6062,0.5724 0.6062,0.5724 0.6062,0.5724 0.6062,0.5724 0.6062,0.5724 0.6062,0.5724 0.6062,0.5724 0.6062,0.5724 0.6062,0.5724 0.6062,0.5725 0.6062,0.5724 0.6062,0.5724 0.6062,0.5724 0.6062,0.5724 0.6062,0.5724 0.6062,0.5724 0.6062,0.5724 0.6062,0.5724 0.6062,0.5724 0.6062,0.5724 0.6062,0.5725 0.6062,0.5724 0.6062,0.5724 0.60621,0.5724 0.6062,0.5724 0.6062,0.5724 0.6062,0.5724 0.6062,0.5724 0.6062,0.5724 0.6062,0.5724 0.6062,0.5725 0.6062,0.5724 0.6062,0.5724 0.6062,0.5724 0.6062,0.5724 0.6062,0.5724 0.6062,0.5724 0.6062,0.5724 0.6062,0.5724 0.6062,0.5724 0.6062,0.5724 0.6062,0.5725 0.6062,0.5724 0.6062,0.5724 0.6062,0.5724 0.6062,0.5724 0.6062,0.5724 0.6062,0.5724 0.6062,0.5724 0.60621,0.5724 0.6062,0.5724 0.6062,0.5724 0.6062,0.5725 0.6062,0.5724 0.6062,0.5724 0.6062,0.5724 0.6062,0.5724 0.6062,0.5724 0.6062,0.5724 0.6062,0.5724 0.6062,0.5724 0.6062,0.5724 0.6062,0.5725 0.6062,0.5724 0.6062,0.5724 0.6062,0.5724 0.6062,0.5724 0.6062,0.5724 0.6062,0.5724 0.6062,0.5724 0.6062,0.5724 0.6062,0.5724 0.6062,0.5724 0.6062,0.5725 0.6062,0.5724 0.60621,0.5724 0.6062,0.5724 0.6062,0.5724 0.6062,0.5724 0.6062,0.5724 0.6062,0.5724 0.6062,0.5724 0.6062,0.5724 0.6062,0.5724 0.6062,0.5725 0.6062,0.5724 0.6062,0.5724 0.6062,0.5724 0.6062,0.5724 0.6062,0.5724 0.6062,0.5724 0.6062,0.5724 0.6062,0.5724 0.6062,0.5724 0.6062,0.5725 0.6062,0.5724 0.6062,0.5724 0.6062,0.5724 0.6062,0.5724 0.6062,0.5724 0.60621,0.5724 0.6062,0.5724 0.6062,0.5724 0.6062,0.5724 0.6062,0.5724 0.6062,0.5725 0.6062,0.5724 0.6062,0.5724 0.6062,0.5724 0.6062,0.5724 0.6062,0.5724 0.6062,0.5724 0.6062,0.5724 0.6062,0.5724 0.6062,0.5724 0.6062,0.5724 0.6062,0.5725 0.6062,0.5724 0.6062,0.5724 0.6062,0.5724 0.6062,0.5724 0.6062,0.5724 0.6062,0.5724 0.6062,0.5724 0.6062,0.5724 0.6062,0.5724 0.60621,0.5725 0.6062,0.5724 0.6062,0.5724 0.6062,0.5724 0.6062,0.5724 0.6062,0.5724 0.6062,0.5724 0.6062,0.5724 0.6062,0.5724 0.6062,0.5724 0.6062,0.5724 0.6062,0.5725 0.6062,0.5724 0.6062,0.5724 0.6062,0.5724 0.6062,0.5724 0.6062,0.5724 0.6062,0.5724 0.6062,0.5724 0.6062,0.5724 0.6062,0.5724 0.6062,0.5724 0.6062,0.5725 0.6062,0.5724 0.6062,0.5724 0.6062,0.5724 0.60621,0.5724 0.6062,0.5724 0.6062,0.5724 0.6062,0.5724 0.6062,0.5724 0.6062,0.5724 0.6062,0.5724 0.6062,0.5725 0.6062,0.5724 0.6062,0.5724 0.6062,0.5724 0.6062,0.5724 0.6062,0.5724 0.6062,0.5724 0.6062,0.5724 0.6062,0.5724 0.6062,0.5724 0.6062,0.5725 0.6062,0.5724 0.6062,0.5724 0.6062,0.5724 0.6062,0.5724 0.6062,0.5724 0.6062,0.5724 0.6062,0.5724 0.6062,0.5724 0.60621,0.5724 0.6062,0.5724 0.6062,0.5725 0.6062,0.5724 0.6062,0.5724 0.6062,0.5724 0.6062,0.5724 0.6062,0.5724 0.6062,0.5724 0.6062,0.5724 0.6062,0.5724 0.6062,0.5724 0.6062,0.5724 0.6062,0.5725 0.6062,0.5724 0.6062,0.5724 0.6062,0.5724 0.6062,0.5724 0.6062,0.5724 0.6062,0.5724 0.6062,0.5724 0.6062,0.5724 0.6062,0.5724 0.6062,0.5725 0.6062,0.5724 0.6062,0.5724 0.60621,0.5724 0.6062,0.5724 0.6062,0.5724 0.6062,0.5724 0.6062,0.5724 0.6062,0.5724 0.6062,0.5724 0.6062,0.5724 0.6062,0.5725 0.6062,0.5724 0.6062,0.5724 0.6062,0.5724 0.6062,0.5724 0.6062,0.5724 0.6062,0.5724 0.6062,0.5724 0.6062,0.5724 0.6062,0.5724 0.6062,0.5724 0.6062,0.5725 0.6062,0.5724 0.6062,0.5724 0.6062,0.5724 0.6062,0.5724 0.6062,0.5724 0.6062,0.5724 0.60621,0.5724 0.6062,0.5724 0.6062,0.5724 0.6062,0.5725 0.6062,0.5724 0.6062,0.5724 0.6062,0.5724 0.6062,0.5724 0.6062,0.5724 0.6062,0.5724 0.6062,0.5724 0.6062,0.5724 0.6062,0.5724 0.6062,0.5724 0.6062,0.5725 0.6062,0.5724 0.6062,0.5724 0.6062,0.5724 0.6062,0.5724 0.6062,0.5724 0.6062,0.5724 0.6062,0.5724 0.6062,0.5724 0.6062,0.5724 0.6062,0.5724 0.60621,0.5725 0.6062,0.5724 0.6062,0.5724 0.6062,0.5724 0.6062,0.5724 0.6062,0.5724 0.6062,0.5724 0.6062,0.5724 0.6062,0.5724 0.6062,0.5724 0.6062,0.5725 0.6062,0.5724 0.6062,0.5724 0.6062,0.5724 0.6062,0.5724 0.6062,0.5724 0.6062,0.5724 0.6062,0.5724 0.6062,0.5724 0.6062,0.5724 0.6062,0.5724 0.6062,0.5725 0.6062,0.5724 0.6062,0.5724 0.6062,0.5724 0.6062,0.5724 0.60621,0.5724 0.6062,0.5724 0.6062,0.5724 0.6062,0.5724 0.6062,0.5724 0.6062,0.5724 0.6062,0.5725 0.6062,0.5724 0.6062,0.5724 0.6062,0.5724 0.6062,0.5724 0.6062,0.5724 0.6062,0.5724 0.6062,0.5724 0.6062,0.5724 0.6062,0.5724 0.6062,0.5725 0.6062,0.5724 0.6062,0.5724 0.6062,0.5724 0.6062,0.5724 0.6062,0.5724 0.6062,0.5724 0.6062,0.5724 0.6062,0.5724 0.6062,0.5724 0.60621,0.5724 0.6062,0.5725 0.6062,0.5724 0.6062,0.5724 0.6062,0.5724 0.6062,0.5724 0.6062,0.5724 0.6062,0.5724 0.6062,0.5724 0.6062,0.5724 0.6062,0.5724 0.6062,0.5724 0.6062,0.5725 0.6062,0.5724 0.6062,0.5724 0.6062,0.5724 0.6062,0.5724 0.6062,0.5724 0.6062,0.5724 0.6062,0.5724 0.6062,0.5724 0.6062,0.5724 0.6062,0.5724 0.6062,0.5725 0.6062,0.5724 0.6062,0.5724 0.60621,0.5724 0.6062,0.5724 0.6062,0.5724 0.6062,0.5724 0.6062,0.5724 0.6062,0.5724 0.6062,0.5724 0.6062,0.5725 0.6062,0.5724 0.6062,0.5724 0.6062,0.5724 0.6062,0.5724 0.6062,0.5724 0.6062,0.5724 0.6062,0.5724 0.6062,0.5724 0.6062,0.5724 0.6062,0.5724 0.6062,0.5725 0.6062,0.5724 0.6062,0.5724 0.6062,0.5724 0.6062,0.5724 0.6062,0.5724 0.6062,0.5724 0.6062,0.5724 0.60621,0.5724 0.6062,0.5724 0.6062,0.5724 0.6062,0.5725 0.6062,0.5724 0.6062,0.5724 0.6062,0.5724 0.6062,0.5724 0.6062,0.5724 0.6062,0.5724 0.6062,0.5724 0.6062,0.5724 0.6062,0.5724 0.6062,0.5725 0.6062,0.5724 0.6062,0.5724 0.6062,0.5724 0.6062,0.5724 0.6062,0.5724 0.6062,0.5724 0.6062,0.5724 0.6062,0.5724 0.6062,0.5724 0.6062,0.5724 0.6062,0.5725 0.60621,0.5724 0.6062,0.5724 0.6062,0.5724 0.6062,0.5724 0.6062,0.5724 0.6062,0.5724 0.6062,0.5724 0.6062,0.5724 0.6062,0.5724 0.6062,0.5724 0.6062,0.5725 0.6062,0.5724 0.6062,0.5724 0.6062,0.5724 0.6062,0.5724 0.6062,0.5724 0.6062,0.5724 0.6062,0.5724 0.6062,0.5724 0.6062,0.5724 0.6062,0.5725 0.6062,0.5724 0.6062,0.5724 0.6062,0.5724 0.6062,0.5724 0.6062,0.5724 0.60621,0.5724 0.6062,0.5724 0.6062,0.5724 0.6062,0.5724 0.6062,0.5724 0.6062,0.5725 0.6062,0.5724 0.6062,0.5724 0.6062,0.5724 0.6062,0.5724 0.6062,0.5724 0.6062,0.5724 0.6062,0.5724 0.6062,0.5724 0.6062,0.5724 0.6062,0.5724 0.6062,0.5725 0.6062,0.5724 0.6062,0.5724 0.6062,0.5724 0.6062,0.5724 0.6062,0.5724 0.6062,0.5724 0.6062,0.5724 0.6062,0.5724 0.6062,0.5724 0.60621,0.5725 0.6062,0.5724 0.6062,0.5724 0.6062,0.5724 0.6062,0.5724 0.6062,0.5724 0.6062,0.5724 0.6062,0.5724 0.6062,0.5724 0.6062,0.5724 0.6062,0.5724 0.6062,0.5725 0.6062,0.5724 0.6062,0.5724 0.6062,0.5724 0.6062,0.5724 0.6062,0.5724 0.6062,0.5724 0.6062,0.5724 0.6062,0.5724 0.6062,0.5724 0.6062,0.5724 0.6062,0.5725 0.6062,0.5724 0.6062,0.5724 0.6062,0.5724 0.60621,0.5724 0.6062,0.5724 0.6062,0.5724 0.6062,0.5724 0.6062,0.5724 0.6062,0.5724 0.6062,0.5724 0.6062,0.5725 0.6062,0.5724 0.6062,0.5724 0.6062,0.5724 0.6062,0.5724 0.6062,0.5724 0.6062,0.5724 0.6062,0.5724 0.6062,0.5724 0.6062,0.5724 0.6062,0.5725 0.6062,0.5724 0.6062,0.5724 0.6062,0.5724 0.6062,0.5724 0.6062,0.5724 0.6062,0.5724 0.6062,0.5724 0.6062,0.5724 0.60621,0.5724 0.6062,0.5724 0.6062,0.5725 0.6062,0.5724 0.6062,0.5724 0.6062,0.5724 0.6062,0.5724 0.6062,0.5724 0.6062,0.5724 0.6062,0.5724 0.6062,0.5724 0.6062,0.5724 0.6062,0.5724 0.6062,0.5725 0.6062,0.5724 0.6062,0.5724 0.6062,0.5724 0.6062,0.5724 0.6062,0.5724 0.6062,0.5724 0.6062,0.5724 0.6062,0.5724 0.6062,0.5724 0.6062,0.5725 0.6062,0.5724 0.6062,0.5724 0.60621,0.5724 0.6062,0.5724 0.6062,0.5724 0.6062,0.5724 0.6062,0.5724 0.6062,0.5724 0.6062,0.5724 0.6062,0.5724 0.6062,0.5725 0.6062,0.5724 0.6062,0.5724 0.6062,0.5724 0.6062,0.5724 0.6062,0.5724 0.6062,0.5724 0.6062,0.5724 0.6062,0.5724 0.6062,0.5724 0.6062,0.5724 0.6062,0.5725 0.6062,0.5724 0.6062,0.5724 0.6062,0.5724 0.6062,0.5724 0.6062,0.5724 0.60621,0.5724 0.6062,0.5724 0.6062,0.5724 0.6062,0.5724 0.6062,0.5725 0.6062,0.5724 0.6062,0.5724 0.6062,0.5724 0.6062,0.5724 0.6062,0.5724 0.6062,0.5724 0.6062,0.5724 0.6062,0.5724 0.6062,0.5724 0.6062,0.5724 0.6062,0.5725 0.6062,0.5724 0.6062,0.5724 0.6062,0.5724 0.6062,0.5724 0.6062,0.5724 0.6062,0.5724 0.6062,0.5724 0.6062,0.5724 0.6062,0.5724 0.6062,0.5724 0.6062,0.5725 0.6062,0.5724 0.6062,0.5724 0.6062,0.5724 0.6062,0.5724 0.6062,0.5724 0.6062,0.5724 0.6062,0.5724 0.6062,0.5724 0.6062,0.5724 0.6062,0.5725 0.6062,0.5724 0.6062,0.5724 0.6062,0.5724 0.6062,0.5724 0.6062,0.5724 0.6062,0.5724 0.6062,0.5724 0.6062,0.5724 0.6062,0.5724 0.6062,0.5724 0.6062,0.5725 0.6062,0.5724 0.6062,0.5724 0.6062,0.5724 0.6062,0.5724 0.6062,0.5724 0.6062,0.5724 0.6062,0.5724 0.6062,0.5724 0.6062,0.5724 0.6062,0.5724 0.6062,0.5725 0.6062,0.5724 0.6062,0.5724 0.6062,0.5724 0.6062,0.5724 0.6062,0.5724 0.6062,0.5724 0.6062,0.5724 0.6062,0.5724 0.6062,0.5724 0.6062,0.5725 0.6062,0.5724 0.6062,0.5724 0.6062,0.5724 0.6062,0.5724 0.6062,0.5724 0.6062,0.5724 0.6062,0.5724 0.6062,0.5724 0.6062,0.5724 0.6062,0.5724 0.6062,0.5725 0.6062,0.5724 0.6062,0.5724 0.6062,0.5724 0.6062,0.5724 0.6062,0.5724 0.6062,0.5724 0.6062,0.5724 0.6062,0.5724 0.6062,0.5724 0.6062,0.5724 0.6062,0.5725 0.6062,0.5724 0.6062,0.5724 0.6062,0.5724 0.6062,0.5724 0.6062,0.5724 0.6062,0.5724 0.6062,0.5724 0.6062,0.5724 0.6062,0.5724 0.6062,0.5724 0.6062,0.5725 0.6062,0.5724 0.6062,0.5724 0.6062,0.5724 0.6062,0.5724 0.6062,0.5724 0.6062,0.5724 0.6062,0.5724 0.6062,0.5724 0.6062,0.5724 0.6062,0.5725 0.6062,0.5724 0.6062,0.5724 0.6062,0.5724 0.6062,0.5724 0.6062,0.5724 0.6062,0.5724 0.6062,0.5724 0.6062,0.5724 0.6062,0.5724 0.6062,0.5724 0.6062,0.5725 0.6062,0.5724 0.6062,0.5724 0.6062,0.5724 0.6062,0.5724 0.6062,0.5724 0.6062,0.5724 0.6062,0.5724 0.6062,0.5724 0.6062,0.5724 0.6062,0.5724 0.6062,0.5725 0.6062,0.5724 0.6062,0.5724 0.6062,0.5724 0.6062,0.5724 0.6062,0.5724 0.6062,0.5724 0.6062,0.5724 0.6062,0.5724 0.6063,0.5724 0.6062,0.5725 0.6062,0.5724 0.6062,0.5724 0.6062,0.5724 0.6062,0.5724 0.6062,0.5724 0.6062,0.5724 0.6062,0.5724 0.6062,0.5724 0.6062,0.5724 0.6062,0.5724 0.6062,0.5725 0.6062,0.5724 0.6062,0.5724 0.6062,0.5724 0.6062,0.5724 0.6062,0.5724 0.6062,0.5724 0.6062,0.5724 0.6062,0.5724 0.6062,0.5724 0.6062,0.5724 0.6062,0.5725 0.6062,0.5724 0.6062,0.5724 0.6062,0.5724 0.6062,0.5724 0.6062,0.5724 0.6062,0.5724 0.6062,0.5724 0.6062,0.5724 0.6062,0.5724 0.6062,0.5725 0.6062,0.5724 0.6062,0.5724 0.6062,0.5724 0.6062,0.5724 0.6062,0.5724 0.6062,0.5724 0.6062,0.5724 0.6062,0.5724 0.6062,0.5724 0.6062,0.5724 0.6062,0.5725 0.6062,0.5724 0.6062,0.5724 0.6062,0.5724 0.6062,0.5724 0.6062,0.5724 0.6062,0.5724 0.6062,0.5724 0.6062,0.5724 0.6062,0.5724 0.6062,0.5724 0.6062,0.5725 0.6062,0.5724 0.6062,0.5724 0.6062,0.5724 0.6062,0.5724 0.6062,0.5724 0.6062,0.5724 0.6062,0.5724 0.6062,0.5724 0.6062,0.5724 0.6062,0.5725 0.6062,0.5724 0.6062,0.5724 0.6062,0.5724 0.6062,0.5724 0.6062,0.5724 0.6062,0.5724 0.6062,0.5724 0.6062,0.5724 0.6062,0.5724 0.60622,0.5724 0.6062,0.5725 0.6062,0.5724 0.6062,0.5724 0.6062,0.5724 0.6062,0.5724 0.6062,0.5724 0.6062,0.5724 0.6062,0.5724 0.6062,0.5724 0.6062,0.5724 0.6062,0.5724 0.6062,0.5725 0.6062,0.5724 0.6062,0.5724 0.6062,0.5724 0.6062,0.5724 0.6062,0.5724 0.6062,0.5724 0.6062,0.5724 0.6062,0.5724 0.6062,0.5724 0.6062,0.5724 0.6062,0.5725 0.6062,0.5724 0.6062,0.5724 0.6062,0.5724 0.6062,0.5724 0.6062,0.5724 0.6062,0.5724 0.6062,0.5724 0.6062,0.5724 0.6062,0.5724 0.6062,0.5725 0.6062,0.5724 0.6062,0.5724 0.6062,0.5724 0.6062,0.5724 0.6062,0.5724 0.6062,0.5724 0.6062,0.5724 0.1212,0.1145 h 1063.033 v -1003.777 l -0.1212,-0.1145 -0.6062,-0.5724 -0.6062,-0.5724 -0.6062,-0.5724 -0.6062,-0.5724 -0.6062,-0.5724 -0.6062,-0.5724 -0.6062,-0.5724 -0.6062,-0.5724 -0.6062,-0.5725 -0.6062,-0.5724 -0.6062,-0.5724 -0.6062,-0.5724 -0.6062,-0.5724 -0.6062,-0.5724 -0.6062,-0.5724 -0.6062,-0.5724 -0.6062,-0.5724 -0.6062,-0.5724 -0.6062,-0.5724 -0.6062,-0.5725 -0.6062,-0.5724 -0.6062,-0.5724 -0.6062,-0.5724 -0.6062,-0.5724 -0.6062,-0.5724 -0.6062,-0.5724 -0.6062,-0.5724 -0.6062,-0.5724 -0.6062,-0.5724 -0.6062,-0.5725 -0.6062,-0.5724 -0.6062,-0.5724 -0.6062,-0.5724 -0.6062,-0.5724 -0.6062,-0.5724 -0.6062,-0.5724 -0.6062,-0.5724 -0.6062,-0.5724 -0.6062,-0.5724 -0.6062,-0.5724 -0.6062,-0.5725 -0.6062,-0.5724 -0.6062,-0.5724 -0.6062,-0.5724 -0.6062,-0.5724 -0.6062,-0.5724 -0.6062,-0.5724 -0.6062,-0.5724 -0.6062,-0.5724 -0.6062,-0.5724 -0.6062,-0.5724 -0.6062,-0.5725 -0.6062,-0.5724 -0.6062,-0.5724 -0.6062,-0.5724 -0.6062,-0.5724 -0.6062,-0.5724 -0.6062,-0.5724 -0.6062,-0.57243 -0.6062,-0.57241 -0.6062,-0.57241 -0.6062,-0.57241 -0.6062,-0.5724 -0.6062,-0.57241 -0.6062,-0.57241 -0.6062,-0.57241 -0.6062,-0.57241 -0.6062,-0.57241 -0.6062,-0.57241 -0.6062,-0.57241 -0.6062,-0.57241 -0.6062,-0.57241 -0.6062,-0.57241 -0.6062,-0.57241 -0.6062,-0.57241 -0.6062,-0.57241 -0.6062,-0.57241 -0.6062,-0.5724 -0.6062,-0.57241 -0.6062,-0.57241 -0.6062,-0.57241 -0.6063,-0.57241 -0.6062,-0.57241 -0.6062,-0.57241 -0.6062,-0.57241 -0.6062,-0.57241 -0.6062,-0.57241 -0.6062,-0.57241 -0.6062,-0.57241 -0.6062,-0.57241 -0.6062,-0.57241 -0.6062,-0.57241 -0.6062,-0.57241 -0.6062,-0.5724 -0.6062,-0.57241 -0.6062,-0.57241 -0.6062,-0.57241 -0.6062,-0.57241 -0.6062,-0.57241 -0.6062,-0.57241 -0.6062,-0.57241 -0.6062,-0.57241 -0.6062,-0.57241 -0.6062,-0.57241 -0.6062,-0.57241 -0.6062,-0.57241 -0.6062,-0.57241 -0.6062,-0.57241 -0.6062,-0.5724 -0.6062,-0.57241 -0.6062,-0.57241 -0.6062,-0.57241 -0.6062,-0.57241 -0.6062,-0.57241 -0.6062,-0.57241 -0.6062,-0.57241 -0.6062,-0.57241 -0.6062,-0.57241 -0.6062,-0.57241 -0.6062,-0.57241 -0.6062,-0.57241 -0.6062,-0.57241 -0.6062,-0.57241 -0.6062,-0.57241 -0.6062,-0.5724 -0.6062,-0.57241 -0.6062,-0.57241 -0.6062,-0.57241 -0.6062,-0.57241 -0.6062,-0.57241 -0.6062,-0.57241 -0.6062,-0.57241 -0.6062,-0.57241 -0.6062,-0.57241 -0.6062,-0.57241 -0.6062,-0.57241 -0.6062,-0.57241 -0.6062,-0.57241 -0.6062,-0.57241 -0.6062,-0.5724 -0.6062,-0.57241 -0.6062,-0.57241 -0.6062,-0.57241 -0.6062,-0.57241 -0.6062,-0.57241 -0.6062,-0.57241 -0.6062,-0.57241 -0.6062,-0.57241 -0.6062,-0.57241 -0.6062,-0.57241 -0.6062,-0.57241 -0.6062,-0.57241 -0.6062,-0.57241 -0.6062,-0.57241 -0.6062,-0.57241 -0.6062,-0.5724 -0.6062,-0.57241 -0.6062,-0.57241 -0.6062,-0.57241 -0.6062,-0.57241 -0.6062,-0.57241 -0.6062,-0.57241 -0.6062,-0.57241 -0.6062,-0.57241 -0.6062,-0.57241 -0.6062,-0.57241 -0.6062,-0.57241 -0.6062,-0.57241 -0.6062,-0.57241 -0.6062,-0.57241 -0.6062,-0.5724 -0.6062,-0.57241 -0.6062,-0.57241 -0.6062,-0.57241 -0.6062,-0.57241 -0.6062,-0.57241 -0.6062,-0.57241 -0.6062,-0.57241 -0.6062,-0.57241 -0.6062,-0.57241 -0.6062,-0.57241 -0.6062,-0.57241 -0.6062,-0.57241 -0.6062,-0.57241 -0.6062,-0.57241 -0.6062,-0.57241 -0.6062,-0.5724 -0.6062,-0.57241 -0.6062,-0.57241 -0.6062,-0.57241 -0.6062,-0.57241 -0.6062,-0.57241 -0.6062,-0.57241 -0.6062,-0.57241 -0.6062,-0.57241 -0.6062,-0.57241 -0.6062,-0.57241 -0.6062,-0.57241 -0.6062,-0.57241 -0.6062,-0.57241 -0.6062,-0.57241 -0.6062,-0.5724 -0.6062,-0.57241 -0.6062,-0.57241 -0.6062,-0.57241 -0.6062,-0.57241 -0.6062,-0.57241 -0.6062,-0.57241 -0.6062,-0.57241 -0.6062,-0.57241 -0.6062,-0.57241 -0.6062,-0.57241 -0.6062,-0.57241 -0.6062,-0.57241 -0.6062,-0.57241 -0.6062,-0.57241 -0.6062,-0.57241 -0.6062,-0.5724 -0.6062,-0.57241 -0.6062,-0.57241 -0.6062,-0.57241 -0.6062,-0.57241 -0.6062,-0.57241 -0.6062,-0.57241 -0.6062,-0.57241 -0.6062,-0.57241 -0.6062,-0.57241 -0.6062,-0.57241 -0.6062,-0.57241 -0.6062,-0.57241 -0.6062,-0.57241 -0.6062,-0.57241 -0.6062,-0.5724 -0.6062,-0.57241 -0.6062,-0.57241 -0.6062,-0.57241 -0.6062,-0.57241 -0.6062,-0.57241 -0.6062,-0.57241 -0.6062,-0.57241 -0.6062,-0.57241 -0.6062,-0.57241 -0.6062,-0.57241 -0.6062,-0.57241 -0.6062,-0.57241 -0.6062,-0.57241 -0.6062,-0.57241 -0.6062,-0.57241 -0.6062,-0.5724 -0.6062,-0.57241 -0.6062,-0.57241 -0.6062,-0.57241 -0.6062,-0.57241 -0.6062,-0.57241 -0.6062,-0.57241 -0.6062,-0.57241 -0.6062,-0.57241 -0.6062,-0.57241 -0.6062,-0.57241 -0.6062,-0.57241 -0.6062,-0.57241 -0.6062,-0.57241 -0.6062,-0.57241 -0.6062,-0.5724 -0.6062,-0.57241 -0.6062,-0.57241 -0.6062,-0.57241 -0.6062,-0.57241 -0.6062,-0.57241 -0.6062,-0.57241 -0.6062,-0.57241 -0.6062,-0.57241 -0.6062,-0.57241 -0.6062,-0.57241 -0.6062,-0.57241 -0.6062,-0.57241 -0.6062,-0.57241 -0.6062,-0.57241 -0.6062,-0.57241 -0.6062,-0.5724 -0.6062,-0.57241 -0.6062,-0.57241 -0.6062,-0.57241 -0.6062,-0.57241 -0.6062,-0.57241 -0.6062,-0.57241 -0.6062,-0.57241 -0.6062,-0.57241 -0.6062,-0.57241 -0.6062,-0.57241 -0.6062,-0.57241 -0.6062,-0.57241 -0.6062,-0.57241 -0.6062,-0.57241 -0.6062,-0.5724 -0.6062,-0.57241 -0.6062,-0.57241 -0.6062,-0.57241 -0.6062,-0.57241 -0.6062,-0.57241 -0.6062,-0.57241 -0.6062,-0.57241 -0.6062,-0.57241 -0.6062,-0.57241 -0.6062,-0.57241 -0.6062,-0.57241 -0.6062,-0.57241 -0.6062,-0.57241 -0.6062,-0.57241 -0.6062,-0.57241 -0.6062,-0.5724 -0.6062,-0.57241 -0.6062,-0.57241 -0.6062,-0.57241 -0.6062,-0.57241 -0.6062,-0.57241 -0.6062,-0.57241 -0.6062,-0.57241 -0.6062,-0.57241 -0.6062,-0.57241 -0.6062,-0.57241 -0.6062,-0.57241 -0.6062,-0.57241 -0.6062,-0.57241 -0.6062,-0.57241 -0.6062,-0.5724 -0.6062,-0.57241 -0.6062,-0.57241 -0.6062,-0.57241 -0.6062,-0.57241 -0.6062,-0.57241 -0.6062,-0.57241 -0.6062,-0.57241 -0.6062,-0.57241 -0.6062,-0.57241 -0.6062,-0.57241 -0.6062,-0.57241 -0.6062,-0.57241 -0.6062,-0.57241 -0.6063,-0.57241 -0.6062,-0.57241 -0.6062,-0.5724 -0.6062,-0.57241 -0.6062,-0.57241 -0.6062,-0.57241 -0.6062,-0.57241 -0.6062,-0.57241 -0.6062,-0.57241 -0.6062,-0.57241 -0.6062,-0.57241 -0.6062,-0.57241 -0.6062,-0.57241 -0.6062,-0.57241 -0.6062,-0.57241 -0.6062,-0.57241 -0.6062,-0.57241 -0.6062,-0.5724 -0.6062,-0.57241 -0.6062,-0.57241 -0.6062,-0.57241 -0.6062,-0.57241 -0.6062,-0.57241 -0.6062,-0.57241 -0.6062,-0.57241 -0.6062,-0.57241 -0.6062,-0.57241 -0.6062,-0.57241 -0.6062,-0.57241 -0.6062,-0.57241 -0.6062,-0.57241 -0.6062,-0.57241 -0.6062,-0.57241 -0.6062,-0.5724 -0.6062,-0.57241 -0.6062,-0.57241 -0.6062,-0.57241 -0.6062,-0.57241 -0.6062,-0.57241 -0.6062,-0.57241 -0.6062,-0.57241 -0.6062,-0.57241 -0.6062,-0.57241 -0.6062,-0.57241 -0.6062,-0.57241 -0.6062,-0.57241 -0.6062,-0.57241 -0.6062,-0.57241 -0.6062,-0.5724 -0.6062,-0.57241 -0.6062,-0.57241 -0.6062,-0.57241 -0.6062,-0.57241 -0.6062,-0.57241 -0.6062,-0.57241 -0.6062,-0.57241 -0.6062,-0.57241 -0.6062,-0.57241 -0.6062,-0.57241 -0.6062,-0.57241 -0.6062,-0.57241 -0.6062,-0.57241 -0.6062,-0.57241 -0.6062,-0.57241 -0.6062,-0.5724 -0.6062,-0.57241 -0.6062,-0.57241 -0.6062,-0.57241 -0.6062,-0.57241 -0.6062,-0.57241 -0.6062,-0.57241 -0.6062,-0.57241 -0.6062,-0.57241 -0.6062,-0.57241 -0.6062,-0.57241 -0.6062,-0.57241 -0.6062,-0.57241 -0.6062,-0.57241 -0.6062,-0.57241 -0.6062,-0.5724 -0.6062,-0.57241 -0.6062,-0.57241 -0.6062,-0.57241 -0.6062,-0.57241 -0.6062,-0.57241 -0.6062,-0.57241 -0.6062,-0.57241 -0.6062,-0.57241 -0.6062,-0.57241 -0.6062,-0.57241 -0.6062,-0.57241 -0.6062,-0.57241 -0.6062,-0.57241 -0.6062,-0.57241 -0.6062,-0.57241 -0.6062,-0.5724 -0.6062,-0.57241 -0.6062,-0.57241 -0.6062,-0.57241 -0.6062,-0.57241 -0.6062,-0.57241 -0.6062,-0.57241 -0.6062,-0.57241 -0.6062,-0.57241 -0.6062,-0.57241 -0.6062,-0.57241 -0.6062,-0.57241 -0.6062,-0.57241 -0.6062,-0.57241 -0.6062,-0.57241 -0.6062,-0.5724 -0.6062,-0.57241 -0.6062,-0.57241 -0.6062,-0.57241 -0.6062,-0.57241 -0.6062,-0.57241 -0.6062,-0.57241 -0.6062,-0.57241 -0.6062,-0.57241 -0.6062,-0.57241 -0.6062,-0.57241 -0.6062,-0.57241 -0.6062,-0.57241 -0.6062,-0.57241 -0.6062,-0.57241 -0.6062,-0.57241 -0.6062,-0.5724 -0.6062,-0.57241 -0.6062,-0.57241 -0.6062,-0.57241 -0.6062,-0.57241 -0.6062,-0.57241 -0.6062,-0.57241 -0.6062,-0.57241 -0.6062,-0.57241 -0.6062,-0.57241 -0.6062,-0.57241 -0.6062,-0.57241 -0.6062,-0.57241 -0.6062,-0.57241 -0.6062,-0.57241 -0.6062,-0.5724 -0.6062,-0.57241 -0.6062,-0.57241 -0.6062,-0.57241 -0.6062,-0.57241 -0.6062,-0.57241 -0.6062,-0.57241 -0.6062,-0.57241 -0.6062,-0.57241 -0.6062,-0.57241 -0.6062,-0.57241 -0.6062,-0.57241 -0.6062,-0.57241 -0.6062,-0.57241 -0.6062,-0.57241 -0.6062,-0.57241 -0.6062,-0.5724 -0.6062,-0.57241 -0.6062,-0.57241 -0.6062,-0.57241 -0.6062,-0.57241 -0.6062,-0.57241 -0.6062,-0.57241 -0.6062,-0.57241 -0.6062,-0.57241 -0.6062,-0.57241 -0.6062,-0.57241 -0.6062,-0.57241 -0.6062,-0.57241 -0.6062,-0.57241 -0.6062,-0.57241 -0.6062,-0.5724 -0.6062,-0.57241 -0.6062,-0.57241 -0.6062,-0.57241 -0.6062,-0.57241 -0.6062,-0.57241 -0.6062,-0.57241 -0.6062,-0.57241 -0.6062,-0.57241 -0.6062,-0.57241 -0.6062,-0.57241 -0.6062,-0.57241 -0.6062,-0.57241 -0.6062,-0.57241 -0.6062,-0.57241 -0.6062,-0.57241 -0.6062,-0.5724 -0.6062,-0.57241 -0.6062,-0.57241 -0.6062,-0.57241 -0.6062,-0.57241 -0.6062,-0.57241 -0.6062,-0.57241 -0.6062,-0.57241 -0.6062,-0.57241 -0.6062,-0.57241 -0.6062,-0.57241 -0.6062,-0.57241 -0.6062,-0.57241 -0.6062,-0.57241 -0.6062,-0.57241 -0.6062,-0.5724 -0.6062,-0.57241 -0.6062,-0.57241 -0.6062,-0.57241 -0.6062,-0.57241 -0.6062,-0.57241 -0.6062,-0.57241 -0.6062,-0.57241 -0.6062,-0.57241 -0.6062,-0.57241 -0.6062,-0.57241 -0.6062,-0.57241 -0.6062,-0.57241 -0.6062,-0.57241 -0.6062,-0.57241 -0.6062,-0.57241 -0.6062,-0.5724 -0.6062,-0.57241 -0.6062,-0.57241 -0.6062,-0.57241 -0.6062,-0.57241 -0.6062,-0.57241 -0.6062,-0.57241 -0.6062,-0.57241 -0.6062,-0.57241 -0.6062,-0.57241 -0.6062,-0.57241 -0.6062,-0.57241 -0.6062,-0.57241 -0.6062,-0.57241 -0.6062,-0.57241 -0.6062,-0.5724 -0.6062,-0.57241 -0.6062,-0.57241 -0.6062,-0.57241 -0.6062,-0.57241 -0.6062,-0.57241 -0.6062,-0.57241 -0.6062,-0.57241 -0.6062,-0.57241 -0.6062,-0.57241 -0.6062,-0.57241 -0.6062,-0.57241 -0.6062,-0.57241 -0.6062,-0.57241 -0.6062,-0.57241 -0.6062,-0.57241 -0.6062,-0.5724 -0.6062,-0.57241 -0.6062,-0.57241 -0.6062,-0.57241 -0.6062,-0.57241 -0.6062,-0.57241 -0.6062,-0.57241 -0.6062,-0.57241 -0.6063,-0.57241 -0.6062,-0.57241 -0.6062,-0.57241 -0.6062,-0.57241 -0.6062,-0.57241 -0.6062,-0.57241 -0.6062,-0.57241 -0.6062,-0.5724 -0.6062,-0.57241 -0.6062,-0.57241 -0.6062,-0.57241 -0.6062,-0.57241 -0.6062,-0.57241 -0.6062,-0.57241 -0.6062,-0.57241 -0.6062,-0.57241 -0.6062,-0.57241 -0.6062,-0.57241 -0.6062,-0.57241 -0.6062,-0.57241 -0.6062,-0.57241 -0.6062,-0.57241 -0.6062,-0.57241 -0.6062,-0.5724 -0.6062,-0.57241 -0.6062,-0.57241 -0.6062,-0.57241 -0.6062,-0.57241 -0.6062,-0.57241 -0.6062,-0.57241 -0.6062,-0.57241 -0.6062,-0.57241 -0.6062,-0.57241 -0.6062,-0.57241 -0.6062,-0.57241 -0.6062,-0.57241 -0.6062,-0.57241 -0.6062,-0.57241 -0.6062,-0.5724 -0.6062,-0.57241 -0.6062,-0.57241 -0.6062,-0.57241 -0.6062,-0.57241 -0.6062,-0.57241 -0.6062,-0.57241 -0.6062,-0.57241 -0.6062,-0.57241 -0.6062,-0.57241 -0.6062,-0.57241 -0.6062,-0.57241 -0.6062,-0.57241 -0.6062,-0.57241 -0.6062,-0.57241 -0.6062,-0.57241 -0.6062,-0.5724 -0.6062,-0.57241 -0.6062,-0.57241 -0.6062,-0.57241 -0.6062,-0.57241 -0.6062,-0.57241 -0.6062,-0.57241 -0.6062,-0.57241 -0.6062,-0.57241 -0.6062,-0.57241 -0.6062,-0.57241 -0.6062,-0.57241 -0.6062,-0.57241 -0.6062,-0.57241 -0.6062,-0.57241 -0.6062,-0.5724 -0.6062,-0.57241 -0.6062,-0.57241 -0.6062,-0.57241 -0.6062,-0.57241 -0.6062,-0.57241 -0.6062,-0.57241 -0.6062,-0.57241 -0.6062,-0.57241 -0.6062,-0.57241 -0.6062,-0.57241 -0.6062,-0.57241 -0.6062,-0.57241 -0.6062,-0.57241 -0.6062,-0.57241 -0.6062,-0.57241 -0.6062,-0.5724 -0.6062,-0.57241 -0.6062,-0.57241 -0.6062,-0.57241 -0.6062,-0.57241 -0.6062,-0.57241 -0.6062,-0.57241 -0.6062,-0.57241 -0.6062,-0.57241 -0.6062,-0.57241 -0.6062,-0.57241 -0.6062,-0.57241 -0.6062,-0.57241 -0.6062,-0.57241 -0.6062,-0.57241 -0.6062,-0.5724 -0.6062,-0.57241 -0.6062,-0.57241 -0.6062,-0.57241 -0.6062,-0.57241 -0.6062,-0.57241 -0.6062,-0.57241 -0.6062,-0.57241 -0.6062,-0.57241 -0.6062,-0.57241 -0.6062,-0.57241 -0.6062,-0.57241 -0.6062,-0.57241 -0.6062,-0.57241 -0.6062,-0.57241 -0.6062,-0.57241 -0.6062,-0.5724 -0.6062,-0.57241 -0.6062,-0.57241 -0.6062,-0.57241 -0.6062,-0.57241 -0.6062,-0.57241 -0.6062,-0.57241 -0.6062,-0.57241 -0.6062,-0.57241 -0.6062,-0.57241 -0.6062,-0.57241 -0.6062,-0.57241 -0.6062,-0.57241 -0.6062,-0.57241 -0.6062,-0.57241 -0.6062,-0.57241 -0.6062,-0.5724 -0.6062,-0.57241 -0.6062,-0.57241 -0.6062,-0.57241 -0.6062,-0.57241 -0.6062,-0.57241 -0.6062,-0.57241 -0.6062,-0.57241 -0.6062,-0.57241 -0.6062,-0.57241 -0.6062,-0.57241 -0.6062,-0.57241 -0.6062,-0.57241 -0.6062,-0.57241 -0.6062,-0.57241 -0.6062,-0.5724 -0.6062,-0.57241 -0.6062,-0.57241 -0.6062,-0.57241 -0.6062,-0.57241 -0.6062,-0.57241 -0.6062,-0.57241 -0.6062,-0.57241 -0.6062,-0.57241 -0.6062,-0.57241 -0.6062,-0.57241 -0.6062,-0.57241 -0.6062,-0.57241 -0.6062,-0.57241 -0.6062,-0.57241 -0.6062,-0.57241 -0.6062,-0.5724 -0.6062,-0.57241 -0.6062,-0.57241 -0.6062,-0.57241 -0.6062,-0.57241 -0.6062,-0.57241 -0.6062,-0.57241 -0.6062,-0.57241 -0.6062,-0.57241 -0.6062,-0.57241 -0.6062,-0.57241 -0.6062,-0.57241 -0.6062,-0.57241 -0.6062,-0.57241 -0.6062,-0.57241 -0.6062,-0.5724 -0.6062,-0.57241 -0.6062,-0.57241 -0.6062,-0.57241 -0.6062,-0.57241 -0.6062,-0.57241 -0.6062,-0.57241 -0.6062,-0.57241 -0.6062,-0.57241 -0.6062,-0.57241 -0.6062,-0.57241 -0.6062,-0.57241 -0.6062,-0.57241 -0.6062,-0.57241 -0.6062,-0.57241 -0.6062,-0.57241 -0.6062,-0.5724 -0.6062,-0.57241 -0.6062,-0.57241 -0.6062,-0.57241 -0.6062,-0.57241 -0.6062,-0.57241 -0.6062,-0.57241 -0.6062,-0.57241 -0.6062,-0.57241 -0.6062,-0.57241 -0.6062,-0.57241 -0.6062,-0.57241 -0.6062,-0.57241 -0.6062,-0.57241 -0.6062,-0.57241 -0.6062,-0.5724 -0.6062,-0.57241 -0.6062,-0.57241 -0.6062,-0.57241 -0.6062,-0.57241 -0.6062,-0.57241 -0.6062,-0.57241 -0.6062,-0.57241 -0.6062,-0.57241 -0.6062,-0.57241 -0.6062,-0.57241 -0.6062,-0.57241 -0.6062,-0.57241 -0.6062,-0.57241 -0.6062,-0.57241 -0.6062,-0.57241 -0.6062,-0.5724 -0.6062,-0.57241 -0.6062,-0.57241 -0.6062,-0.57241 -0.6062,-0.57241 -0.6062,-0.57241 -0.6062,-0.57241 -0.6062,-0.57241 -0.6062,-0.57241 -0.6062,-0.57241 -0.6062,-0.57241 -0.6062,-0.57241 -0.6062,-0.57241 -0.6062,-0.57241 -0.6062,-0.57241 -0.6062,-0.5724 -0.6062,-0.57241 -0.6062,-0.57241 -0.6062,-0.57241 -0.6062,-0.57241 -0.6062,-0.57241 -0.6062,-0.57241 -0.6062,-0.57241 -0.6062,-0.57241 -0.6062,-0.57241 -0.6062,-0.57241 -0.6062,-0.57241 -0.6062,-0.57241 -0.6062,-0.57241 -0.6062,-0.57241 -0.6062,-0.57241 -0.6062,-0.5724 -0.6062,-0.57241 -0.6062,-0.57241 -0.6063,-0.57241 -0.6062,-0.57241 -0.6062,-0.57241 -0.6062,-0.57241 -0.6062,-0.57241 -0.6062,-0.57241 -0.6062,-0.57241 -0.6062,-0.57241 -0.6062,-0.57241 -0.6062,-0.57241 -0.6062,-0.57241 -0.6062,-0.57241 -0.6062,-0.5724 -0.6062,-0.57241 -0.6062,-0.57241 -0.6062,-0.57241 -0.6062,-0.57241 -0.6062,-0.57241 -0.6062,-0.57241 -0.6062,-0.57241 -0.6062,-0.57241 -0.6062,-0.57241 -0.6062,-0.57241 -0.6062,-0.57241 -0.6062,-0.57241 -0.6062,-0.57241 -0.6062,-0.57241 -0.6062,-0.57241 -0.6062,-0.5724 -0.6062,-0.57241 -0.6062,-0.57241 -0.6062,-0.57241 -0.6062,-0.57241 -0.6062,-0.57241 -0.6062,-0.57241 -0.6062,-0.57241 -0.6062,-0.57241 -0.6062,-0.57241 -0.6062,-0.57241 -0.6062,-0.57241 -0.6062,-0.57241 -0.6062,-0.57241 -0.6062,-0.57241 -0.6062,-0.5724 -0.6062,-0.57241 -0.6062,-0.57241 -0.6062,-0.57241 -0.6062,-0.57241 -0.6062,-0.57241 -0.6062,-0.57241 -0.6062,-0.57241 -0.6062,-0.57241 -0.6062,-0.57241 -0.6062,-0.57241 -0.6062,-0.57241 -0.6062,-0.57241 -0.6062,-0.57241 -0.6062,-0.57241 -0.6062,-0.57241 -0.6062,-0.5724 -0.6062,-0.57241 -0.6062,-0.57241 -0.6062,-0.57241 -0.6062,-0.57241 -0.6062,-0.57241 -0.6062,-0.57241 -0.6062,-0.57241 -0.6062,-0.57241 -0.6062,-0.57241 -0.6062,-0.57241 -0.6062,-0.57241 -0.6062,-0.57241 -0.6062,-0.57241 -0.6062,-0.57241 -0.6062,-0.5724 -0.6062,-0.57241 -0.6062,-0.57241 -0.6062,-0.57241 -0.6062,-0.57241 -0.6062,-0.57241 -0.6062,-0.57241 -0.6062,-0.57241 -0.6062,-0.57241 -0.6062,-0.57241 -0.6062,-0.57241 -0.6062,-0.57241 -0.6062,-0.57241 -0.6062,-0.57241 -0.6062,-0.57241 -0.6062,-0.57241 -0.6062,-0.5724 -0.6062,-0.57241 -0.6062,-0.57241 -0.6062,-0.57241 -0.6062,-0.57241 -0.6062,-0.57241 -0.6062,-0.57241 -0.6062,-0.57241 -0.6062,-0.57241 -0.6062,-0.57241 -0.6062,-0.57241 -0.6062,-0.57241 -0.6062,-0.57241 -0.6062,-0.57241 -0.6062,-0.57241 -0.6062,-0.5724 -0.6062,-0.57241 -0.6062,-0.57241 -0.6062,-0.57241 -0.6062,-0.57241 -0.6062,-0.57241 -0.6062,-0.57241 -0.6062,-0.57241 -0.6062,-0.57241 -0.6062,-0.57241 -0.6062,-0.57241 -0.6062,-0.57241 -0.6062,-0.57241 -0.6062,-0.57241 -0.6062,-0.57241 -0.6062,-0.57241 -0.6062,-0.5724 -0.6062,-0.57241 -0.6062,-0.57241 -0.6062,-0.57241 -0.6062,-0.57241 -0.6062,-0.57241 -0.6062,-0.57241 -0.6062,-0.57241 -0.6062,-0.57241 -0.6062,-0.57241 -0.6062,-0.57241 -0.6062,-0.57241 -0.6062,-0.57241 -0.6062,-0.57241 -0.6062,-0.57241 -0.6062,-0.5724 -0.6062,-0.57241 -0.6062,-0.57241 -0.6062,-0.57241 -0.6062,-0.57241 -0.6062,-0.57241 -0.6062,-0.57241 -0.6062,-0.57241 -0.6062,-0.57241 -0.6062,-0.57241 -0.6062,-0.57241 -0.6062,-0.57241 -0.6062,-0.57241 -0.6062,-0.57241 -0.6062,-0.57241 -0.6062,-0.57241 -0.6062,-0.5724 -0.6062,-0.57241 -0.6062,-0.57241 -0.6062,-0.57241 -0.6062,-0.57241 -0.6062,-0.57241 -0.6062,-0.57241 -0.6062,-0.57241 -0.6062,-0.57241 -0.6062,-0.57241 -0.6062,-0.57241 -0.6062,-0.57241 -0.6062,-0.57241 -0.6062,-0.57241 -0.6062,-0.57241 -0.6062,-0.5724 -0.6062,-0.57241 -0.6062,-0.57241 -0.6062,-0.57241 -0.6062,-0.57241 -0.6062,-0.57241 -0.6062,-0.57241 -0.6062,-0.57241 -0.6062,-0.57241 -0.6062,-0.57241 -0.6062,-0.57241 -0.6062,-0.57241 -0.6062,-0.57241 -0.6062,-0.57241 -0.6062,-0.57241 -0.6062,-0.57241 -0.6062,-0.5724 -0.6062,-0.57241 -0.6062,-0.57241 -0.6062,-0.57241 c -68.9856,-65.14019 -149.3678,-116.31358 -238.9642,-152.14641 -92.6274,-36.97764 -191.0744,-55.75267 -292.55232,-55.75267 -101.47795,0 -199.9249,18.77503 -292.55232,55.75267 -89.47517,35.71835 -169.85735,86.89174 -238.96419,152.14641 -68.9856,65.14018 -123.17992,141.04166 -161.12806,225.64377 -39.16055,87.46414 -59.04392,180.42342 -59.04392,276.24475 0,95.82131 19.88337,188.78061 59.04392,276.24471 37.8269,84.4876 92.02122,160.3891 161.12806,225.6438 l 0.6062,0.5724 0.6062,0.5724 0.6062,0.5724 0.6062,0.5724 0.6062,0.5724 0.6062,0.5724 0.6062,0.5724 0.6062,0.5724 0.6062,0.5724 0.6062,0.5725 0.6062,0.5724 0.60621,0.5724 0.6062,0.5724 0.6062,0.5724 0.6062,0.5724 0.6062,0.5724 0.6062,0.5724 0.6062,0.5724 0.6062,0.5724 0.6062,0.5724 0.6062,0.5725 0.6062,0.5724 0.6062,0.5724 0.6062,0.5724 0.6062,0.5724 0.6062,0.5724 0.6062,0.5724 0.6062,0.5724 0.6062,0.5724 0.6062,0.5724 0.6062,0.5725 0.6062,0.5724 0.6062,0.5724 0.6062,0.5724 0.6062,0.5724 0.6062,0.5724 0.6062,0.5724 0.60621,0.5724 0.6062,0.5724 0.6062,0.5724 0.6062,0.5724 0.6062,0.5725 0.6062,0.5724 0.6062,0.5724 0.6062,0.5724 0.6062,0.5724 0.6062,0.5724 0.6062,0.5724 0.6062,0.5724 0.6062,0.5724 0.6062,0.5724 0.6062,0.5724 0.6062,0.5725 0.6062,0.5724 0.6062,0.5724 0.6062,0.5724 0.6062,0.5724 0.6062,0.5724 0.6062,0.5724 0.6062,0.5724 0.6062,0.5724 0.6062,0.5724 0.60621,0.5725 0.6062,0.5724 0.6062,0.5724 0.6062,0.5724 0.6062,0.5724 0.6062,0.5724 0.6062,0.5724 0.6062,0.5724 0.6062,0.5724 0.6062,0.5724 0.6062,0.5724 0.6062,0.5725 0.6062,0.5724 0.6062,0.5724 0.6062,0.5724 0.6062,0.5724 0.6062,0.5724 0.6062,0.5724 0.6062,0.5724 0.6062,0.5724 0.6062,0.5724 0.6062,0.5724 0.6062,0.5725 0.6062,0.5724 0.6062,0.5724 0.6062,0.5724 0.60621,0.5724 0.6062,0.5724 0.6062,0.5724 0.6062,0.5724 0.6062,0.5724 0.6062,0.5724 0.6062,0.5724 0.6062,0.5725 0.6062,0.5724 0.6062,0.5724 0.6062,0.5724 0.6062,0.5724 0.6062,0.5724 0.6062,0.5724 0.6062,0.5724 0.6062,0.5724 0.6062,0.5724 0.6062,0.5725 0.6062,0.5724 0.6062,0.5724 0.6062,0.5724 0.6062,0.5724 0.6062,0.5724 0.6062,0.5724 0.6062,0.5724 0.6062,0.5724 0.60621,0.5724 0.6062,0.5724 0.6062,0.5725 0.6062,0.5724 0.6062,0.5724 0.6062,0.5724 0.6062,0.5724 0.6062,0.5724 0.6062,0.5724 0.6062,0.5724 0.6062,0.5724 0.6062,0.5724 0.6062,0.5724 0.6062,0.5725 0.6062,0.5724 0.6062,0.5724 0.6062,0.5724 0.6062,0.5724 0.6062,0.5724 0.6062,0.5724 0.6062,0.5724 0.6062,0.5724 0.6062,0.5724 0.6062,0.5725 0.6062,0.5724 0.6062,0.5724 0.60621,0.5724 0.6062,0.5724 0.6062,0.5724 0.6062,0.5724 0.6062,0.5724 0.6062,0.5724 0.6062,0.5724 0.6062,0.5724 0.6062,0.5725 0.6062,0.5724 0.6062,0.5724 z"
   id="path11492"
   inkscape:connector-curvature="0"
   style="fill:url(#a);stroke-width:1.17812526" />
<ellipse
   class="st1"
   cx="923.89185"
   cy="938.16052"
   id="circle11494"
   style="fill:#cc1417;stroke-width:1.17812526"
   rx="727.44049"
   ry="686.89124" />
<path
   class="st2"
   d="m 923.89188,1625.0517 c 401.78962,0 727.44042,-307.4983 727.44042,-686.89121 H 196.45141 c 0,379.39291 325.65084,686.89121 727.44047,686.89121 z"
   id="path11496"
   inkscape:connector-curvature="0"
   style="fill:#ffffff;stroke-width:1.17812526" />
<path
   d="m 1675.2166,915.26412 c -2.9097,-87.69312 -22.6719,-172.86763 -58.6802,-253.34838 -37.8269,-84.48763 -92.0212,-160.38911 -161.128,-225.64377 -68.9856,-65.14019 -149.3678,-116.31358 -238.9642,-152.14641 -92.6274,-36.97764 -191.0744,-55.75267 -292.55232,-55.75267 -101.47795,0 -199.9249,18.77503 -292.55232,55.75267 C 541.86439,319.84391 461.48221,371.0173 392.37537,436.27197 323.38977,501.41215 269.19545,577.31363 231.24731,661.91574 195.239,742.39649 175.47687,827.571 172.56711,915.26412 h -0.36372 v 22.89637 c 0,95.82131 19.88337,188.78061 59.04392,276.24471 37.8269,84.4876 92.02122,160.3891 161.12806,225.6438 68.9856,65.1401 149.36778,116.3135 238.96419,152.1464 92.62742,36.9776 191.07437,55.7526 292.55232,55.7526 101.47792,0 199.92492,-18.775 292.55232,-55.7526 89.4752,-35.7184 169.8573,-86.8918 238.9642,-152.1464 69.1068,-65.2547 123.1799,-141.0417 161.128,-225.6438 39.1606,-87.4641 59.044,-180.4234 59.044,-276.24471 V 915.26412 Z M 275.9849,679.66043 C 311.387,600.55345 362.06535,529.57469 426.68631,468.55586 491.30727,407.53702 566.47612,359.6836 650.25302,326.25489 c 86.56541,-34.57352 178.70787,-52.08925 273.63886,-52.08925 94.93102,0 187.07342,17.51573 273.76012,52.20373 83.7769,33.42871 158.9457,81.28213 223.5667,142.30097 64.6209,61.01883 115.2993,131.99759 150.7014,211.10457 33.5835,74.87114 51.8907,153.97811 54.8005,235.60369 H 221.06314 c 2.90976,-81.62558 21.33825,-160.84703 54.92176,-235.71817 z m 1145.1125,727.99017 c -64.6209,61.0188 -139.7898,108.8723 -223.5667,142.301 -86.6866,34.5735 -178.7078,52.2037 -273.76002,52.2037 -95.05227,0 -187.07349,-17.5157 -273.76014,-52.2037 -83.7769,-33.4287 -158.94575,-81.2822 -223.56671,-142.301 -64.62096,-61.0188 -115.29931,-131.9976 -150.70141,-211.1045 -1.09116,-2.4042 -2.18233,-4.9228 -3.27349,-7.3269 -0.36372,-0.8013 -0.72744,-1.6027 -1.09116,-2.4041 -0.72744,-1.6027 -1.45488,-3.32 -2.06108,-4.9227 -0.36372,-1.0303 -0.84868,-1.9462 -1.2124,-2.9765 l -1.8186,-4.4648 c -0.48496,-1.0304 -0.84868,-2.0607 -1.2124,-3.2055 -0.6062,-1.4883 -1.09116,-2.8621 -1.69736,-4.3503 -0.48496,-1.1449 -0.84868,-2.1752 -1.2124,-3.32 -0.48496,-1.3738 -1.09116,-2.8621 -1.57612,-4.2358 -0.36372,-1.1449 -0.84868,-2.1752 -1.2124,-3.32 -0.48496,-1.3738 -0.96992,-2.7476 -1.57613,-4.2358 -0.36372,-1.1449 -0.84868,-2.2897 -1.2124,-3.32 -0.48496,-1.3738 -0.96992,-2.7476 -1.45488,-4.2358 -0.36372,-1.1449 -0.72744,-2.2897 -1.2124,-3.32 -0.48496,-1.3738 -0.96992,-2.8621 -1.45488,-4.2359 -0.36372,-1.1448 -0.72744,-2.1751 -1.09116,-3.3199 l -1.45488,-4.4648 c -0.36372,-1.0304 -0.72744,-2.0607 -0.96992,-3.2055 -0.48496,-1.6028 -0.96992,-3.32 -1.45488,-4.9227 -0.24248,-0.9159 -0.6062,-1.8317 -0.84868,-2.7476 l -2.18232,-7.5558 c -0.24248,-0.6869 -0.36372,-1.4883 -0.6062,-2.1752 l -1.45489,-5.4951 c -0.24248,-1.0303 -0.6062,-2.1751 -0.84868,-3.2055 -0.36372,-1.4882 -0.84868,-2.9765 -1.2124,-4.4648 -0.24248,-1.1448 -0.6062,-2.2896 -0.84868,-3.4344 -0.36372,-1.3738 -0.72744,-2.8621 -1.09116,-4.2358 -0.24248,-1.1449 -0.6062,-2.4042 -0.84868,-3.549 -0.36372,-1.3738 -0.6062,-2.7475 -0.96992,-4.1213 -0.24248,-1.2593 -0.6062,-2.4041 -0.84868,-3.6635 -0.36372,-1.3737 -0.6062,-2.7475 -0.96992,-4.1213 -0.24248,-1.2593 -0.48496,-2.4041 -0.72744,-3.6634 -0.24248,-1.3738 -0.6062,-2.7476 -0.84868,-4.1214 -0.24248,-1.2593 -0.48496,-2.4041 -0.72744,-3.6634 -0.24248,-1.3738 -0.48496,-2.7475 -0.84868,-4.1213 -0.24248,-1.2593 -0.48496,-2.4042 -0.72744,-3.6635 -0.24248,-1.3737 -0.48496,-2.862 -0.72744,-4.2358 -0.24248,-1.1448 -0.36372,-2.4041 -0.6062,-3.5489 l -0.72744,-4.4648 c -0.24248,-1.1448 -0.36372,-2.1752 -0.6062,-3.32 l -0.72744,-5.1517 -0.36372,-2.7475 c -0.36373,-2.6331 -0.72745,-5.1517 -1.09117,-7.7848 l -0.36372,-2.7476 c -0.24248,-1.7172 -0.48496,-3.4344 -0.6062,-5.0372 -0.12124,-1.1448 -0.24248,-2.2896 -0.36372,-3.3199 -0.12124,-1.4883 -0.36372,-3.0911 -0.48496,-4.5793 -0.12124,-1.1448 -0.24248,-2.2897 -0.36372,-3.549 -0.12124,-1.4882 -0.24248,-2.97649 -0.48496,-4.46476 -0.12124,-1.14481 -0.24248,-2.40411 -0.36372,-3.54893 l -0.36372,-4.4648 c -0.12124,-1.14481 -0.24248,-2.40412 -0.24248,-3.54893 l -0.36372,-4.4648 c -0.12124,-1.14482 -0.12124,-2.40412 -0.24248,-3.54894 -0.12124,-1.48826 -0.12124,-2.97652 -0.24248,-4.46479 -0.12124,-1.14482 -0.12124,-2.40412 -0.24248,-3.54894 -0.12124,-1.48826 -0.12124,-3.09101 -0.24248,-4.57927 0,-1.14482 -0.12124,-2.28964 -0.12124,-3.43446 v -1.14482 h 1405.5362 v 1.14482 c 0,1.14482 -0.1212,2.28964 -0.1212,3.43446 -0.1213,1.48826 -0.1213,3.09101 -0.2425,4.57927 0,1.14482 -0.1212,2.40412 -0.2425,3.54894 -0.1212,1.48827 -0.1212,2.97653 -0.2425,4.46479 -0.1212,1.14482 -0.1212,2.40412 -0.2424,3.54894 l -0.3638,4.4648 c -0.1212,1.14481 -0.1212,2.40412 -0.2424,3.54893 l -0.3638,4.4648 c -0.1212,1.14482 -0.2424,2.40412 -0.3637,3.54893 -0.1212,1.48827 -0.2425,2.97656 -0.4849,4.46476 l -0.3638,3.4345 c -0.1212,1.6027 -0.3637,3.091 -0.4849,4.6938 -0.1213,1.0303 -0.2425,2.1751 -0.3637,3.2054 -0.2425,1.7173 -0.485,3.549 -0.6062,5.2662 -0.1213,0.9159 -0.2425,1.7172 -0.3638,2.6331 -0.3637,2.6331 -0.7274,5.1517 -1.0911,7.7848 l -0.3637,2.4041 c -0.2425,1.8317 -0.485,3.6634 -0.8487,5.3806 -0.1213,1.0304 -0.3637,2.1752 -0.485,3.2055 -0.2425,1.4883 -0.4849,3.091 -0.7274,4.5793 -0.2425,1.1448 -0.3637,2.2896 -0.6062,3.4345 -0.2425,1.4882 -0.485,2.862 -0.7275,4.3503 -0.2424,1.1448 -0.4849,2.4041 -0.7274,3.5489 -0.2425,1.3738 -0.485,2.8621 -0.8487,4.2358 -0.2425,1.1449 -0.4849,2.4042 -0.7274,3.549 -0.2425,1.3738 -0.6062,2.862 -0.8487,4.2358 -0.2425,1.1448 -0.485,2.4041 -0.7274,3.5489 -0.3638,1.3738 -0.6062,2.7476 -0.97,4.2359 -0.2424,1.1448 -0.4849,2.4041 -0.8486,3.5489 -0.3638,1.3738 -0.6062,2.8621 -0.97,4.2358 -0.2424,1.1449 -0.6062,2.2897 -0.8486,3.549 -0.3638,1.4882 -0.7275,2.862 -1.0912,4.3503 -0.2425,1.1448 -0.6062,2.2896 -0.8487,3.32 -0.3637,1.4882 -0.8487,3.091 -1.2124,4.5792 -0.2425,1.0304 -0.4849,2.0607 -0.8487,3.091 -0.4849,1.8317 -0.9699,3.7779 -1.5761,5.6096 -0.2425,0.6869 -0.3637,1.3738 -0.6062,2.0607 l -2.1823,7.5558 c -0.2425,0.9159 -0.485,1.7172 -0.8487,2.6331 -0.485,1.7172 -0.9699,3.32 -1.5761,5.0372 -0.3637,1.0303 -0.6062,2.0607 -0.9699,3.091 l -1.4549,4.4648 c -0.3637,1.0303 -0.7275,2.1752 -1.0912,3.2055 -0.4849,1.4883 -0.9699,2.862 -1.4549,4.3503 -0.3637,1.1448 -0.7274,2.1752 -1.0911,3.32 -0.485,1.3738 -0.9699,2.862 -1.4549,4.2358 -0.3637,1.1448 -0.8487,2.1752 -1.2124,3.32 -0.485,1.3738 -0.9699,2.862 -1.5761,4.2358 -0.3637,1.1448 -0.8487,2.1752 -1.2124,3.32 -0.485,1.3738 -1.0912,2.862 -1.5761,4.2358 -0.3638,1.1448 -0.8487,2.1752 -1.2124,3.32 -0.6062,1.4883 -1.0912,2.862 -1.6974,4.3503 -0.3637,1.0303 -0.8487,2.0607 -1.2124,3.2055 l -1.8186,4.4648 c -0.3637,1.0303 -0.8487,1.9462 -1.2124,2.9765 -0.7274,1.6028 -1.4549,3.32 -2.0611,4.9227 -0.3637,0.8014 -0.7274,1.6028 -1.0911,2.4042 -1.0912,2.5186 -2.1824,4.9227 -3.2735,7.3268 -35.1597,79.3359 -85.838,150.3147 -150.459,211.3335 z"
   id="path11498"
   inkscape:connector-curvature="0"
   style="stroke-width:1.17812526" />
<path
   class="st2"
   d="m 923.89188,1224.3651 c -80.98838,0 -157.12715,-29.7652 -214.35247,-83.8007 -57.22531,-54.0354 -88.74773,-125.93 -88.74773,-202.40391 0,-76.47389 31.52242,-148.3685 88.74773,-202.40395 57.22532,-54.03544 133.36409,-83.80073 214.35247,-83.80073 80.98842,0 157.12712,29.76529 214.35242,83.80073 57.2254,54.03545 88.7478,125.93006 88.7478,202.40395 0,76.47391 -31.5224,148.36851 -88.7478,202.40391 -57.2253,54.0355 -133.364,83.8007 -214.35242,83.8007 z"
   id="path11500"
   inkscape:connector-curvature="0"
   style="fill:#ffffff;stroke-width:1.17812526" />
<path
   class="st2"
   d="m 923.89188,1224.3651 c -80.98838,0 -157.12715,-29.7652 -214.35247,-83.8007 -57.22531,-54.0354 -88.74773,-125.93 -88.74773,-202.40391 0,-76.47389 31.52242,-148.3685 88.74773,-202.40395 57.22532,-54.03544 133.36409,-83.80073 214.35247,-83.80073 80.98842,0 157.12712,29.76529 214.35242,83.80073 57.2254,54.03545 88.7478,125.93006 88.7478,202.40395 0,76.47391 -31.5224,148.36851 -88.7478,202.40391 -57.2253,54.0355 -133.364,83.8007 -214.35242,83.8007 z"
   id="path11502"
   inkscape:connector-curvature="0"
   style="fill:#ffffff;stroke-width:1.17812526" />
<path
   class="st2"
   d="m 923.89188,1224.3651 c -80.98838,0 -157.12715,-29.7652 -214.35247,-83.8007 -57.22531,-54.0354 -88.74773,-125.93 -88.74773,-202.40391 0,-76.47389 31.52242,-148.3685 88.74773,-202.40395 57.22532,-54.03544 133.36409,-83.80073 214.35247,-83.80073 80.98842,0 157.12712,29.76529 214.35242,83.80073 57.2254,54.03545 88.7478,125.93006 88.7478,202.40395 0,76.47391 -31.5224,148.36851 -88.7478,202.40391 -57.2253,54.0355 -133.364,83.8007 -214.35242,83.8007 z"
   id="path11504"
   inkscape:connector-curvature="0"
   style="fill:#ffffff;stroke-width:1.17812526" />
<path
   d="m 923.89188,1247.2615 c -87.41411,0 -169.61488,-32.1694 -231.44732,-90.5551 -61.83244,-58.3858 -95.9009,-136.0045 -95.9009,-218.54591 0,-82.54143 34.06846,-160.16014 95.9009,-218.54589 61.83244,-58.38576 144.03321,-90.55516 231.44732,-90.55516 87.41412,0 169.61482,32.1694 231.44732,90.55516 61.8324,58.38575 95.9009,136.00446 95.9009,218.54589 0,82.54141 -34.0685,160.16011 -95.9009,218.54591 -61.8325,58.3857 -144.0332,90.5551 -231.44732,90.5551 z m 0,-572.40931 c -74.44142,0 -144.51818,27.36116 -197.13638,77.16078 -52.73943,49.68513 -81.71581,115.85565 -81.71581,186.14752 0,70.29191 28.97638,136.46241 81.71581,186.14751 52.6182,49.6851 122.69496,77.1608 197.13638,77.1608 74.4414,0 144.51822,-27.3612 197.13632,-77.1608 52.6182,-49.6851 81.7159,-115.8556 81.7159,-186.14751 0,-70.29187 -28.9764,-136.46239 -81.7159,-186.14752 -52.6181,-49.79962 -122.69492,-77.16078 -197.13632,-77.16078 z"
   id="path11506"
   inkscape:connector-curvature="0"
   style="stroke-width:1.17812526" />
</svg>