<svg id="Capa_1" enable-background="new 0 0 497 497" height="512" viewBox="0 0 497 497" width="512" xmlns="http://www.w3.org/2000/svg"><g><g><g><path d="m202.237 11.707 7.608 48.073h77.312l7.608-48.073c.595-6.278-4.342-11.707-10.648-11.707h-71.233c-6.307 0-11.244 5.429-10.647 11.707z" fill="#dbc92f"/></g></g><g><g><path d="m284.117 0h-30c6.307 0 11.244 5.429 10.647 11.707l-7.608 48.073h30l7.608-48.073c.596-6.278-4.341-11.707-10.647-11.707z" fill="#cab92b"/></g></g><g><g><path d="m310.357 220.665c-13.816-6.217-22.798-19.846-22.798-34.996v-87.37h7.981c10.637 0 19.26-8.623 19.26-19.26s-8.623-19.26-19.26-19.26h-93.676c-10.637 0-19.26 8.623-19.26 19.26s8.623 19.26 19.26 19.26h7.981v87.188c0 15.177-9.009 28.832-22.865 35.025-52.885 23.64-89.676 76.817-89.382 138.56.391 82.289 67.524 137.341 149.813 137.923 83.843.593 151.996-54.95 151.996-138.656-.002-61.299-36.554-114.053-89.05-137.674z" fill="#e8e8e8"/></g></g><g><g><path d="m310.357 220.665c-13.816-6.217-22.798-19.846-22.798-34.996v-87.37h7.981c10.637 0 19.26-8.623 19.26-19.26s-8.623-19.26-19.26-19.26h-39.981v125.889c0 15.151 8.981 28.779 22.798 34.996 52.496 23.62 89.048 76.375 89.048 137.675 0 77.863-58.974 131.347-134.689 137.959 4.836.424 9.736.662 14.693.697 83.844.592 151.996-54.95 151.996-138.656 0-61.299-36.552-114.053-89.048-137.674z" fill="#d9d9d9"/></g></g><g><g><path d="m137.344 317.521c-4.148 12.022-6.406 24.925-6.406 38.356 0 64.928 52.634 109.562 117.562 109.562s117.562-44.634 117.562-109.562c0-13.431-2.259-26.334-6.406-38.356l-26.552-5.775c-26.459-5.755-54.069-2.818-78.726 8.375l-4.139 1.879c-36.222 16.444-78.089 14.783-112.895-4.479z" fill="#88f2a9"/></g></g><g><g><path d="m325.694 366.802c2.353 12.922-7.619 24.667-20.752 24.44-9.718-.168-18.152-7.329-19.894-16.891-2.354-12.923 7.619-24.668 20.752-24.441 9.719.168 18.152 7.33 19.894 16.892z" fill="#6dc187"/></g></g><g><g><path d="m226.118 277.224c1.387 11.003-7.867 20.256-18.87 18.87-7.497-.945-13.551-6.999-14.496-14.496-1.387-11.003 7.867-20.256 18.87-18.869 7.497.944 13.551 6.998 14.496 14.495z" fill="#6dc187"/></g></g><g><g><ellipse cx="217.204" cy="398.506" fill="#6dc187" rx="16.858" ry="16.771" transform="matrix(.647 -.762 .762 .647 -227.165 306.193)"/></g></g></g></svg>