<?xml version="1.0" encoding="UTF-8" standalone="no"?>
<svg
   xmlns:dc="http://purl.org/dc/elements/1.1/"
   xmlns:cc="http://creativecommons.org/ns#"
   xmlns:rdf="http://www.w3.org/1999/02/22-rdf-syntax-ns#"
   xmlns:svg="http://www.w3.org/2000/svg"
   xmlns="http://www.w3.org/2000/svg"
   xmlns:sodipodi="http://sodipodi.sourceforge.net/DTD/sodipodi-0.dtd"
   xmlns:inkscape="http://www.inkscape.org/namespaces/inkscape"
   id="Capa_1"
   enable-background="new 0 0 512 512"
   height="16"
   viewBox="0 0 512 512"
   width="16"
   version="1.1"
   sodipodi:docname="poison_ns.svg"
   inkscape:version="0.92.3 (2405546, 2018-03-11)">
  <metadata
     id="metadata3344">
    <rdf:RDF>
      <cc:Work
         rdf:about="">
        <dc:format>image/svg+xml</dc:format>
        <dc:type
           rdf:resource="http://purl.org/dc/dcmitype/StillImage" />
        <dc:title></dc:title>
      </cc:Work>
    </rdf:RDF>
  </metadata>
  <defs
     id="defs3342" />
  <sodipodi:namedview
     pagecolor="#ffffff"
     bordercolor="#666666"
     borderopacity="1"
     objecttolerance="10"
     gridtolerance="10"
     guidetolerance="10"
     inkscape:pageopacity="0"
     inkscape:pageshadow="2"
     inkscape:window-width="1920"
     inkscape:window-height="1017"
     id="namedview3340"
     showgrid="false"
     inkscape:zoom="7.375"
     inkscape:cx="30.265796"
     inkscape:cy="-13.47869"
     inkscape:window-x="0"
     inkscape:window-y="30"
     inkscape:window-maximized="1"
     inkscape:current-layer="Capa_1" />
  <g
     id="g3337"
     transform="translate(17.355932,2.9830519)">
    <g
       id="g3257">
      <g
         id="g3255">
        <path
           d="m 209.736,19.207 7.608,48.073 h 77.312 l 7.608,-48.073 C 302.861,12.929 297.924,7.5 291.617,7.5 h -71.233 c -6.307,0 -11.245,5.429 -10.648,11.707 z"
           id="path3253"
           inkscape:connector-curvature="0"
           style="fill:#dbc92f" />
      </g>
    </g>
    <g
       id="g3263">
      <g
         id="g3261">
        <path
           d="m 291.617,7.5 h -30 c 6.307,0 11.244,5.429 10.647,11.707 l -7.608,48.073 h 30 l 7.608,-48.073 C 302.86,12.929 297.923,7.5 291.617,7.5 Z"
           id="path3259"
           inkscape:connector-curvature="0"
           style="fill:#cab92b" />
      </g>
    </g>
    <g
       id="g3269">
      <g
         id="g3267">
        <path
           d="m 317.857,228.165 c -13.816,-6.217 -22.798,-19.846 -22.798,-34.996 v -87.37 h 7.981 c 10.637,0 19.26,-8.623 19.26,-19.26 0,-10.637 -8.623,-19.26 -19.26,-19.26 h -93.676 c -10.637,0 -19.26,8.623 -19.26,19.26 0,10.637 8.623,19.26 19.26,19.26 h 7.981 v 87.188 c 0,15.177 -9.009,28.832 -22.865,35.025 -52.885,23.64 -89.676,76.817 -89.382,138.56 0.391,82.289 67.524,137.341 149.813,137.923 83.843,0.593 151.997,-54.95 151.997,-138.656 -0.003,-61.299 -36.555,-114.053 -89.051,-137.674 z"
           id="path3265"
           inkscape:connector-curvature="0"
           style="fill:#e8e8e8" />
      </g>
    </g>
    <g
       id="g3275">
      <g
         id="g3273">
        <path
           d="m 317.857,228.165 c -13.816,-6.217 -22.798,-19.846 -22.798,-34.996 v -87.37 h 7.981 c 10.637,0 19.26,-8.623 19.26,-19.26 0,-10.637 -8.623,-19.26 -19.26,-19.26 h -39.981 v 125.889 c 0,15.151 8.981,28.779 22.798,34.996 52.496,23.62 89.048,76.375 89.048,137.675 0,77.863 -58.974,131.347 -134.689,137.959 4.835,0.424 9.736,0.662 14.693,0.697 83.843,0.592 151.996,-54.95 151.996,-138.656 0,-61.299 -36.552,-114.053 -89.048,-137.674 z"
           id="path3271"
           inkscape:connector-curvature="0"
           style="fill:#d9d9d9" />
      </g>
    </g>
    <g
       id="g3281">
      <g
         id="g3279">
        <path
           d="m 144.844,325.021 c -4.148,12.022 -6.406,24.925 -6.406,38.356 0,64.928 52.634,109.562 117.562,109.562 64.928,0 117.562,-44.634 117.562,-109.562 0,-13.431 -2.258,-26.334 -6.406,-38.356 l -26.552,-5.775 c -26.459,-5.755 -54.069,-2.818 -78.726,8.375 l -4.138,1.879 c -36.223,16.444 -78.09,14.783 -112.896,-4.479 z"
           id="path3277"
           inkscape:connector-curvature="0"
           style="fill:#88f2a9" />
      </g>
    </g>
    <g
       id="g3287">
      <g
         id="g3285">
        <path
           d="m 333.194,374.302 c 2.353,12.922 -7.619,24.667 -20.752,24.44 -9.718,-0.168 -18.152,-7.329 -19.894,-16.891 -2.354,-12.923 7.619,-24.668 20.752,-24.441 9.718,0.168 18.152,7.33 19.894,16.892 z"
           id="path3283"
           inkscape:connector-curvature="0"
           style="fill:#6dc187" />
      </g>
    </g>
    <g
       id="g3293">
      <g
         id="g3291">
        <path
           d="m 233.618,284.724 c 1.387,11.003 -7.867,20.256 -18.87,18.87 -7.497,-0.945 -13.551,-6.999 -14.496,-14.496 -1.387,-11.003 7.867,-20.256 18.87,-18.869 7.497,0.944 13.551,6.998 14.496,14.495 z"
           id="path3289"
           inkscape:connector-curvature="0"
           style="fill:#6dc187" />
      </g>
    </g>
    <g
       id="g3299">
      <g
         id="g3297">
        <ellipse
           cx="224.70399"
           cy="406.00601"
           rx="16.858"
           ry="16.771"
           transform="matrix(0.647,-0.762,0.762,0.647,-230.236,314.557)"
           id="ellipse3295"
           style="fill:#6dc187" />
      </g>
    </g>
    <g
       id="g3305">
      <g
         id="g3303">
        <path
           d="M 320.935,221.325 C 309.773,216.303 302.56,205.251 302.56,193.169 v -79.87 h 0.48 c 14.756,0 26.76,-12.004 26.76,-26.76 0,-14.623 -11.791,-26.537 -26.365,-26.749 l 6.237,-39.41 c 0.023,-0.154 0.043,-0.308 0.059,-0.463 0.483,-5.091 -1.213,-10.18 -4.653,-13.964 C 301.637,2.17 296.73,0 291.616,0 h -71.232 c -5.114,0 -10.02,2.17 -13.461,5.953 -3.441,3.783 -5.137,8.873 -4.653,13.964 0.016,0.155 0.035,0.309 0.059,0.463 l 6.238,39.421 c -14.388,0.424 -25.963,12.251 -25.963,26.739 0,14.755 12.004,26.76 26.76,26.76 h 0.48 v 26.675 c 0,4.142 3.357,7.5 7.5,7.5 4.143,0 7.5,-3.358 7.5,-7.5 V 113.3 h 19.375 c 4.143,0 7.5,-3.358 7.5,-7.5 0,-4.142 -3.357,-7.5 -7.5,-7.5 h -26.875 -7.98 c -6.484,0 -11.76,-5.275 -11.76,-11.76 0,-6.485 5.275,-11.759 11.76,-11.759 h 93.677 c 6.484,0 11.76,5.275 11.76,11.759 0,6.484 -5.275,11.76 -11.76,11.76 h -7.98 c -4.143,0 -7.5,3.358 -7.5,7.5 v 87.37 c 0,17.974 10.684,34.396 27.221,41.836 51.407,23.131 84.625,74.487 84.625,130.835 0,27.025 -7.281,51.362 -21.642,72.334 -2.34,3.418 -1.467,8.086 1.951,10.426 1.296,0.887 2.77,1.313 4.23,1.313 2.392,0 4.742,-1.141 6.195,-3.263 15.874,-23.183 24.265,-51.126 24.265,-80.808 C 414.405,303.6 377.716,246.874 320.935,221.325 Z M 223.75,59.78 217.19,18.33 c -0.051,-1.133 0.49,-1.913 0.829,-2.285 0.355,-0.39 1.135,-1.045 2.364,-1.045 h 71.232 c 1.23,0 2.009,0.655 2.364,1.045 0.339,0.372 0.88,1.152 0.829,2.285 l -6.56,41.45 z"
           id="path3301"
           inkscape:connector-curvature="0" />
      </g>
    </g>
    <g
       id="g3311">
      <g
         id="g3309">
        <path
           d="m 359.466,459.281 c -26.698,24.608 -63.802,37.997 -104.504,37.715 -38.83,-0.275 -74.588,-13.211 -100.686,-36.425 -27.09,-24.096 -41.502,-56.613 -41.68,-94.034 -0.271,-56.804 33.071,-108.49 84.942,-131.677 16.587,-7.415 27.305,-23.85 27.305,-41.872 v -23.014 c 0,-4.142 -3.357,-7.5 -7.5,-7.5 -4.143,0 -7.5,3.358 -7.5,7.5 v 23.014 c 0,12.114 -7.232,23.175 -18.426,28.178 -57.293,25.61 -94.12,82.7 -93.821,145.442 0.195,41.201 16.784,78.551 46.71,105.17 28.818,25.634 68.079,39.917 110.55,40.217 0.464,0.003 0.925,0.005 1.389,0.005 43.967,-10e-4 84.191,-14.778 113.387,-41.69 3.046,-2.807 3.239,-7.552 0.432,-10.598 -2.807,-3.045 -7.552,-3.239 -10.598,-0.431 z"
           id="path3307"
           inkscape:connector-curvature="0" />
      </g>
    </g>
    <g
       id="g3317">
      <g
         id="g3315">
        <path
           d="m 148.477,318.459 c -1.938,-1.073 -4.254,-1.233 -6.319,-0.439 -2.068,0.794 -3.68,2.461 -4.402,4.555 -4.523,13.108 -6.816,26.836 -6.816,40.802 0,33.055 13.104,63.13 36.897,84.687 23.042,20.878 54.353,32.376 88.163,32.376 33.81,0 65.121,-11.498 88.164,-32.375 23.794,-21.557 36.897,-51.633 36.897,-84.687 0,-13.967 -2.293,-27.695 -6.816,-40.802 -0.854,-2.475 -2.938,-4.326 -5.496,-4.882 l -26.552,-5.775 c -27.846,-6.057 -57.473,-2.905 -83.419,8.875 l -4.14,1.879 c -33.901,15.387 -73.588,13.814 -106.161,-4.214 z m 112.362,17.87 4.14,-1.879 c 23.026,-10.454 49.317,-13.252 74.031,-7.876 l 22.341,4.859 c 3.127,10.323 4.711,21.049 4.711,31.944 0,28.766 -11.353,54.894 -31.969,73.571 -20.28,18.374 -48.013,28.492 -78.093,28.492 -30.08,0 -57.814,-10.118 -78.093,-28.491 -20.615,-18.677 -31.969,-44.805 -31.969,-73.571 0,-9.38 1.174,-18.634 3.496,-27.614 35.028,16.29 76.017,16.631 111.405,0.565 z"
           id="path3313"
           inkscape:connector-curvature="0" />
      </g>
    </g>
    <g
       id="g3323">
      <g
         id="g3321">
        <path
           d="m 312.85,406.245 c 0.764,0 1.536,-0.031 2.311,-0.095 7.499,-0.612 14.311,-4.107 19.181,-9.842 4.869,-5.735 7.214,-13.024 6.602,-20.523 v 10e-4 c -0.612,-7.499 -4.107,-14.31 -9.843,-19.181 -5.735,-4.869 -13.018,-7.212 -20.522,-6.603 -7.499,0.612 -14.311,4.107 -19.181,9.842 -4.869,5.735 -7.214,13.023 -6.602,20.522 1.202,14.706 13.552,25.88 28.054,25.879 z m -10.016,-36.691 c 2.276,-2.681 5.461,-4.315 8.967,-4.601 0.365,-0.03 0.73,-0.044 1.092,-0.044 3.115,0 6.1,1.092 8.501,3.131 2.682,2.277 4.315,5.461 4.6,8.966 v 0.001 c 0.286,3.506 -0.809,6.912 -3.086,9.593 -2.276,2.681 -5.461,4.315 -8.967,4.601 -7.237,0.589 -13.604,-4.817 -14.193,-12.053 -0.286,-3.506 0.809,-6.913 3.086,-9.594 z"
           id="path3319"
           inkscape:connector-curvature="0" />
      </g>
    </g>
    <g
       id="g3329">
      <g
         id="g3327">
        <path
           d="m 216.936,262.59 c -13.411,0 -24.321,10.91 -24.321,24.321 0,13.411 10.91,24.321 24.321,24.321 13.41,0 24.32,-10.91 24.32,-24.321 0,-13.411 -10.91,-24.321 -24.32,-24.321 z m 0,33.641 c -5.14,0 -9.321,-4.181 -9.321,-9.321 0,-5.139 4.182,-9.321 9.321,-9.321 5.14,0 9.32,4.181 9.32,9.321 0,5.14 -4.181,9.321 -9.32,9.321 z"
           id="path3325"
           inkscape:connector-curvature="0" />
      </g>
    </g>
    <g
       id="g3335">
      <g
         id="g3333">
        <path
           d="m 224.686,430.328 c 0.659,0 1.326,-0.027 1.995,-0.082 6.476,-0.528 12.357,-3.546 16.563,-8.498 4.205,-4.952 6.229,-11.245 5.701,-17.72 -1.092,-13.365 -12.85,-23.358 -26.218,-22.262 -6.476,0.528 -12.357,3.546 -16.563,8.498 -4.205,4.952 -6.229,11.245 -5.701,17.72 1.037,12.698 11.7,22.344 24.223,22.344 z m -7.088,-30.355 c 1.611,-1.898 3.865,-3.054 6.348,-3.257 0.257,-0.021 0.512,-0.031 0.765,-0.031 4.799,0 8.886,3.698 9.282,8.563 0.203,2.481 -0.573,4.893 -2.185,6.791 -1.611,1.898 -3.865,3.054 -6.348,3.257 -5.127,0.423 -9.63,-3.41 -10.047,-8.532 -0.202,-2.481 0.574,-4.893 2.185,-6.791 z"
           id="path3331"
           inkscape:connector-curvature="0" />
      </g>
    </g>
  </g>
</svg>
