<?xml version="1.0" encoding="UTF-8" standalone="no"?>
<svg
   xmlns:dc="http://purl.org/dc/elements/1.1/"
   xmlns:cc="http://creativecommons.org/ns#"
   xmlns:rdf="http://www.w3.org/1999/02/22-rdf-syntax-ns#"
   xmlns:svg="http://www.w3.org/2000/svg"
   xmlns="http://www.w3.org/2000/svg"
   xmlns:sodipodi="http://sodipodi.sourceforge.net/DTD/sodipodi-0.dtd"
   xmlns:inkscape="http://www.inkscape.org/namespaces/inkscape"
   id="Layer_2"
   height="16"
   viewBox="0 0 512 512"
   width="16"
   data-name="Layer 2"
   version="1.1"
   sodipodi:docname="psychic_ns.svg"
   inkscape:version="0.92.3 (2405546, 2018-03-11)">
  <metadata
     id="metadata7344">
    <rdf:RDF>
      <cc:Work
         rdf:about="">
        <dc:format>image/svg+xml</dc:format>
        <dc:type
           rdf:resource="http://purl.org/dc/dcmitype/StillImage" />
        <dc:title></dc:title>
      </cc:Work>
    </rdf:RDF>
  </metadata>
  <defs
     id="defs7342" />
  <sodipodi:namedview
     pagecolor="#ffffff"
     bordercolor="#666666"
     borderopacity="1"
     objecttolerance="10"
     gridtolerance="10"
     guidetolerance="10"
     inkscape:pageopacity="0"
     inkscape:pageshadow="2"
     inkscape:window-width="1920"
     inkscape:window-height="1017"
     id="namedview7340"
     showgrid="false"
     scale-x="32"
     inkscape:zoom="14.75"
     inkscape:cx="37.879541"
     inkscape:cy="-1.9620758"
     inkscape:window-x="0"
     inkscape:window-y="30"
     inkscape:window-maximized="1"
     inkscape:current-layer="Layer_2" />
  <path
     d="m 201.25893,86.277192 a 51.479005,44.339092 0 0 0 -51.47618,44.339098 v 0.1024 a 43.811498,37.735034 0 0 0 -37.08934,54.31953 76.703379,66.064954 0 0 0 -2.32375,110.85749 43.853953,37.771601 0 0 0 39.41309,49.44875 v 0.10241 a 51.479005,44.339092 0 1 0 102.95518,0 V 130.61629 a 51.479005,44.339092 0 0 0 -51.479,-44.339098 z"
     id="path7293"
     inkscape:connector-curvature="0"
     style="fill:#ff6ca8;stroke-width:2.62677908" />
  <g
     id="g7313"
     style="fill:#284cb2"
     transform="matrix(2.8303829,0,0,2.4378212,71.593423,82.240161)">
    <circle
       cx="90.936996"
       cy="91.905998"
       r="5.1880002"
       id="circle7295" />
    <circle
       cx="98"
       cy="121.156"
       r="5.1869998"
       id="circle7297" />
    <circle
       cx="101.937"
       cy="77.905998"
       r="5.1869998"
       id="circle7299" />
    <circle
       cx="121.062"
       cy="77.344002"
       r="5.1880002"
       id="circle7301" />
    <circle
       cx="115.875"
       cy="52.094002"
       r="5.1869998"
       id="circle7303" />
    <circle
       cx="115.875"
       cy="99.643997"
       r="5.1869998"
       id="circle7305" />
    <circle
       cx="121.062"
       cy="35.573002"
       r="5.1880002"
       id="circle7307" />
    <circle
       cx="105.562"
       cy="11.822"
       r="5.1880002"
       id="circle7309" />
    <circle
       cx="82.931"
       cy="63.740002"
       r="5.1869998"
       id="circle7311" />
  </g>
  <path
     d="m 158.20313,197.94403 a 4.9531702,4.2661871 0 0 0 -4.95317,-4.26619 55.127369,47.481443 0 0 0 -55.050937,47.42781 4.9531702,4.2661871 0 1 0 9.906327,0 45.209707,38.939318 0 0 1 45.14745,-38.89544 4.9531702,4.2661871 0 0 0 4.95033,-4.26618 z"
     id="path7315"
     inkscape:connector-curvature="0"
     style="stroke-width:2.62677908" />
  <path
     d="m 81.499763,241.10565 a 71.404901,61.501353 0 0 1 33.814587,-52.44972 4.9531702,4.2661871 0 0 0 1.82842,-5.49241 38.861158,33.471285 0 0 1 32.90886,-48.18598 4.9531702,4.2661871 0 0 0 4.68995,-4.26131 c 0,-0.0536 0,-0.12433 0,-0.19502 a 46.528666,40.075342 0 0 1 84.57185,-22.97403 4.9535592,4.2665221 0 0 0 8.09489,-4.91952 56.435006,48.607717 0 0 0 -102.40892,24.22463 48.846749,42.071918 0 0 0 -41.74532,41.6136 48.187269,41.503906 0 0 0 3.23796,14.99505 81.195196,69.933777 0 0 0 -34.898617,57.64471 4.9531702,4.2661871 0 0 0 9.90634,0 z"
     id="path7317"
     inkscape:connector-curvature="0"
     style="stroke-width:2.62677908" />
  <path
     d="m 85.680243,261.94415 a 4.9554483,4.2681493 0 1 0 -9.32612,2.88882 c 0.84912,2.05263 1.83126,4.09798 2.90681,6.07504 a 4.9582155,4.2705327 0 0 0 8.97231,-3.63723 c -0.94534,-1.72841 -1.80295,-3.52265 -2.553,-5.32663 z"
     id="path7319"
     inkscape:connector-curvature="0"
     style="stroke-width:2.62677908" />
  <path
     d="m 230.00713,131.55241 a 28.745375,24.758517 0 1 0 -57.49075,0 4.9531702,4.2661871 0 0 0 9.90634,0 18.84045,16.227362 0 1 1 37.6809,0 4.9531702,4.2661871 0 0 0 9.90633,0 z"
     id="path7321"
     inkscape:connector-curvature="0"
     style="stroke-width:2.62677908" />
  <path
     d="m 175.26185,224.92827 a 4.9531736,4.26619 0 0 0 0,8.53238 34.312732,29.553706 0 0 0 34.27311,-29.51959 v -13.79075 a 34.312732,29.553706 0 0 0 -34.27311,-29.51957 h -2.12279 a 4.9531708,4.2661875 0 0 0 0,8.53237 h 2.12279 a 24.39224,21.009144 0 0 1 24.36678,20.9872 v 13.79075 a 24.39224,21.009144 0 0 1 -24.36678,20.98721 z"
     id="path7323"
     inkscape:connector-curvature="0"
     style="stroke-width:2.62677908" />
  <path
     d="m 204.62141,276.42724 a 4.9531702,4.2661871 0 0 0 0,-8.53237 h -28.30382 a 28.688761,24.709755 0 0 1 -28.65763,-24.68294 4.9531702,4.2661871 0 0 0 -9.90634,0 38.609253,33.254319 0 0 0 38.56397,33.21531 z"
     id="path7325"
     inkscape:connector-curvature="0"
     style="stroke-width:2.62677908" />
  <path
     d="m 227.61828,331.27822 a 4.9531702,4.2661871 0 0 0 -4.95317,-4.26619 35.419412,30.506894 0 0 1 -35.37978,-30.47277 4.9531756,4.2661917 0 0 0 -9.90635,0 45.337074,39.04902 0 0 0 45.28613,39.00515 4.9531702,4.2661871 0 0 0 4.95317,-4.26619 z"
     id="path7327"
     inkscape:connector-curvature="0"
     style="stroke-width:2.62677908" />
  <path
     d="m 150.92057,326.57079 a 5.1767705,4.458775 0 0 0 0.73872,0.0463 4.9531702,4.2661871 0 0 0 0.72741,-8.48605 15.162361,13.059408 0 0 1 -12.73672,-14.82927 4.9531702,4.2661871 0 1 0 -9.79596,-1.26522 25.082854,21.603971 0 0 0 21.06655,24.53423 z"
     id="path7329"
     inkscape:connector-curvature="0"
     style="stroke-width:2.62677908" />
  <path
     d="m 202.49864,371.7168 a 4.9531736,4.26619 0 1 0 0,-8.53238 21.250516,18.303162 0 0 1 -21.22788,-18.28365 4.9531702,4.2661871 0 0 0 -9.90634,0 31.168177,26.845287 0 0 0 31.13422,26.81603 z"
     id="path7331"
     inkscape:connector-curvature="0"
     style="stroke-width:2.62677908" />
  <path
     d="m 414.24524,253.87739 a 19.487187,16.784399 0 0 0 -9.90634,2.34031 l -64.2497,-55.33854 a 4.9531702,4.2661871 0 0 0 -3.50117,-1.2506 H 257.6911 v -26.4016 h 137.57643 a 19.637197,16.913603 0 1 0 0,-8.53237 H 257.6911 v -19.09546 h 78.89693 a 4.9531702,4.2661871 0 0 0 3.50117,-1.2506 l 21.22788,-18.28366 a 19.673992,16.945295 0 1 0 -7.359,-5.72644 l -19.42209,16.72833 H 257.6911 v -6.45047 a 4.9531702,4.2661871 0 0 0 -9.90634,0 v 214.83299 a 46.525834,40.072905 0 0 1 -93.04884,0.0951 c 0,-0.0682 0,-0.14139 0,-0.19747 a 4.9531702,4.2661871 0 0 0 -4.68995,-4.26131 38.900783,33.505414 0 0 1 -34.96655,-43.88078 4.9531702,4.2661871 0 0 0 -1.9388,-4.85613 72.106836,62.105933 0 0 1 -10.75547,-7.66939 4.9544285,4.2672709 0 1 0 -7.016507,6.0263 82.115071,70.726068 0 0 0 9.297797,6.92828 48.792972,42.025599 0 0 0 40.34145,51.58429 56.432175,48.605279 0 0 0 112.6917,-3.76886 v -0.76061 h 54.19334 l 21.109,23.10568 a 19.724939,16.989176 0 1 0 7.60523,-5.47292 l -22.41663,-24.53667 a 4.9531702,4.2661871 0 0 0 -3.89177,-1.62846 H 257.6911 v -25.59712 h 52.31114 a 19.637197,16.913603 0 1 0 0,-8.53238 H 257.6911 v -25.59715 h 83.44251 a 19.637197,16.913603 0 1 0 0,-8.53238 H 257.6911 v -25.59712 h 29.77279 a 19.640027,16.916042 0 1 0 -0.24341,-8.53237 H 257.6911 v -25.59712 h 76.84489 l 62.79205,54.08062 a 19.617384,16.896538 0 1 0 16.92004,-8.37148 z m 0,-93.29785 a 9.7308566,8.3812293 0 1 1 -9.72802,8.38123 9.7393478,8.3885427 0 0 1 9.72802,-8.38123 z M 370.3743,102.67885 a 9.7280262,8.3787914 0 1 1 -9.72803,8.37879 9.7393478,8.3885427 0 0 1 9.72803,-8.37879 z m -11.67533,274.91797 a 9.7280262,8.3787914 0 1 1 -9.72803,-8.37879 9.7393478,8.3885427 0 0 1 9.72803,8.37879 z m -29.71901,-79.68506 a 9.7308566,8.3812293 0 1 1 -9.72803,8.37879 9.7393478,8.3885427 0 0 1 9.72803,-8.37879 z m 31.1342,-34.1295 a 9.7308566,8.3812293 0 1 1 -9.72801,8.3788 9.7393478,8.3885427 0 0 1 9.72801,-8.3788 z M 306.3199,229.24078 a 9.7308566,8.3812293 0 1 1 -9.72801,8.38122 9.7393478,8.3885427 0 0 1 9.72801,-8.38122 z m 107.92534,49.92413 a 9.7308566,8.3812293 0 1 1 9.73085,-8.37879 9.7393478,8.3885427 0 0 1 -9.73085,8.38367 z"
     id="path7333"
     inkscape:connector-curvature="0"
     style="stroke-width:2.62677908" />
  <path
     d="m 399.56405,192.32241 a 19.637197,16.913603 0 1 0 19.63436,16.91361 19.65984,16.933106 0 0 0 -19.63436,-16.91361 z m 0,25.29239 a 9.7308566,8.3812293 0 1 1 9.72802,-8.37878 9.7393478,8.3885427 0 0 1 -9.72802,8.37878 z"
     id="path7335"
     inkscape:connector-curvature="0"
     style="stroke-width:2.62677908" />
  <path
     d="m 399.56405,308.24325 a 19.637197,16.913603 0 1 0 19.63436,16.9136 19.65984,16.933106 0 0 0 -19.63436,-16.9136 z m 0,25.29239 a 9.7308566,8.3812293 0 1 1 9.72802,-8.38123 9.7393478,8.3885427 0 0 1 -9.72802,8.38123 z"
     id="path7337"
     inkscape:connector-curvature="0"
     style="stroke-width:2.62677908" />
</svg>
