<?xml version="1.0" encoding="UTF-8" standalone="no"?>
<svg
   xmlns:dc="http://purl.org/dc/elements/1.1/"
   xmlns:cc="http://creativecommons.org/ns#"
   xmlns:rdf="http://www.w3.org/1999/02/22-rdf-syntax-ns#"
   xmlns:svg="http://www.w3.org/2000/svg"
   xmlns="http://www.w3.org/2000/svg"
   xmlns:sodipodi="http://sodipodi.sourceforge.net/DTD/sodipodi-0.dtd"
   xmlns:inkscape="http://www.inkscape.org/namespaces/inkscape"
   width="16"
   height="16"
   viewBox="0 0 512 512"
   version="1.1"
   id="svg8093"
   sodipodi:docname="rock_ns.svg"
   inkscape:version="0.92.3 (2405546, 2018-03-11)">
  <metadata
     id="metadata8099">
    <rdf:RDF>
      <cc:Work
         rdf:about="">
        <dc:format>image/svg+xml</dc:format>
        <dc:type
           rdf:resource="http://purl.org/dc/dcmitype/StillImage" />
        <dc:title></dc:title>
      </cc:Work>
    </rdf:RDF>
  </metadata>
  <defs
     id="defs8097" />
  <sodipodi:namedview
     pagecolor="#ffffff"
     bordercolor="#666666"
     borderopacity="1"
     objecttolerance="10"
     gridtolerance="10"
     guidetolerance="10"
     inkscape:pageopacity="0"
     inkscape:pageshadow="2"
     inkscape:window-width="1920"
     inkscape:window-height="1017"
     id="namedview8095"
     showgrid="false"
     scale-x="32"
     inkscape:zoom="10.429825"
     inkscape:cx="22.394008"
     inkscape:cy="-13.700878"
     inkscape:window-x="0"
     inkscape:window-y="30"
     inkscape:window-maximized="1"
     inkscape:current-layer="svg8093" />
  <g
     id="g8091"
     transform="matrix(3.1330037,0,0,2.9241129,70.584156,59.665223)">
    <g
       id="g8073">
      <path
         d="m 34.229,55.261 3.49,1.671 28.907,-4.369 a 13.042,13.042 0 0 0 1.891,-0.433 l 12.518,-3.871 a 12.965,12.965 0 0 1 11.865,2.21 l 1.045,0.826 3.472,-4.977 A 11.164,11.164 0 0 0 98.731,36.052 L 97.87,33.728 A 11.165,11.165 0 0 0 83.676,27.08 l -15.371,5.434 a 11.168,11.168 0 0 1 -5.353,0.518 L 48.486,30.9 a 11.172,11.172 0 0 0 -5.048,0.416 l -7.759,2.494 a 11.165,11.165 0 0 0 -7.73,10 l -0.043,0.757 a 11.165,11.165 0 0 0 6.323,10.694 z"
         id="path8053"
         inkscape:connector-curvature="0"
         style="fill:#8b818e" />
      <path
         d="m 97.08,115.249 0.476,-2.776 a 5.124,5.124 0 0 0 -1.472,-4.533 l -2.017,-1.965 a 5.121,5.121 0 0 1 2.838,-8.735 l 2.787,-0.405 A 5.122,5.122 0 0 0 103.215,94.606 14.178,14.178 0 0 0 97.457,92.6 L 88.88,91.578 70.906,89.728 A 14.21,14.21 0 0 1 66.314,88.451 L 56.246,83.713 A 40.674,40.674 0 0 0 28.874,81.1 L 15.326,84.56 A 14.2,14.2 0 0 0 7.115,90.3 l -2.877,4.211 a 14.2,14.2 0 0 0 -0.682,14.935 l 2.519,4.516 a 14.2,14.2 0 0 0 12.4,7.285 h 77.413 a 14.165,14.165 0 0 0 3.934,-0.566 5.081,5.081 0 0 1 -2.742,-5.432 z"
         id="path8055"
         inkscape:connector-curvature="0"
         style="fill:#8b818e" />
      <path
         d="m 14.13,103.028 a 1.731,1.731 0 0 1 -0.986,-0.306 1.749,1.749 0 0 1 -0.456,-2.432 l 2.876,-4.205 a 3.969,3.969 0 0 1 2.294,-1.606 L 31.4,91.024 a 1.75,1.75 0 1 1 0.866,3.391 l -13.543,3.456 a 0.47,0.47 0 0 0 -0.269,0.188 l -2.878,4.207 a 1.746,1.746 0 0 1 -1.446,0.762 z"
         id="path8057"
         inkscape:connector-curvature="0"
         style="fill:#666068" />
      <path
         d="m 20.639,83.205 8.235,-2.1 a 40.674,40.674 0 0 1 27.372,2.609 l 10.068,4.738 a 14.21,14.21 0 0 0 4.592,1.277 l 17.974,1.85 2.593,0.309 6.681,-6.552 A 12.963,12.963 0 0 0 102.04,76.1 L 102.055,64 A 12.964,12.964 0 0 0 97.125,53.809 L 92.9,50.469 A 12.965,12.965 0 0 0 81.038,48.259 L 68.517,52.13 a 13.042,13.042 0 0 1 -1.891,0.433 L 32.5,57.721 a 12.968,12.968 0 0 0 -6.479,2.958 l -4.4,3.759 a 12.9,12.9 0 0 0 -0.98,18.767 z"
         id="path8059"
         inkscape:connector-curvature="0"
         style="fill:#666068" />
      <path
         d="m 87.137,81.1 a 1.751,1.751 0 0 1 -1.305,-2.916 l 2.472,-2.77 0.014,-11.431 a 1.75,1.75 0 0 1 1.75,-1.748 v 0 a 1.75,1.75 0 0 1 1.748,1.752 l -0.015,12.1 a 1.744,1.744 0 0 1 -0.445,1.163 l -2.915,3.268 A 1.746,1.746 0 0 1 87.137,81.1 Z"
         id="path8061"
         inkscape:connector-curvature="0"
         style="fill:#8b818e" />
      <path
         d="m 38.613,44.684 a 1.75,1.75 0 0 1 -0.535,-3.416 l 7.759,-2.493 a 1.75,1.75 0 0 1 1.071,3.332 L 39.15,44.6 a 1.734,1.734 0 0 1 -0.537,0.084 z"
         id="path8063"
         inkscape:connector-curvature="0"
         style="fill:#666068" />
      <path
         d="m 38.454,32.913 4.984,-1.6 a 11.172,11.172 0 0 1 5.048,-0.416 l 14.466,2.137 a 11.168,11.168 0 0 0 5.353,-0.518 L 83.676,27.08 a 11.158,11.158 0 0 1 8.382,0.381 c 0.064,0.029 0.123,0.066 0.186,0.1 l 0.284,-0.666 A 9.611,9.611 0 0 0 83.372,13.516 l -15.7,0.517 A 9.611,9.611 0 0 1 63.007,13 L 52.724,7.785 A 9.609,9.609 0 0 0 44.1,7.751 l -3.553,1.767 a 9.611,9.611 0 0 0 -4.8,5.449 l -1.774,5.1 a 9.61,9.61 0 0 0 1.536,9.116 z"
         id="path8065"
         inkscape:connector-curvature="0"
         style="fill:#666068" />
      <path
         d="M 43.657,23.183 A 1.747,1.747 0 0 1 42,20.861 l 1.147,-3.315 a 1.745,1.745 0 0 1 0.873,-0.994 l 3.566,-1.779 a 1.7501721,1.7501721 0 1 1 1.561,3.133 l -2.926,1.459 -0.913,2.641 a 1.752,1.752 0 0 1 -1.651,1.177 z"
         id="path8067"
         inkscape:connector-curvature="0"
         style="fill:#8b818e" />
      <path
         d="m 107,119.337 -2.493,1.31 a 5.121,5.121 0 0 1 -7.43,-5.4 l 0.476,-2.776 a 5.124,5.124 0 0 0 -1.472,-4.533 l -2.017,-1.965 a 5.121,5.121 0 0 1 2.838,-8.735 l 2.787,-0.405 a 5.122,5.122 0 0 0 3.856,-2.8 l 1.246,-2.525 a 5.121,5.121 0 0 1 9.184,0 l 1.247,2.525 a 5.122,5.122 0 0 0 3.856,2.8 l 2.787,0.405 a 5.121,5.121 0 0 1 2.838,8.735 l -2.017,1.965 a 5.122,5.122 0 0 0 -1.473,4.533 l 0.476,2.776 a 5.121,5.121 0 0 1 -7.43,5.4 l -2.493,-1.31 a 5.117,5.117 0 0 0 -4.766,0 z"
         id="path8069"
         inkscape:connector-curvature="0"
         style="fill:#e57373" />
      <path
         d="m 104.1,106.433 a 5.286,5.286 0 1 1 5.286,5.286 5.286,5.286 0 0 1 -5.286,-5.286 z"
         id="path8071"
         inkscape:connector-curvature="0"
         style="fill:#fcefc8" />
    </g>
    <g
       id="g8089">
      <path
         d="m 31.4,91.024 -13.542,3.455 a 3.969,3.969 0 0 0 -2.294,1.606 l -2.876,4.205 a 1.749,1.749 0 0 0 0.456,2.432 1.749,1.749 0 0 0 2.432,-0.456 l 2.878,-4.207 a 0.47,0.47 0 0 1 0.269,-0.188 l 13.546,-3.456 a 1.75,1.75 0 1 0 -0.866,-3.391 z"
         id="path8075"
         inkscape:connector-curvature="0" />
      <path
         d="m 91.8,76.083 0.015,-12.1 a 1.75,1.75 0 0 0 -1.748,-1.752 v 0 a 1.75,1.75 0 0 0 -1.75,1.748 l -0.017,11.434 -2.472,2.77 a 1.750063,1.750063 0 1 0 2.611,2.331 l 2.915,-3.268 A 1.744,1.744 0 0 0 91.8,76.083 Z"
         id="path8077"
         inkscape:connector-curvature="0" />
      <path
         d="M 38.613,44.684 A 1.734,1.734 0 0 0 39.15,44.6 l 7.758,-2.493 a 1.75,1.75 0 0 0 -1.071,-3.332 l -7.759,2.493 a 1.75,1.75 0 0 0 0.535,3.416 z"
         id="path8079"
         inkscape:connector-curvature="0" />
      <path
         d="m 47.589,14.773 -3.566,1.779 A 1.745,1.745 0 0 0 43.15,17.546 L 42,20.861 a 1.7502778,1.7502778 0 0 0 3.308,1.145 l 0.913,-2.641 2.926,-1.459 a 1.7501721,1.7501721 0 1 0 -1.561,-3.133 z"
         id="path8081"
         inkscape:connector-curvature="0" />
      <path
         d="m 127.666,100.184 a 6.827,6.827 0 0 0 -5.547,-4.675 l -2.788,-0.406 a 3.37,3.37 0 0 1 -2.537,-1.844 l -1.246,-2.526 a 6.871,6.871 0 0 0 -12.323,0 l -0.742,1.5 A 15.8,15.8 0 0 0 97.664,90.86 l -2.364,-0.278 4.075,-4 A 14.8,14.8 0 0 0 103.79,76.1 L 103.805,64 a 14.625,14.625 0 0 0 -5.6,-11.568 l -1.887,-1.49 2.532,-3.622 a 12.917,12.917 0 0 0 1.519,-11.875 L 99.508,33.12 A 12.814,12.814 0 0 0 94.425,26.786 11.309,11.309 0 0 0 93.78,17.9 a 1.7501104,1.7501104 0 1 0 -3.109,1.608 7.832,7.832 0 0 1 0.573,5.783 12.83,12.83 0 0 0 -8.151,0.14 l -15.371,5.433 a 9.439,9.439 0 0 1 -4.514,0.437 L 48.742,29.164 a 12.983,12.983 0 0 0 -5.839,0.481 L 39.074,30.876 36.881,28.1 a 7.825,7.825 0 0 1 -1.257,-7.456 l 1.775,-5.1 a 7.817,7.817 0 0 1 3.927,-4.458 l 3.556,-1.767 a 7.9,7.9 0 0 1 7.051,0.028 l 10.283,5.212 a 11.479,11.479 0 0 0 5.509,1.22 L 83.43,15.263 a 1.7509444,1.7509444 0 0 0 -0.115,-3.5 l -15.7,0.516 A 7.856,7.856 0 0 1 63.803,11.434 L 53.515,6.225 A 11.412,11.412 0 0 0 43.324,6.183 L 39.768,7.95 a 11.3,11.3 0 0 0 -5.675,6.442 l -1.775,5.1 a 11.31,11.31 0 0 0 1.817,10.775 l 1.382,1.75 -0.373,0.12 A 12.992,12.992 0 0 0 26.2,43.7 l -0.043,0.758 a 12.859,12.859 0 0 0 5.88,11.567 14.7,14.7 0 0 0 -7.154,3.32 l -4.4,3.758 a 14.7,14.7 0 0 0 -3.653,17.683 14.2,14.2 0 0 0 0.792,1.383 l -2.728,0.7 a 15.941,15.941 0 0 0 -9.223,6.45 L 2.793,93.522 A 15.866,15.866 0 0 0 2.028,110.3 l 2.519,4.516 A 15.964,15.964 0 0 0 18.479,123 H 34.32 a 1.75,1.75 0 1 0 0,-3.5 H 18.479 A 12.46,12.46 0 0 1 7.6,113.11 l -2.519,-4.516 a 12.382,12.382 0 0 1 0.6,-13.095 l 2.877,-4.207 a 12.452,12.452 0 0 1 7.2,-5.036 L 29.306,82.8 A 39.021,39.021 0 0 1 55.5,85.3 l 10.067,4.738 a 15.928,15.928 0 0 0 5.16,1.436 l 17.945,1.845 8.577,1.023 a 12.358,12.358 0 0 1 2.686,0.63 3.364,3.364 0 0 1 -0.5,0.135 l -2.788,0.406 a 6.87,6.87 0 0 0 -3.807,11.718 l 2.016,1.966 a 3.375,3.375 0 0 1 0.971,2.985 l -0.476,2.775 a 6.83,6.83 0 0 0 0.783,4.535 c -0.084,0 -0.168,0.009 -0.251,0.009 H 63.369 a 1.75,1.75 0 1 0 0,3.5 h 32.519 a 15.8,15.8 0 0 0 3.775,-0.473 6.811,6.811 0 0 0 5.662,-0.328 l 2.492,-1.31 a 3.374,3.374 0 0 1 3.138,0 l 2.492,1.31 a 6.87,6.87 0 0 0 9.97,-7.243 l -0.476,-2.774 a 3.377,3.377 0 0 1 0.969,-2.986 l 2.018,-1.966 a 6.825,6.825 0 0 0 1.738,-7.047 z M 29.7,43.9 a 9.471,9.471 0 0 1 6.518,-8.43 l 2.8,-0.9 v 0 l 4.953,-1.592 a 9.466,9.466 0 0 1 4.257,-0.35 L 62.7,34.764 a 12.982,12.982 0 0 0 6.192,-0.6 L 84.259,28.73 a 9.363,9.363 0 0 1 7.052,0.314 v 0 l 0.166,0.087 0.016,0.006 a 9.348,9.348 0 0 1 4.729,5.2 l 0.861,2.325 a 9.415,9.415 0 0 1 -1.108,8.656 L 93.551,48.8 A 14.69,14.69 0 0 0 80.519,46.591 L 68,50.458 a 11.153,11.153 0 0 1 -1.637,0.374 l -28.375,4.29 -3,-1.439 A 9.386,9.386 0 0 1 29.656,44.659 Z M 71.09,87.986 A 12.383,12.383 0 0 1 67.063,86.867 L 56.991,82.13 a 42.5,42.5 0 0 0 -28.55,-2.721 l -7.188,1.834 a 10.968,10.968 0 0 1 -1.282,-2 11.207,11.207 0 0 1 2.784,-13.474 l 4.4,-3.758 a 11.2,11.2 0 0 1 5.605,-2.559 l 34.126,-5.159 a 14.988,14.988 0 0 0 2.146,-0.491 l 12.519,-3.87 a 11.207,11.207 0 0 1 10.26,1.912 l 4.228,3.337 A 11.146,11.146 0 0 1 100.305,64 l -0.015,12.1 a 11.28,11.28 0 0 1 -3.362,7.992 l -6.081,5.958 -1.788,-0.213 z m 52.4,16.734 -2.017,1.966 a 6.876,6.876 0 0 0 -1.976,6.082 l 0.477,2.776 a 3.372,3.372 0 0 1 -4.892,3.554 l -2.492,-1.311 a 6.874,6.874 0 0 0 -6.4,0 l -2.49,1.313 a 3.3,3.3 0 0 1 -3.025,0.052 c -0.02,-0.011 -0.042,-0.018 -0.061,-0.028 a 3.464,3.464 0 0 1 -0.463,-0.281 3.305,3.305 0 0 1 -1.342,-3.3 l 0.476,-2.777 a 6.871,6.871 0 0 0 -1.976,-6.081 l -2.017,-1.966 a 3.371,3.371 0 0 1 1.868,-5.75 l 2.786,-0.405 a 6.864,6.864 0 0 0 5.175,-3.758 l 1.246,-2.526 a 3.371,3.371 0 0 1 6.046,0 l 1.246,2.526 a 6.866,6.866 0 0 0 5.173,3.758 l 2.787,0.405 a 3.371,3.371 0 0 1 1.869,5.75 z"
         id="path8083"
         inkscape:connector-curvature="0" />
      <path
         d="m 109.386,99.4 a 7.037,7.037 0 1 0 7.036,7.037 7.044,7.044 0 0 0 -7.036,-7.037 z m 0,10.573 a 3.537,3.537 0 1 1 3.536,-3.536 3.539,3.539 0 0 1 -3.536,3.532 z"
         id="path8085"
         inkscape:connector-curvature="0" />
      <path
         d="m 51.57,119.5 h -5.451 a 1.75,1.75 0 1 0 0,3.5 h 5.451 a 1.75,1.75 0 1 0 0,-3.5 z"
         id="path8087"
         inkscape:connector-curvature="0" />
    </g>
  </g>
</svg>
