<?xml version="1.0" encoding="UTF-8" standalone="no"?>
<!-- Generator: Adobe Illustrator 19.0.0, SVG Export Plug-In . SVG Version: 6.00 Build 0)  -->

<svg
   xmlns:dc="http://purl.org/dc/elements/1.1/"
   xmlns:cc="http://creativecommons.org/ns#"
   xmlns:rdf="http://www.w3.org/1999/02/22-rdf-syntax-ns#"
   xmlns:svg="http://www.w3.org/2000/svg"
   xmlns="http://www.w3.org/2000/svg"
   xmlns:sodipodi="http://sodipodi.sourceforge.net/DTD/sodipodi-0.dtd"
   xmlns:inkscape="http://www.inkscape.org/namespaces/inkscape"
   version="1.1"
   id="Capa_1"
   x="0px"
   y="0px"
   viewBox="0 0 512 512"
   xml:space="preserve"
   sodipodi:docname="steel_ns.svg"
   width="16"
   height="16"
   inkscape:version="0.92.3 (2405546, 2018-03-11)"><metadata
   id="metadata1051"><rdf:RDF><cc:Work
       rdf:about=""><dc:format>image/svg+xml</dc:format><dc:type
         rdf:resource="http://purl.org/dc/dcmitype/StillImage" /><dc:title></dc:title></cc:Work></rdf:RDF></metadata><defs
   id="defs1049" /><sodipodi:namedview
   pagecolor="#ffffff"
   bordercolor="#666666"
   borderopacity="1"
   objecttolerance="10"
   gridtolerance="10"
   guidetolerance="10"
   inkscape:pageopacity="0"
   inkscape:pageshadow="2"
   inkscape:window-width="1920"
   inkscape:window-height="1017"
   id="namedview1047"
   showgrid="false"
   scale-x="32"
   inkscape:zoom="26.0625"
   inkscape:cx="8.9593628"
   inkscape:cy="16.09568"
   inkscape:window-x="0"
   inkscape:window-y="30"
   inkscape:window-maximized="1"
   inkscape:current-layer="Capa_1" />














<g
   id="g1016"
   transform="translate(0,-496)">
</g>
<g
   id="g1018"
   transform="translate(0,-496)">
</g>
<g
   id="g1020"
   transform="translate(0,-496)">
</g>
<g
   id="g1022"
   transform="translate(0,-496)">
</g>
<g
   id="g1024"
   transform="translate(0,-496)">
</g>
<g
   id="g1026"
   transform="translate(0,-496)">
</g>
<g
   id="g1028"
   transform="translate(0,-496)">
</g>
<g
   id="g1030"
   transform="translate(0,-496)">
</g>
<g
   id="g1032"
   transform="translate(0,-496)">
</g>
<g
   id="g1034"
   transform="translate(0,-496)">
</g>
<g
   id="g1036"
   transform="translate(0,-496)">
</g>
<g
   id="g1038"
   transform="translate(0,-496)">
</g>
<g
   id="g1040"
   transform="translate(0,-496)">
</g>
<g
   id="g1042"
   transform="translate(0,-496)">
</g>
<g
   id="g1044"
   transform="translate(0,-496)">
</g>
<path
   style="fill:#f7cf66;stroke-width:1"
   d="M 364.20123,368.28141 H 184.61221 c -10.575,0 -17.303,-11.308 -12.26,-20.601 l 36.685,-67.603 c 4.999,-9.212 14.639,-14.949 25.119,-14.949 H 420.1762 Z"
   id="path984"
   inkscape:connector-curvature="0" /><path
   style="opacity:0.2;fill:#c97b00;stroke-width:1;enable-background:new"
   d="M 364.20123,368.28141 H 184.61221 c -10.575,0 -17.303,-11.308 -12.26,-20.601 l 36.685,-67.603 c 4.999,-9.212 14.639,-14.949 25.119,-14.949 H 420.1762 Z"
   id="path986"
   inkscape:connector-curvature="0" /><path
   style="fill:#f6e06a;stroke-width:1"
   d="m 500.94222,347.67941 -36.684,-67.603 c -4.99901,-9.212 -14.63901,-14.949 -25.11901,-14.949 h -37.92099 c -10.48099,0 -20.12,5.737 -25.11901,14.949 l -36.68499,67.603 c -5.044,9.295 1.68512,20.601 12.26,20.601 H 488.6842 c 10.572,10e-4 17.30103,-11.307 12.25802,-20.601 z"
   id="path988"
   inkscape:connector-curvature="0" /><path
   style="fill:#f7cf66;stroke-width:1"
   d="M 199.22221,368.23441 H 19.634208 c -10.5749997,0 -17.3029994,-11.308 -12.2599994,-20.601 l 36.6860014,-67.603 c 4.998998,-9.212 14.638998,-14.949 25.118998,-14.949 H 255.19921 Z"
   id="path990"
   inkscape:connector-curvature="0" /><path
   style="opacity:0.2;fill:#ffffff;stroke-width:1;enable-background:new"
   d="m 149.28021,265.08041 c -0.535,3.062 -0.83,6.207 -0.83,9.423 0,30.04 24.352,54.392 54.392,54.392 6.966,0 13.619,-1.324 19.74,-3.71 l 32.616,-60.104 h -105.918 z"
   id="path992"
   inkscape:connector-curvature="0" /><path
   style="fill:#f6e06a;stroke-width:1"
   d="m 335.9642,347.63141 -36.68599,-67.603 c -4.999,-9.212 -14.639,-14.949 -25.119,-14.949 h -37.921 c -10.481,0 -20.12,5.737 -25.119,14.949 l -36.686,67.603 c -5.044,9.295 1.68499,20.601 12.26,20.601 h 137.01 c 10.576,0.002 17.304,-11.306 12.26099,-20.601 z"
   id="path994"
   inkscape:connector-curvature="0" /><path
   id="SVGCleanerId_0"
   style="fill:#f7cf66;stroke-width:1"
   d="m 281.69521,265.12841 h -179.587 c -10.575002,0 -17.303002,-11.308 -12.26,-20.601 l 36.686,-67.603 c 4.999,-9.212 14.639,-14.949 25.119,-14.949 h 186.02002 z"
   inkscape:connector-curvature="0" /><g
   id="g998"
   transform="translate(-1.8417912,0.61440862)"><path
     id="SVGCleanerId_0_1_"
     style="fill:#f7cf66"
     d="M 283.537,264.514 H 103.95 c -10.575,0 -17.303,-11.308 -12.26,-20.601 l 36.686,-67.603 c 4.999,-9.212 14.639,-14.949 25.119,-14.949 h 186.02 z"
     inkscape:connector-curvature="0" /></g><path
   style="opacity:0.2;fill:#ffffff;stroke-width:1;enable-background:new"
   d="m 231.75421,161.97541 c -0.53501,3.062 -0.83001,6.207 -0.83001,9.423 0,30.04 24.352,54.392 54.392,54.392 6.966,0 13.61899,-1.324 19.74,-3.71 l 32.616,-60.104 z"
   id="path1000"
   inkscape:connector-curvature="0" /><path
   style="fill:#f6e06a;stroke-width:1"
   d="m 418.43723,244.52741 -36.68503,-67.603 c -4.99897,-9.212 -14.63897,-14.949 -25.11897,-14.949 H 318.7122 c -10.48099,0 -20.11999,5.737 -25.11899,14.949 l -36.685,67.603 c -5.044,9.295 1.68499,20.601 12.26,20.601 h 137.01001 c 10.57398,0 17.30301,-11.308 12.25901,-20.601 z"
   id="path1002"
   inkscape:connector-curvature="0" /><g
   id="g1008"
   transform="translate(-1.8417912,0.61440862)"><path
     style="opacity:0.2;fill:#c97b00;enable-background:new"
     d="m 51.618,272.074 c -2.258,2.089 -4.203,4.553 -5.716,7.341 L 9.217,347.017 c -5.044,9.295 1.685,20.601 12.26,20.601 h 83.707 C 63.553,349.044 48.35,297.977 51.618,272.074 Z"
     id="path1004"
     inkscape:connector-curvature="0" /><path
     style="opacity:0.2;fill:#c97b00;enable-background:new"
     d="m 134.091,168.968 c -2.258,2.089 -4.203,4.553 -5.716,7.341 l -36.686,67.604 c -5.044,9.295 1.685,20.601 12.26,20.601 h 83.707 c -41.629,-18.575 -56.833,-69.643 -53.565,-95.546 z"
     id="path1006"
     inkscape:connector-curvature="0" /></g><path
   style="fill:#f7cf66;stroke-width:1"
   d="m 399.60222,210.25741 v 0 c -3.58301,7.427 -14.16099,7.427 -17.74301,0 v 0 c -4.14701,-8.597 -11.016,-15.584 -19.54,-19.875 l -2.376,-1.196 c -7.22701,-3.639 -7.22701,-13.957 0,-17.594 l 2.376,-1.196 c 8.52499,-4.292 15.39402,-11.279 19.54,-19.875 v 0 c 3.58301,-7.427 14.16099,-7.427 17.74301,0 v 0 c 4.14701,8.597 11.016,15.584 19.54,19.875 l 2.376,1.196 c 7.22701,3.639 7.22701,13.957 0,17.594 l -2.376,1.196 c -8.52499,4.292 -15.39402,11.279 -19.54,19.875 z"
   id="path1010"
   inkscape:connector-curvature="0" /><path
   style="fill:#ffffff;stroke-width:1"
   d="m 246.90421,294.95041 v 0 c -3.583,7.427 -14.161,7.427 -17.742,0 v 0 c -4.147,-8.597 -11.016,-15.584 -19.54,-19.875 l -2.376,-1.196 c -7.227,-3.639 -7.227,-13.957 0,-17.595 l 2.376,-1.196 c 8.525,-4.292 15.394,-11.279 19.54,-19.875 v 0 c 3.583,-7.427 14.161,-7.427 17.742,0 v 0 c 4.147,8.597 11.016,15.584 19.54,19.875 l 2.376,1.196 c 7.227,3.639 7.227,13.957 0,17.595 l -2.376,1.196 c -8.524,4.291 -15.393,11.278 -19.54,19.875 z"
   id="path1012"
   inkscape:connector-curvature="0" /><path
   style="stroke-width:1"
   d="m 507.53422,344.10241 -3.92499,-7.234 c -1.976,-3.641 -6.52903,-4.992 -10.16903,-3.016 -3.64099,1.976 -4.99097,6.528 -3.016,10.169 l 3.92602,7.235 c 1.57792,2.90899 0.43808,5.426 -0.1248,6.374 -0.56288,0.948 -2.232,3.15101 -5.54199,3.15101 H 352.49742 c -0.272,-0.03 -0.54496,-0.047 -0.824,-0.047 h -0.57216 c -2.92,-0.24192 -4.44099,-2.21398 -4.96999,-3.104 -0.56416,-0.948 -1.70496,-3.465 -0.1248,-6.374 l 36.68375,-67.60301 c 3.69101,-6.801 10.78998,-11.026 18.52701,-11.026 h 37.92 c 7.73798,0 14.83699,4.225 18.52697,11.026 l 15.87501,29.253 c 1.97504,3.64 6.52602,4.989 10.16899,3.01501 3.64103,-1.976 4.99002,-6.528 3.01504,-10.169 l -15.87603,-29.25301 c -6.31699,-11.641 -18.46701,-18.871 -31.71101,-18.871 h -12.50198 c 1.752,-5.485 1.23101,-11.449 -1.60701,-16.678 l -16.74598,-30.861 c 3.464,-5.517 8.39699,-10.07 14.23299,-13.009 l 2.376,-1.196 c 5.88899,-2.965 9.54701,-8.903 9.54701,-15.497 0,-6.593 -3.65802,-12.531 -9.548,-15.497 l -2.376,-1.196 c -7.01101,-3.53 -12.74903,-9.367 -16.15901,-16.435 -2.91901,-6.052 -8.90701,-9.812 -15.62701,-9.812 -6.72,0 -12.70701,3.76 -15.62701,9.812 -1.65504,3.431 -3.86697,6.564 -6.49897,9.291 -3.84602,-1.356 -7.90301,-2.076 -11.972,-2.076 H 151.64921 c -13.244,0 -25.394,7.231 -31.711,18.871 l -36.686,67.604 c -2.829984,5.215 -3.355002,11.16 -1.621984,16.631 H 69.179208 c -13.244,0 -25.394,7.231 -31.710998,18.871 l -36.6850014,67.604 c -3.643,6.711 -3.486,14.637 0.419,21.198 3.905,6.563 10.7959994,10.48 18.4319994,10.48 H 350.23121 c 0.47712,0.031 0.95712,0.047 1.44096,0.047 h 137.01002 c 7.63699,0 14.527,-3.918 18.432,-10.48 3.90499,-6.562 4.06198,-14.487 0.42016,-21.198 z m -144.21901,-165.813 2.376,-1.196 c 3.18208,-1.60201 6.17699,-3.543 8.94099,-5.766 0.1632,-0.12416 0.32192,-0.256 0.47584,-0.39501 5.656,-4.662 10.30701,-10.523 13.50701,-17.155 0.55808,-1.156 1.56512,-1.329 2.11616,-1.329 0.55104,0 1.55904,0.172 2.11584,1.329 4.83699,10.028 12.97802,18.308 22.92301,23.316 l 2.376,1.196 c 1.12512,0.56602 1.29312,1.55901 1.29312,2.09901 0,0.54099 -0.1696,1.53299 -1.29312,2.09901 l -2.376,1.196 c -9.828,4.949 -17.88701,13.097 -22.744,22.965 -0.003,0.005 -0.006,0.01 -0.009,0.016 -0.0576,0.10784 -0.112,0.216 -0.1664,0.32499 0,0.001 -0.001,0.002 -0.001,0.003 -9.9e-4,0.002 -0.002,0.004 -0.003,0.006 v 0 c -0.55645,1.156 -1.56346,1.329 -2.11447,1.329 -0.55104,0 -1.55904,-0.17312 -2.11712,-1.32998 -4.83699,-10.028 -12.97901,-18.308 -22.92198,-23.315 l -2.376,-1.196 c -1.12608,-0.56599 -1.29408,-1.55901 -1.29408,-2.09901 -0.002,-0.53901 0.1664,-1.532 1.29216,-2.09798 z m -44.60301,-8.814 h 32.16 c -2.45184,3.02602 -3.84998,6.843 -3.84998,10.914 0,6.593 3.65798,12.531 9.548,15.497 l 2.37504,1.196 c 7.01097,3.53 12.74998,9.367 16.15798,16.435 2.91904,6.053 8.90701,9.813 15.62701,9.813 2.43488,0 4.76998,-0.5 6.90198,-1.41699 l 14.21402,26.193 c 1.57888,2.90899 0.43808,5.426 -0.1248,6.374 -0.56416,0.94701 -2.23296,3.15101 -5.54298,3.15101 H 280.06321 c -1.619,-3.41502 -4.34,-6.26602 -7.871,-8.04402 l -2.375,-1.196 c -1.702,-0.857 -3.326,-1.855 -4.863,-2.969 l 35.229,-64.919 c 3.692,-6.803 10.791,-11.028 18.52899,-11.028 z m -51.97299,95.663 c -0.011,0.54999 -0.20192,1.49399 -1.29101,2.04199 l -2.376,1.196 c -9.945,5.008 -18.086,13.28899 -22.922,23.316 -0.55798,1.156 -1.56499,1.32899 -2.11699,1.32899 -0.55101,0 -1.55901,-0.17216 -2.116,-1.32899 -4.838,-10.02899 -12.979,-18.30899 -22.923,-23.31599 l -2.376,-1.196 c -1.12601,-0.56601 -1.29299,-1.55901 -1.29299,-2.09901 0,-0.54 0.168,-1.53299 1.29299,-2.099 l 2.376,-1.196 c 9.945,-5.00699 18.085,-13.28799 22.923,-23.31599 0.55798,-1.156 1.56499,-1.32899 2.116,-1.32899 0.55101,0 1.55901,0.17312 2.11699,1.32899 2.528,5.241 5.966,9.998 10.085,14.067 0.16704,0.18112 0.344,0.35299 0.52899,0.51699 3.637,3.491 7.783,6.453 12.309,8.732 l 2.376,1.196 c 1.12202,0.56499 1.292,1.552 1.29299,2.09299 0,0.018 -0.003,0.0349 -0.003,0.0531 0,0.003 0,0.006 0,0.01 z m -100.503,95.596 H 19.634208 c -3.31,0 -4.979,-2.204 -5.542,-3.15101 -0.564,-0.947 -1.704998,-3.46499 -0.125984,-6.374 l 36.684984,-67.60399 c 3.691002,-6.801 10.791002,-11.026 18.527002,-11.026 h 31.487 c 0.47699,0.031 0.95699,0.047 1.44099,0.047 0.27904,0 0.55299,-0.018 0.824,-0.047 h 30.558 c 4.142,0 7.5,-3.358 7.5,-7.5 0,-4.142 -3.358,-7.5 -7.5,-7.5 h -31.95299 c -2.920002,-0.241 -4.441,-2.214 -4.970002,-3.103 -0.562998,-0.948 -1.704,-3.465 -0.126,-6.374 l 36.686002,-67.603 c 3.691,-6.801 10.79,-11.026 18.527,-11.026 h 137.79 c -0.88499,1.22999 -1.70601,2.51799 -2.44099,3.872 l -32.57801,60.034 c -0.257,-0.475 -0.529,-0.941 -0.764,-1.428 -2.92,-6.052 -8.908,-9.812 -15.628,-9.811 -6.72,0 -12.707,3.76 -15.626,9.812 -3.41,7.069 -9.149,12.906 -16.16,16.436 l -2.376,1.196 c -3.514,1.77 -6.225,4.602 -7.847,7.997 h -27.774 c -4.142,0 -7.5,3.358 -7.5,7.5 0,4.142 3.358,7.5 7.5,7.5 h 27.774 c 1.43002,2.99101 3.706,5.544 6.633,7.319 l -34.815,64.157 c -2.836,5.227 -3.356,11.192 -1.604,16.677 z m 163.01001,-3.152 c -0.56288,0.948 -2.232,3.15101 -5.54202,3.15101 H 186.69421 c -3.31,0 -4.979,-2.204 -5.542,-3.15101 -0.564,-0.947 -1.705,-3.465 -0.127,-6.374 l 34.181,-62.988 c 2.94,2.88602 5.401,6.258 7.2,9.987 2.91901,6.052 8.907,9.812 15.626,9.812 0.001,0 0,0 0.001,0 6.719,0 12.707,-3.76 15.627,-9.812 v 0 c 3.409,-7.069 9.148,-12.906 16.158,-16.435 l 2.376,-1.196 c 3.257,-1.64 5.826,-4.191 7.477,-7.257 5.489,1.48598 10.229,5.15 13.016,10.286 l 36.68499,67.603 c 1.57888,2.90899 0.43808,5.427 -0.1248,6.374 z m -23.37601,-81.13 c -0.72499,-1.33699 -1.536,-2.608 -2.408,-3.824 h 68.485 c -0.88512,1.22999 -1.70592,2.51802 -2.44096,3.872 l -31.80499,58.61 z"
   id="path1014"
   inkscape:connector-curvature="0" /></svg>