<?xml version="1.0" encoding="UTF-8" standalone="no"?>
<!-- Generator: Adobe Illustrator 19.0.0, SVG Export Plug-In . SVG Version: 6.00 Build 0)  -->

<svg
   xmlns:dc="http://purl.org/dc/elements/1.1/"
   xmlns:cc="http://creativecommons.org/ns#"
   xmlns:rdf="http://www.w3.org/1999/02/22-rdf-syntax-ns#"
   xmlns:svg="http://www.w3.org/2000/svg"
   xmlns="http://www.w3.org/2000/svg"
   xmlns:sodipodi="http://sodipodi.sourceforge.net/DTD/sodipodi-0.dtd"
   xmlns:inkscape="http://www.inkscape.org/namespaces/inkscape"
   version="1.1"
   id="Layer_1"
   x="0px"
   y="0px"
   viewBox="0 0 512.0957 512.0957"
   xml:space="preserve"
   sodipodi:docname="water_ns.svg"
   width="16.002991"
   height="16.002991"
   inkscape:version="0.92.3 (2405546, 2018-03-11)"><metadata
   id="metadata1183"><rdf:RDF><cc:Work
       rdf:about=""><dc:format>image/svg+xml</dc:format><dc:type
         rdf:resource="http://purl.org/dc/dcmitype/StillImage" /><dc:title></dc:title></cc:Work></rdf:RDF></metadata><defs
   id="defs1181" /><sodipodi:namedview
   pagecolor="#ffffff"
   bordercolor="#666666"
   borderopacity="1"
   objecttolerance="10"
   gridtolerance="10"
   guidetolerance="10"
   inkscape:pageopacity="0"
   inkscape:pageshadow="2"
   inkscape:window-width="724"
   inkscape:window-height="480"
   id="namedview1179"
   showgrid="false"
   inkscape:zoom="5.214882"
   inkscape:cx="15.277958"
   inkscape:cy="6.3195905"
   inkscape:window-x="568"
   inkscape:window-y="212"
   inkscape:window-maximized="0"
   inkscape:current-layer="Layer_1" />
<path
   style="fill:#319fbc"
   d="m 515.59457,238.51333 c -35.334,0 -35.334,-32.399 -70.667,-32.399 -35.333,0 -35.334,32.399 -70.667,32.399 -35.333,0 -35.333,-32.399 -70.664,-32.399 -35.331,0 -35.331,32.399 -70.662,32.399 -35.329,0 -35.329,-32.399 -70.658,-32.399 -35.33,0 -35.33,32.399 -70.662001,32.399 -35.332,0 -35.332,-32.399 -70.662,-32.399 v 81.728 c 35.331,0 35.331,32.399 70.662,32.399 35.331001,0 35.330001,-32.399 70.662001,-32.399 35.329,0 35.329,32.399 70.658,32.399 35.331,0 35.331,-32.399 70.662,-32.399 35.333,0 35.333,32.399 70.664,32.399 35.334,0 35.334,-32.399 70.667,-32.399 35.333,0 35.334,32.399 70.667,32.399"
   id="path1128"
   inkscape:connector-curvature="0" />
<path
   style="fill:#2690a8"
   d="m 515.59457,156.78433 c -35.334,0 -35.334,-32.399 -70.667,-32.399 -35.333,0 -35.334,32.399 -70.667,32.399 -35.333,0 -35.333,-32.399 -70.664,-32.399 -35.331,0 -35.331,32.399 -70.662,32.399 -35.329,0 -35.329,-32.399 -70.658,-32.399 -35.33,0 -35.33,32.399 -70.662001,32.399 -35.332,0 -35.332,-32.399 -70.662,-32.399 v 81.728 c 35.331,0 35.331,32.399 70.662,32.399 35.331001,0 35.330001,-32.399 70.662001,-32.399 35.329,0 35.329,32.399 70.658,32.399 35.331,0 35.331,-32.399 70.662,-32.399 35.333,0 35.333,32.399 70.664,32.399 35.334,0 35.334,-32.399 70.667,-32.399 35.333,0 35.334,32.399 70.667,32.399"
   id="path1130"
   inkscape:connector-curvature="0" />
<path
   style="fill:#40b3db"
   d="m 515.59457,320.24033 c -35.334,0 -35.334,-32.399 -70.667,-32.399 -35.333,0 -35.334,32.399 -70.667,32.399 -35.333,0 -35.333,-32.399 -70.664,-32.399 -35.331,0 -35.331,32.399 -70.662,32.399 -35.329,0 -35.329,-32.399 -70.658,-32.399 -35.33,0 -35.33,32.399 -70.662001,32.399 -35.332,0 -35.332,-32.399 -70.662,-32.399 v 81.728 c 35.331,0 35.331,32.399 70.662,32.399 35.331001,0 35.330001,-32.399 70.662001,-32.399 35.329,0 35.329,32.399 70.658,32.399 35.331,0 35.331,-32.399 70.662,-32.399 35.333,0 35.333,32.399 70.664,32.399 35.334,0 35.334,-32.399 70.667,-32.399 35.333,0 35.334,32.399 70.667,32.399"
   id="path1132"
   inkscape:connector-curvature="0" />
<path
   d="m 20.952569,133.06433 c 14.289,0 20.987,6.142 29.465,13.917 9.447,8.663 20.155,18.483 41.198,18.483 21.042001,0 31.749001,-9.819 41.197001,-18.481 8.478,-7.776 15.176,-13.918 29.465,-13.918 14.288,0 20.985,6.142 29.464,13.917 9.447,8.663 20.154,18.483 41.196,18.483 21.042,0 31.749,-9.818 41.197,-18.481 8.479,-7.776 15.177,-13.918 29.466,-13.918 14.289,0 20.987,6.142 29.466,13.917 9.448,8.663 20.156,18.483 41.198,18.483 21.042,0 31.75,-9.818 41.198,-18.481 8.481,-7.776 15.178,-13.918 29.469,-13.918 14.29,0 20.989,6.142 29.469,13.918 9.447,8.663 20.155,18.481 41.198,18.481 4.794,0 8.678,-3.886 8.678,-8.678 0,-4.793 -3.884,-8.678 -8.678,-8.678 -14.29,0 -20.989,-6.142 -29.469,-13.918 -9.447,-8.663 -20.155,-18.481 -41.198,-18.481 -21.043,0 -31.751,9.819 -41.199,18.481 -8.479,7.776 -15.177,13.918 -29.467,13.918 -14.29,0 -20.988,-6.142 -29.467,-13.918 -9.448,-8.663 -20.155,-18.481 -41.198,-18.481 -21.043,0 -31.75,9.819 -41.198,18.483 -8.478,7.776 -15.176,13.917 -29.465,13.917 -14.288,0 -20.985,-6.142 -29.464,-13.917 -9.447,-8.663 -20.154,-18.483 -41.196,-18.483 -21.042,0 -31.749,9.819 -41.197,18.481 -8.478,7.776 -15.176,13.918 -29.465001,13.918 -14.289,0 -20.987,-6.142 -29.466,-13.918 -9.448,-8.662 -20.155,-18.481 -41.197,-18.481 -4.794,0 -8.678,3.886 -8.678,8.678 0,4.792 3.884,8.675 8.678,8.675 z"
   id="path1134"
   inkscape:connector-curvature="0" />
<path
   d="m 515.59557,229.83433 c -14.29,0 -20.989,-6.142 -29.469,-13.918 -9.447,-8.663 -20.155,-18.481 -41.198,-18.481 -21.043,0 -31.751,9.819 -41.199,18.481 -8.479,7.776 -15.177,13.918 -29.467,13.918 -14.29,0 -20.988,-6.142 -29.468,-13.918 -9.447,-8.663 -20.154,-18.481 -41.197,-18.481 -21.043,0 -31.75,9.819 -41.198,18.483 -8.478,7.776 -15.176,13.917 -29.465,13.917 -14.288,0 -20.984,-6.142 -29.464,-13.917 -1.083,-0.993 -2.165,-1.986 -3.263,-2.965 -3.578,-3.19 -9.064,-2.873 -12.253,0.704 -3.189,3.578 -2.873,9.064 0.704,12.253 1.037,0.925 2.059,1.862 3.081,2.799 9.447,8.662 20.154,18.481 41.195,18.481 21.042,0 31.749,-9.818 41.197,-18.481 8.479,-7.776 15.177,-13.918 29.466,-13.918 14.289,0 20.987,6.142 29.466,13.917 9.448,8.663 20.156,18.483 41.198,18.483 21.042,0 31.75,-9.818 41.198,-18.481 8.481,-7.776 15.178,-13.918 29.469,-13.918 14.29,0 20.989,6.142 29.469,13.918 9.447,8.663 20.155,18.481 41.198,18.481 4.794,0 8.678,-3.886 8.678,-8.678 0,-4.794 -3.885,-8.679 -8.678,-8.679 z"
   id="path1136"
   inkscape:connector-curvature="0" />
<path
   d="m 20.952569,214.79233 c 14.289,0 20.987,6.142 29.465,13.917 9.447,8.663 20.155,18.483 41.198,18.483 21.042001,0 31.749001,-9.819 41.197001,-18.481 8.478,-7.776 15.176,-13.918 29.465,-13.918 3.118,0 5.927,0.289 8.587,0.883 4.674,1.044 9.317,-1.899 10.362,-6.577 1.045,-4.678 -1.9,-9.317 -6.577,-10.362 -3.864,-0.863 -8.027,-1.302 -12.372,-1.302 -21.042,0 -31.749,9.819 -41.197,18.481 -8.478,7.776 -15.176,13.918 -29.465001,13.918 -14.289,0 -20.987,-6.142 -29.466,-13.918 -9.447,-8.663 -20.155,-18.481 -41.197,-18.481 -4.794,0 -8.678,3.886 -8.678,8.678 0,4.792 3.884,8.679 8.678,8.679 z"
   id="path1138"
   inkscape:connector-curvature="0" />
<path
   d="m 515.59557,393.29033 c -14.29,0 -20.989,-6.142 -29.469,-13.918 -9.447,-8.663 -20.155,-18.481 -41.198,-18.481 -21.043,0 -31.751,9.819 -41.199,18.481 -8.479,7.776 -15.177,13.918 -29.467,13.918 -14.29,0 -20.988,-6.142 -29.468,-13.918 -9.447,-8.663 -20.154,-18.481 -41.197,-18.481 -21.043,0 -31.75,9.819 -41.198,18.483 -8.478,7.776 -15.176,13.917 -29.465,13.917 -14.288,0 -20.985,-6.142 -29.464,-13.917 -9.447,-8.663 -20.153,-18.483 -41.196,-18.483 -21.043,0 -31.749,9.819 -41.197,18.481 -8.478,7.776 -15.176,13.918 -29.465001,13.918 -4.794,0 -8.678,3.886 -8.678,8.678 0,4.792 3.884,8.678 8.678,8.678 21.042001,0 31.749001,-9.819 41.197001,-18.481 8.478,-7.776 15.176,-13.918 29.465,-13.918 14.288,0 20.985,6.142 29.464,13.917 9.447,8.663 20.153,18.483 41.196,18.483 21.043,0 31.749,-9.818 41.197,-18.481 8.479,-7.776 15.177,-13.918 29.466,-13.918 14.289,0 20.987,6.142 29.466,13.918 9.448,8.662 20.156,18.481 41.198,18.481 21.042,0 31.75,-9.818 41.198,-18.481 8.481,-7.776 15.178,-13.918 29.469,-13.918 14.29,0 20.989,6.142 29.469,13.918 9.447,8.663 20.155,18.481 41.198,18.481 4.794,0 8.678,-3.886 8.678,-8.678 0,-4.792 -3.885,-8.679 -8.678,-8.679 z"
   id="path1140"
   inkscape:connector-curvature="0" />
<path
   d="m 71.300569,387.09233 c -3.162,-2.227 -6.071,-4.895 -9.152,-7.719 -9.447,-8.663 -20.155,-18.483 -41.197,-18.483 -4.794,0 -8.678,3.886 -8.678,8.678 0,4.793 3.884,8.678 8.678,8.678 14.289,0 20.987,6.142 29.466,13.918 3.35,3.071 6.812,6.246 10.888,9.117 1.519,1.07 3.262,1.584 4.989,1.584 2.727,0 5.414,-1.282 7.104,-3.682 2.76,-3.918 1.82,-9.331 -2.098,-12.091 z"
   id="path1142"
   inkscape:connector-curvature="0" />
<path
   d="m 515.59557,311.56233 c -14.29,0 -20.989,-6.142 -29.469,-13.918 -9.447,-8.663 -20.155,-18.481 -41.198,-18.481 -21.042,0 -31.749,9.818 -41.198,18.48 -3.533,3.239 -3.771,8.728 -0.531,12.262 3.238,3.533 8.727,3.77 12.262,0.531 8.479,-7.775 15.178,-13.917 29.467,-13.917 14.29,0 20.989,6.142 29.469,13.918 9.447,8.663 20.155,18.481 41.198,18.481 4.794,0 8.678,-3.886 8.678,-8.678 0,-4.793 -3.885,-8.678 -8.678,-8.678 z"
   id="path1144"
   inkscape:connector-curvature="0" />
<path
   d="m 20.952569,296.51933 c 14.289,0 20.987,6.142 29.465,13.917 9.447,8.663 20.155,18.483 41.198,18.483 21.042001,0 31.749001,-9.819 41.197001,-18.481 8.478,-7.776 15.176,-13.918 29.465,-13.918 14.288,0 20.985,6.142 29.464,13.918 9.447,8.662 20.154,18.481 41.196,18.481 21.042,0 31.749,-9.818 41.197,-18.481 8.479,-7.776 15.177,-13.918 29.466,-13.918 14.289,0 20.987,6.142 29.466,13.918 9.448,8.662 20.156,18.481 41.198,18.481 4.913,0 9.587,-0.56 13.89,-1.664 4.642,-1.192 7.439,-5.922 6.247,-10.563 -1.191,-4.642 -5.915,-7.439 -10.564,-6.248 -2.934,0.753 -6.066,1.12 -9.573,1.12 -14.29,0 -20.988,-6.142 -29.468,-13.918 -9.447,-8.663 -20.154,-18.481 -41.197,-18.481 -21.043,0 -31.75,9.819 -41.198,18.483 -8.478,7.776 -15.176,13.917 -29.465,13.917 -14.288,0 -20.985,-6.142 -29.464,-13.918 -9.447,-8.662 -20.153,-18.481 -41.196,-18.481 -21.043,0 -31.749,9.819 -41.197,18.481 -8.478,7.776 -15.176,13.918 -29.465001,13.918 -14.289,0 -20.987,-6.142 -29.466,-13.918 -9.447,-8.663 -20.155,-18.481 -41.197,-18.481 -4.794,0 -8.678,3.886 -8.678,8.678 0,4.792 3.885,8.675 8.679,8.675 z"
   id="path1146"
   inkscape:connector-curvature="0" />
<g
   id="g1148"
   transform="translate(0,-496)">
</g>
<g
   id="g1150"
   transform="translate(0,-496)">
</g>
<g
   id="g1152"
   transform="translate(0,-496)">
</g>
<g
   id="g1154"
   transform="translate(0,-496)">
</g>
<g
   id="g1156"
   transform="translate(0,-496)">
</g>
<g
   id="g1158"
   transform="translate(0,-496)">
</g>
<g
   id="g1160"
   transform="translate(0,-496)">
</g>
<g
   id="g1162"
   transform="translate(0,-496)">
</g>
<g
   id="g1164"
   transform="translate(0,-496)">
</g>
<g
   id="g1166"
   transform="translate(0,-496)">
</g>
<g
   id="g1168"
   transform="translate(0,-496)">
</g>
<g
   id="g1170"
   transform="translate(0,-496)">
</g>
<g
   id="g1172"
   transform="translate(0,-496)">
</g>
<g
   id="g1174"
   transform="translate(0,-496)">
</g>
<g
   id="g1176"
   transform="translate(0,-496)">
</g>
</svg>